<?xml version="1.0" encoding="utf-8"?>
<!-- Generator: Adobe Illustrator 15.1.0, SVG Export Plug-In . SVG Version: 6.00 Build 0)  -->
<!DOCTYPE svg PUBLIC "-//W3C//DTD SVG 1.1//EN" "http://www.w3.org/Graphics/SVG/1.1/DTD/svg11.dtd">
<svg version="1.1" id="Vrstva_1" xmlns="http://www.w3.org/2000/svg" xmlns:xlink="http://www.w3.org/1999/xlink" x="0px" y="0px"
	 width="444.534px" height="278.947px" viewBox="0 0 444.534 278.947" enable-background="new 0 0 444.534 278.947"
	 xml:space="preserve">
<g opacity="0.6">
	<g>
		<path fill="#BCDCF5" d="M204.567,173.422c0-38.525,27.822-44.723,55.941-46.607c27.971-1.877,56.918-4.488,56.918-31.66
			c0-1.441-0.07-2.953-0.217-4.543l5.209,0.018l0.746,10.068c0.137,1.855,0.373,4.477,0.373,6.502
			c0,36.035-23.816,40.281-52.377,40.281c-2.451,0-4.939-0.033-7.453-0.078c16.039,9.346,25.891,28.838,25.891,48.678
			c0,39.662-34.277,66.102-85.777,66.102c-53.26,0-88.766-29.088-88.766-72.725c0-39.16,25.361-70.486,62.283-75.334v-0.373
			c-19.854-3.801-34.082-26.473-34.082-49.26c0-30.414,24.074-50.691,60.193-50.691c5.594,0,18.646,0.746,28.715,4.85
			c5.594,2.238,10.07,6.34,12.68,10.814l0.748-0.373c-0.375-1.492-0.375-4.102-0.375-6.34v-7.832h3.357v49.975h-3.357v-5.967
			c-2.236-28.344-22.004-38.412-41.768-38.412c-24.869,0-41.4,17.041-41.4,42.604c0,23.822,14.719,48.77,38.416,48.77h5.967v6.713
			h-7.832c-33.939,0-54.078,25.732-54.078,70.857c0,38.262,26.801,63.775,67.002,63.775c42.641,0,71.068-23.232,71.068-58.072
			c0-23.826-17.205-47.963-43.434-47.262l0,0c-16.766,1.67-27.879,7.623-27.879,27.014v1.867h-6.713V173.422z"/>
	</g>
	<g>
		<g>
			<path fill="#BCDCF5" d="M207.454,266.422c-17.068,0-33.508-2.984-46.295-8.404c-0.307-0.129-0.449-0.486-0.32-0.795
				c0.131-0.307,0.486-0.453,0.795-0.318c12.639,5.355,28.91,8.307,45.82,8.307c50.943,0,85.174-26.322,85.174-65.496
				c0-8.623-1.84-18.877-4.576-25.516c-0.125-0.311,0.021-0.664,0.33-0.791c0.312-0.131,0.664,0.02,0.789,0.328
				c2.836,6.879,4.666,17.078,4.666,25.979C293.837,239.615,259.122,266.422,207.454,266.422z M154.296,217.062
				c-0.252,0-0.486-0.158-0.574-0.408c-2.066-6.021-4.498-14.135-4.961-23.535c-0.701-14.174,1.283-29.59,5.053-39.264
				c8.098-20.785,25.293-32.229,48.42-32.229h7.225v-6.107c0-0.336,0.275-0.605,0.607-0.605c0.336,0,0.605,0.27,0.605,0.605v7.318
				h-8.438c-22.594,0-39.389,11.17-47.293,31.457c-3.711,9.529-5.662,24.746-4.971,38.766c0.457,9.246,2.857,17.256,4.896,23.199
				c0.111,0.314-0.059,0.66-0.373,0.77C154.427,217.051,154.36,217.062,154.296,217.062z M215.521,181.018h-7.32
				c-0.334,0-0.604-0.271-0.604-0.605c0-0.336,0.27-0.605,0.604-0.605h6.109v-1.26c0-22.416,10.43-27.186,27.256-27.619
				c5.445-0.176,9.227,0.941,13.256,2.326c0.314,0.107,0.482,0.451,0.375,0.766c-0.109,0.318-0.451,0.486-0.77,0.379
				c-3.912-1.344-7.574-2.441-12.826-2.26c-16.52,0.426-26.08,4.881-26.08,26.408V181.018z M274.794,151.719
				c-0.336,0-0.605-0.271-0.605-0.605c0-0.336,0.27-0.604,0.605-0.604c26.195,0,51.771-3.066,51.771-39.676
				c0-1.654-0.164-3.75-0.293-5.434l-0.824-11.094c-0.023-0.334,0.227-0.625,0.559-0.65c0.324-0.031,0.625,0.223,0.65,0.559
				l0.824,11.09c0.131,1.707,0.297,3.828,0.297,5.529C327.778,148.561,301.603,151.719,274.794,151.719z M169.022,84.408
				c-0.244,0-0.475-0.15-0.566-0.391c-2.336-6.17-3.377-11.867-3.377-18.479c0-25.904,15.629-41.998,40.791-41.998
				c5.709,0,10.301,0.812,15.846,2.805c0.314,0.113,0.479,0.461,0.365,0.775s-0.461,0.477-0.775,0.365
				c-5.404-1.941-9.875-2.734-15.436-2.734c-24.414,0-39.58,15.629-39.58,40.787c0,6.459,1.016,12.025,3.299,18.049
				c0.117,0.312-0.039,0.662-0.352,0.781C169.167,84.396,169.093,84.408,169.022,84.408z M252.815,69.131h-3.963
				c-0.334,0-0.607-0.27-0.607-0.604c0-0.336,0.273-0.607,0.607-0.607h2.75V18.551c0-0.334,0.271-0.605,0.605-0.605
				c0.336,0,0.607,0.271,0.607,0.605V69.131z"/>
		</g>
	</g>
</g>
<g>
	<g>
		<g>
			<path fill="#E8423B" d="M172.696,154.532c-0.145-0.273-0.627-0.37-0.996-0.37h-1.867v-0.606h1.867
				c0.352,0,1.205,0.068,1.533,0.696L172.696,154.532z"/>
		</g>
		<g>
			<path fill="#E8423B" d="M194.823,199.789l-0.553-0.24l0.189-0.443l15.854-35.303l0.553,0.249L194.823,199.789z M225.233,199.275
				h-16.857v-0.605h16.252v-0.268h0.605V199.275z M181.341,199.275h-12.543v-0.605h11.938v-0.268h0.605V199.275z M175.767,196.143
				c-1.143,0-1.295-1.012-1.295-2.001l1.504-29.986l0.605,0.031l-1.506,29.97c0,1.382,0.367,1.382,0.691,1.382V196.143z
				 M220.476,195.857c-1.076,0-1.264-0.981-1.303-1.947l-1.482-35.971c-0.02-0.438-0.039-0.843-0.039-1.212
				c0-2.004,0.615-3.089,3.854-3.089h1.852v-0.269h0.605v0.875h-2.457c-3.029,0-3.248,0.936-3.248,2.482
				c0,0.361,0.02,0.754,0.037,1.184l0.025,0.521l1.457,35.454c0.061,1.398,0.43,1.38,0.75,1.365l0.023,0.606
				C220.524,195.857,220.499,195.857,220.476,195.857z M194.841,187.732l-15.682-34.693l0.553-0.25l15.682,34.695L194.841,187.732z"
				/>
		</g>
		<path fill="#E8423B" d="M167.587,197.191h1.014c3.234,0,3.742-0.952,3.932-4.504l1.715-36.593c0.025-0.51,0.057-0.951,0.057-1.336
			c0-1.435-0.436-2.026-3.168-2.026h-2.535v-0.572h9.324l16.428,36.344c0.57,1.267,0.951,2.345,0.951,2.727h0.316
			c0-0.382,0.443-1.776,0.889-2.727l16.428-36.344h9.514v0.572h-2.156c-3.078,0-3.551,0.939-3.551,2.786
			c0,0.504,0.035,1.077,0.062,1.715l1.459,35.454c0.125,3.617,0.57,4.504,4.059,4.504h1.395v0.569h-16.551v-0.569h2.281
			c3.486,0,3.9-0.928,3.9-2.437c0-0.344-0.021-0.717-0.033-1.114l-1.266-33.426c-0.066-1.141-0.066-2.092-0.066-2.789h-0.379
			c0,0.188-0.443,1.268-1.016,2.601l-17.061,37.99l-0.191,0.441h-0.127l-0.189-0.441l-16.809-37.294
			c-0.57-1.268-0.697-2.475-0.697-2.663h-0.254c0,0.569,0,1.015-0.062,2.155l-1.586,33.297c-0.027,0.542-0.064,1.021-0.064,1.436
			c0,1.537,0.516,2.244,3.996,2.244h2.283v0.569h-12.24V197.191z"/>
	</g>
	<path fill="#E8423B" d="M328.499,197.191h2.219c3.045,0,3.361-0.762,3.361-3.807V156.03c0-3.044-0.316-3.298-3.361-3.298h-2.219
		v-0.572h16.174v0.572h-2.221c-3.043,0-3.426,0.254-3.426,3.298v37.23c0,1.396-0.633,2.533-1.395,3.296v0.064h8.562
		c6.09,0,10.148-1.207,10.654-7.295l0.508-6.342h1.27l-1.27,18.013l-0.637-0.063l0.256-3.742h-0.062
		c-0.445,0.443-0.699,0.569-1.713,0.569h-26.701V197.191z"/>
	<path fill="#E8423B" d="M402.642,182.169l0.127,2.602c0.371,7.5,5.443,12.356,11.443,12.356c5.691,0,9.486-3.721,9.486-9.259
		c0-5.498-4.682-8.733-9.641-11.713c-5.49-3.3-11.225-6.836-11.225-14.228c0-6.165,4.996-10.273,12.494-10.273
		c3.805,0,6.467,1.332,8.436,2.788c0.441,0.32,0.951,1.271,1.014,1.46l0.443-0.126c-0.125-0.443-0.189-1.143-0.254-2.029
		l-0.189-3.364h0.635l0.697,14.97l-1.141,0.054l-0.127-2.664c-0.254-5.012-3.236-9.948-9.514-9.948
		c-5.154,0-8.057,2.709-8.057,7.737c0,5.237,4.604,8.015,9.529,10.974c5.635,3.385,11.656,7.39,11.656,15.349
		c0,6.839-5.658,11.396-14.145,11.396c-3.898,0-6.77-1.154-10.023-3.405c-0.439-0.317-1.393-1.521-1.582-2.095l-0.254,0.065
		c0.125,0.634,0.219,1.966,0.254,2.728l0.189,3.969l-0.57,0.025l-0.826-17.314L402.642,182.169z M414.628,147.784l-6.469-6.342
		l0.951-1.143l3.107,3.108c1.871,1.871,3.17,3.425,3.17,3.679h0.256c0-0.254,1.299-1.743,3.234-3.679l3.109-3.108l0.949,1.143
		l-6.533,6.342H414.628z"/>
	<g>
		<path fill="#E8423B" d="M358.849,202.54l-0.979-0.095l0.057-0.604l0.361,0.036l1.248-17.703l0.602,0.043L358.849,202.54z
			 M354.87,199.275h-25.16v-0.605h25.16c0.426,0,0.693-0.023,0.891-0.079l0.16,0.585
			C355.669,199.246,355.354,199.275,354.87,199.275z M340.192,195.824l-0.572-0.196l0.027-0.076
			c0.141-0.415,0.287-0.845,0.287-1.289V157.24c0-3.162,0.455-3.6,3.73-3.6h1.914v-0.271h0.605v0.877h-2.52
			c-2.949,0-3.123,0.167-3.123,2.993v37.022c0,0.544-0.17,1.045-0.322,1.485L340.192,195.824z"/>
	</g>
	<g>
		<path fill="#E8423B" d="M403.55,201.051l-0.029-0.605l0.268-0.012l-0.174-3.666l0.605-0.028l0.201,4.272L403.55,201.051z
			 M415.524,199.764c-2.102,0-5.207-0.332-7.064-1.062l0.223-0.563c1.703,0.671,4.73,1.02,6.842,1.02
			c7.889,0,13.84-5.289,13.84-12.305c0-7.515-5.531-11.873-11.51-15.465c-4.975-2.988-9.676-5.812-9.676-11.23
			c0-1.862,0.678-3.479,1.912-4.561c1.488-1.305,3.736-1.8,6.5-1.431c0.926,0.125,1.832,0.419,2.852,0.929l-0.273,0.541
			c-0.955-0.479-1.799-0.756-2.658-0.871c-2.588-0.342-4.67,0.103-6.021,1.289c-1.1,0.962-1.705,2.419-1.705,4.104
			c0,5.076,4.559,7.812,9.383,10.712c6.129,3.681,11.803,8.166,11.803,15.983C429.97,194.213,423.759,199.764,415.524,199.764z
			 M404.37,189.998c-0.391-1.254-0.625-2.601-0.693-4.002l-0.127-2.603l0.605-0.028l0.127,2.601c0.064,1.35,0.291,2.646,0.664,3.853
			L404.37,189.998z M426.194,166.919l-0.029-0.604l0.838-0.04l-0.684-14.666l0.605-0.027l0.713,15.27L426.194,166.919z
			 M417.737,149.298h-1.896v-0.604h1.65l6.445-6.258l0.422,0.435L417.737,149.298z"/>
	</g>
	<g>
		<g>
			<path fill="#E8423B" d="M231.917,154.617c-0.145-0.275-0.629-0.372-0.996-0.372h-1.869v-0.606h1.869
				c0.352,0,1.201,0.068,1.531,0.698L231.917,154.617z"/>
		</g>
		<path fill="#E8423B" d="M227.841,197.191h2.221c3.047,0,3.363-0.253,3.363-3.297V156.03c0-3.044-0.316-3.3-3.363-3.3h-2.221v-0.57
			h16.178v0.698h-2.221c-3.045,0-3.426,0.253-3.426,3.297v37.739c0,3.044,0.381,3.297,3.426,3.297h2.221v0.569h-16.178V197.191z"/>
		<g>
			<path fill="#E8423B" d="M245.532,199.275h-16.48v-0.605h15.875v-0.268h0.605V199.275z M240.614,196.131
				c-1.143,0-1.295-1.011-1.295-2.001c0-0.159-0.01-0.33-0.018-0.515c-0.012-0.227-0.021-0.471-0.021-0.735v-35.515
				c0-3.161,0.453-3.599,3.729-3.599h1.918v-0.396h0.605v1.001h-2.523c-2.947,0-3.123,0.169-3.123,2.994v35.515
				c0,0.256,0.012,0.489,0.021,0.705c0.008,0.196,0.016,0.377,0.016,0.545c0,1.396,0.367,1.396,0.691,1.396V196.131z"/>
		</g>
	</g>
	<path fill="#E8423B" d="M386.659,161.116c0-5.441-2.619-8.31-7.484-8.31c-6.279,0-9.594,3.691-9.832,8.617l-0.189,3.931
		l-1.143,0.012l0.699-14.968h0.633l-0.189,3.36c-0.064,0.889-0.127,1.585-0.254,2.03l0.443,0.127
		c0.064-0.19,0.572-1.143,1.016-1.459c1.969-1.46,4.947-2.792,8.75-2.792c8.207,0,12.498,3.596,12.498,10.276v31.33
		c0,2.538,0.189,3.236,2.092,3.236c0.379,0,1.27-0.062,1.27-0.062l1.076-0.066l0.035,0.571c-3.08,0.316-5.076,0.82-6.883,1.396
		v-0.506c0-1.573-0.32-3.729-0.67-5.708c-0.285-1.617-0.51-3.128-0.537-4.124h-0.635c-1.9,7.607-6.088,10.273-10.652,10.273
		c-6.852,0-11.988-4.16-11.988-10.399c0-7.916,6.799-13.193,16.998-13.193h4.947V161.116z M382.028,175.832
		c-7.078,0-11.797,4.816-11.797,12.05c0,5.213,2.891,8.688,7.23,8.688c4.439,0,9.197-4.06,9.197-13.129v-7.608H382.028z"/>
	<g>
		<path fill="#E8423B" d="M376.409,199.863c-1.607,0-3.193-0.2-3.959-0.387l0.143-0.589c1.014,0.248,3.416,0.493,5.291,0.305
			c2.799-0.276,6.336-1.234,8.861-6.231l0.541,0.275c-2.66,5.259-6.391,6.267-9.344,6.56
			C377.446,199.843,376.927,199.863,376.409,199.863z M390.501,199.845l-0.186-0.577c1.621-0.516,3.551-1.037,6.654-1.377
			l-0.018-0.279l0.605-0.039l0.053,0.859l-0.289,0.029C394.101,198.795,392.138,199.322,390.501,199.845z M393.55,195.608
			c-0.182,0-0.346-0.052-0.484-0.153c-0.357-0.26-0.516-0.805-0.516-1.763c0-0.16-0.006-0.331-0.016-0.516
			c-0.008-0.226-0.02-0.47-0.02-0.734v-30.501c0-1.857-0.344-3.487-1.021-4.845l0.543-0.271c0.719,1.441,1.084,3.163,1.084,5.116
			v30.501c0,0.256,0.01,0.49,0.018,0.707c0.01,0.194,0.018,0.375,0.018,0.543c0,0.974,0.188,1.215,0.268,1.272
			c0.025,0.019,0.098,0.074,0.334,0l0.184,0.578C393.804,195.587,393.673,195.608,393.55,195.608z M371.864,192.579
			c-0.336-0.892-0.723-2.095-0.723-3.487c0-3.661,0.943-6.676,2.729-8.724c2.041-2.339,5.369-3.629,9.369-3.629h2.061v0.605h-2.061
			c-3.824,0-6.99,1.215-8.914,3.423c-1.662,1.906-2.578,4.861-2.578,8.324c0,1.294,0.365,2.43,0.684,3.272L371.864,192.579z
			 M369.224,166.881l-0.004-0.606l0.855-0.009l0.176-3.647c0.268-5.49,4.15-8.901,10.135-8.901c0.721,0,1.807,0.191,2.604,0.622
			l-0.285,0.534c-0.703-0.38-1.693-0.552-2.318-0.552c-5.715,0-9.275,3.114-9.529,8.327l-0.203,4.218L369.224,166.881z
			 M370.745,153.164l-0.604-0.034l0.109-1.947l0.605,0.034L370.745,153.164z"/>
	</g>
	<g>
		<path fill="#E8423B" d="M248.329,197.191h2.246c3.02,0,3.336-0.382,3.336-3.931v-37.166c0-3.045-0.291-3.362-3.336-3.362h-2.221
			v-0.572h14.525v0.572h-0.572c-3.045,0-3.449,0.317-3.449,3.362v14.269c2.283,0,3.539-0.137,4.137-0.889l10.031-12.621
			c0.785-0.989,1.131-1.781,1.131-2.395c0-1.205-1.328-1.727-3.287-1.727h-0.57v-0.572h14.016v0.572h-0.76
			c-2.816,0-6.66,1.015-9.322,4.375l-10.084,12.747l0.061,0.255c10.076,2.309,11.307,10.472,12.209,17.821
			c0.611,4.985,1.123,9.008,4.887,9.008c0.854,0,1.852-0.364,3.008-1.249l0.826-0.659l0.357,0.448l-0.803,0.636
			c-1.777,1.593-3.521,2.36-5.15,2.36c-6.109,0-7.227-6.025-8.359-12.445c-1.309-7.434-2.688-15.095-11.539-15.095h-0.787v22.326
			c0,3.549,0.404,3.931,3.449,3.931h2.221v0.569h-16.199V197.191z"/>
		<g>
			<path fill="#E8423B" d="M280.292,199.988c-1.416,0-2.484-0.084-3.438-0.5l0.242-0.556c0.857,0.376,1.859,0.45,3.195,0.45
				c1.848,0,3.77-0.811,5.412-2.283l1.08-0.985l-0.18-0.225l0.475-0.376l0.531,0.667l-1.5,1.368
				C284.353,199.124,282.288,199.988,280.292,199.988z M266.04,199.275h-16.498v-0.605h15.895v-0.268h0.604V199.275z
				 M261.063,196.471c-1.145,0-1.297-1.011-1.297-2v-22.65l1.109,0.08c1.25,0.089,2.391,0.325,3.395,0.702l-0.211,0.567
				c-0.949-0.355-2.035-0.58-3.227-0.666l-0.461-0.035v22.002c0,1.396,0.367,1.396,0.691,1.396V196.471z M279.835,195.665
				c-0.814-0.212-1.01-0.361-1.527-1.636c-0.473-1.47-0.709-2.642-0.98-4.85l-0.102-0.848c-0.4-3.335-0.9-7.486-2.146-10.269
				l0.555-0.246c1.281,2.864,1.787,7.066,2.195,10.442l0.1,0.847c0.268,2.163,0.498,3.312,0.947,4.716
				c0.439,1.082,0.5,1.099,1.061,1.243l-0.025,0.306L279.835,195.665z M266.468,170.152l-0.477-0.377l9.213-11.646
				c3.215-4.052,7.758-4.489,9.562-4.489h0.459v-0.271h0.604v0.877h-1.062c-1.717,0-6.039,0.413-9.084,4.259L266.468,170.152z
				 M260.372,169.657h-0.605v-12.353c0-3.185,0.49-3.664,3.752-3.664h0.27v-0.271h0.605v0.877h-0.875
				c-2.912,0-3.146,0.228-3.146,3.058V169.657z M273.54,154.675l-0.561-0.227c0.008-0.016,0.008-0.023,0.008-0.023
				c-0.051-0.065-0.42-0.178-0.904-0.178h-0.572v-0.606h0.572c0.33,0,1.131,0.045,1.412,0.463
				C273.606,154.271,273.624,154.474,273.54,154.675z"/>
		</g>
		<g>
			<path fill="#E8423B" d="M252.429,154.618c-0.145-0.274-0.627-0.371-0.994-0.371h-1.867v-0.606h1.867
				c0.352,0,1.201,0.068,1.531,0.698L252.429,154.618z"/>
		</g>
	</g>
	<g>
		<path fill="#E8423B" d="M324.12,197.191c-3.045,0.127-6.072,0.574-8.561,1.143v-0.509c0.189-1.269,0.254-2.473,0.254-3.614v-8.88
			h-0.57c-1.334,9.133-6.66,12.939-12.623,12.939c-6.215,0-10.717-3.362-10.717-9.578v-32.221c0-1.203-0.666-1.901-1.902-1.901
			h-2.98v-0.569h3.615c2.596,0,5.834-0.765,5.834-3.361v-0.257h0.508v5.394v32.346c0,5.897,2.537,9.005,6.215,9.005
			c6.811,0,11.352-6.47,11.352-16.173v-24.859c0-3.045-0.379-3.362-3.424-3.362h-1.078v-0.572l9.83-0.254v0.508
			c-0.191,1.142-0.252,2.22-0.252,3.362v37.484c0,3.044,0.377,3.36,3.422,3.36h1.078V197.191z"/>
		<g>
			<path fill="#E8423B" d="M316.839,199.839l-0.135-0.591c2.637-0.602,5.58-1.002,8.326-1.135v-0.28h0.604v0.859l-0.289,0.012
				C322.554,198.82,319.534,199.224,316.839,199.839z M302.62,199.783c-2.193,0-4.152-0.404-5.818-1.201l0.26-0.548
				c1.586,0.76,3.457,1.143,5.559,1.143c4.18,0,9.473-2.025,11.801-7.712l0.561,0.23
				C312.542,197.657,306.997,199.783,302.62,199.783z M298.438,192.413c-0.367-1.242-0.555-2.685-0.555-4.291v-36.527h0.607v36.527
				c0,1.548,0.178,2.932,0.529,4.119L298.438,192.413z"/>
		</g>
		<g>
			<path fill="#E8423B" d="M321.821,195.6c-1.143,0-1.297-1.014-1.297-2.002l0.002-36.609c0-1.302,0.08-2.354,0.26-3.413
				l-0.006-0.457h0.607v0.507c-0.18,1.075-0.254,2.098-0.254,3.363l-0.002,36.609c0,1.395,0.365,1.395,0.689,1.395V195.6z"/>
		</g>
		<g>
			<path fill="#E8423B" d="M290.187,156.497c-0.145-0.275-0.625-0.372-0.996-0.372h-0.959v-0.606h0.959
				c0.352,0,1.201,0.068,1.531,0.698L290.187,156.497z"/>
		</g>
		<g>
			<path fill="#E8423B" d="M312.903,154.618c-0.145-0.274-0.627-0.371-0.994-0.371h-0.656v-0.606h0.656
				c0.35,0,1.199,0.068,1.531,0.698L312.903,154.618z"/>
		</g>
	</g>
</g>
<g>
	<path fill="#E8423B" d="M167.587,219.232h0.291c0.926,0,1.072-0.272,1.127-1.289l0.49-10.483c0.008-0.145,0.018-0.272,0.018-0.382
		c0-0.411-0.127-0.582-0.908-0.582h-0.727v-0.162h2.67l4.707,10.41c0.162,0.362,0.271,0.671,0.271,0.78h0.09
		c0-0.109,0.127-0.509,0.254-0.78l4.705-10.41h2.727v0.162h-0.619c-0.881,0-1.016,0.27-1.016,0.801c0,0.143,0.01,0.307,0.018,0.49
		l0.416,10.156c0.037,1.033,0.164,1.289,1.162,1.289h0.4v0.162h-4.74v-0.162h0.652c1,0,1.119-0.265,1.119-0.698
		c0-0.099-0.006-0.204-0.01-0.319l-0.363-9.572c-0.018-0.329-0.018-0.602-0.018-0.801h-0.109c0,0.056-0.127,0.362-0.291,0.743
		l-4.887,10.885l-0.053,0.124h-0.037l-0.055-0.124l-4.814-10.685c-0.162-0.363-0.199-0.708-0.199-0.764h-0.072
		c0,0.166,0,0.292-0.02,0.621l-0.453,9.534c-0.008,0.156-0.02,0.294-0.02,0.412c0,0.44,0.148,0.644,1.146,0.644h0.652v0.162h-3.506
		V219.232z"/>
	<path fill="#E8423B" d="M186.315,219.232h0.637c0.873,0,0.963-0.092,0.963-0.963v-10.81c0-0.872-0.09-0.964-0.963-0.964h-0.637
		v-0.162h4.744c2.906,0,4.832,1.617,4.832,4.033c0,2.216-1.672,3.723-3.852,3.924l-0.365,0.02v0.108
		c0.854,0.089,1.619,0.622,2.018,1.254l0.908,1.434c0.467,0.737,1.199,1.854,1.779,1.854c0.168,0,0.342-0.052,0.52-0.204l0.4-0.345
		l0.1,0.13l-0.4,0.346c-0.58,0.499-1.072,0.699-1.5,0.699c-0.93,0-1.561-0.942-2.133-1.825l-1.271-1.963
		c-0.6-0.926-0.982-1.398-1.799-1.398h-0.219v-0.31h0.836c2.207,0,3.398-1.303,3.398-3.723c0-2.408-1.191-3.708-3.398-3.708h-1.889
		v0.019c0.217,0.22,0.309,0.528,0.309,0.943v10.648c0,0.871,0.107,0.963,0.982,0.963h1.051v0.162h-5.051V219.232z"/>
	<path fill="#E8423B" d="M202.468,206.334v0.162h-1.398v0.039c0.256,0.089,0.455,0.523,0.562,0.835l4.18,10.118
		c0.023,0.06,0.143,0.39,0.143,0.653h0.236c0-0.1,0.02-0.346,0.182-0.727l4.07-9.794c0.076-0.182,0.119-0.351,0.119-0.5
		c0-0.373-0.26-0.625-0.883-0.625h-1.562v-0.162h3.963v0.162h-0.221c-0.58,0-0.725,0.329-1.053,1.125l-4.797,11.865l-0.98,0.071
		l-4.814-11.937c-0.332-0.823-0.473-1.125-1.07-1.125h-0.273v-0.162H202.468z"/>
	<path fill="#E8423B" d="M211.806,219.232h0.291c0.453,0,0.725-0.51,0.996-1.125l5.102-11.773h1.404v0.218
		c0,0.364,0.072,0.834,0.162,1.054l4.287,10.502c0.363,0.869,0.471,1.125,1.07,1.125h0.146v0.162h-3.469v-0.162h1.398v-0.039
		c-0.236-0.089-0.436-0.542-0.564-0.853l-1.012-2.489h-7.195l-0.984,2.256c-0.061,0.146-0.094,0.284-0.094,0.413
		c0,0.421,0.33,0.712,0.875,0.712h0.889v0.162h-3.303V219.232z M221.485,215.525l-3.086-7.574c-0.129-0.291-0.146-0.528-0.146-0.729
		h-0.164c0,0.111-0.053,0.346-0.217,0.729l-3.307,7.574H221.485z"/>
</g>
<g>
	<g>
		<g>
			<path fill="#E8423B" d="M15.273,85.675c-0.144-0.276-0.627-0.373-0.996-0.373h-1.868v-0.606h1.868
				c0.351,0,1.202,0.068,1.533,0.698L15.273,85.675z"/>
		</g>
		<path fill="#E8423B" d="M10.162,128.332h1.015c3.235,0,3.742-0.953,3.932-4.503l1.712-36.596c0.028-0.507,0.06-0.949,0.06-1.332
			c0-1.436-0.436-2.03-3.166-2.03h-2.537v-0.569H20.5l16.425,36.341c0.572,1.268,0.953,2.346,0.953,2.727h0.316
			c0-0.381,0.445-1.777,0.889-2.727l16.426-36.341h9.514v0.569h-2.156c-3.078,0-3.551,0.94-3.551,2.788
			c0,0.504,0.035,1.077,0.062,1.716l1.459,35.454c0.125,3.614,0.57,4.503,4.059,4.503h1.396v0.57H49.737v-0.57h2.283
			c3.486,0,3.902-0.927,3.902-2.438c0-0.344-0.021-0.715-0.033-1.115l-1.27-33.424c-0.062-1.142-0.062-2.092-0.062-2.79h-0.379
			c0,0.189-0.445,1.268-1.018,2.6L36.1,129.156l-0.189,0.443h-0.127l-0.189-0.443L18.787,91.863
			c-0.569-1.269-0.696-2.474-0.696-2.664h-0.255c0,0.571,0,1.015-0.062,2.156l-1.586,33.297c-0.028,0.541-0.065,1.02-0.065,1.438
			c0,1.535,0.516,2.242,3.998,2.242h2.282v0.57h-12.24V128.332z"/>
		<g>
			<path fill="#E8423B" d="M37.399,130.93l-0.555-0.238l0.189-0.443l15.854-35.303l0.555,0.247L37.399,130.93z M67.805,130.417
				H50.948v-0.606H67.2v-0.267h0.605V130.417z M23.917,130.417H11.374v-0.606H23.31v-0.267h0.606V130.417z M18.341,127.285
				c-1.142,0-1.297-1.013-1.297-2.002l1.505-29.985l0.606,0.03l-1.505,29.969c0,1.383,0.367,1.383,0.69,1.383V127.285z
				 M63.049,126.998c-1.076,0-1.266-0.98-1.305-1.946l-1.48-35.94c-0.021-0.451-0.041-0.864-0.041-1.241
				c0-2.005,0.615-3.09,3.854-3.09h1.854v-0.268h0.607v0.872h-2.461c-3.029,0-3.248,0.938-3.248,2.485
				c0,0.368,0.02,0.771,0.041,1.213l0.021,0.49l1.459,35.453c0.057,1.392,0.42,1.386,0.748,1.366l0.023,0.605
				C63.098,126.998,63.071,126.998,63.049,126.998z M37.417,118.875L21.734,84.181l0.552-0.25l15.682,34.694L37.417,118.875z"/>
		</g>
	</g>
	<g>
		<path fill="#E8423B" d="M92.804,92.243c0-5.441-2.62-8.308-7.485-8.308c-6.279,0-9.594,3.69-9.832,8.614l-0.189,3.934l-1.141,0.01
			l0.697-14.969h0.633l-0.189,3.361c-0.062,0.889-0.127,1.586-0.254,2.029l0.443,0.129c0.064-0.191,0.572-1.143,1.016-1.461
			c1.969-1.457,4.947-2.789,8.752-2.789c8.206,0,12.497,3.596,12.497,10.273v31.331c0,2.539,0.191,3.236,2.091,3.236
			c0.381,0,1.27-0.064,1.27-0.064l1.078-0.062l0.031,0.569c-3.076,0.317-5.074,0.82-6.88,1.396v-0.506
			c0-1.573-0.32-3.729-0.668-5.709c-0.287-1.615-0.51-3.126-0.537-4.122h-0.635c-1.902,7.606-6.089,10.272-10.655,10.272
			c-6.852,0-11.988-4.16-11.988-10.4c0-7.914,6.799-13.191,16.998-13.191h4.948V92.243z M88.172,106.959
			c-7.076,0-11.797,4.818-11.797,12.049c0,5.213,2.893,8.689,7.23,8.689c4.439,0,9.198-4.061,9.198-13.129v-7.609H88.172z"/>
		<g>
			<path fill="#E8423B" d="M96.644,130.973l-0.184-0.578c1.619-0.515,3.546-1.039,6.654-1.377l-0.016-0.281l0.604-0.037l0.053,0.859
				l-0.291,0.029C100.239,129.922,98.281,130.451,96.644,130.973z M83.52,130.93c-1.271,0-2.539-0.109-3.697-0.321l0.109-0.597
				c1.281,0.234,2.701,0.342,4.117,0.306c4.102-0.1,7.14-2.186,9.03-6.2l0.551,0.258c-1.998,4.238-5.218,6.441-9.565,6.547
				C83.883,130.928,83.702,130.93,83.52,130.93z M99.694,126.736c-0.183,0-0.345-0.053-0.484-0.154
				c-0.355-0.259-0.514-0.801-0.514-1.762c0-0.16-0.01-0.332-0.016-0.518c-0.012-0.225-0.021-0.469-0.021-0.732V93.067
				c0-1.859-0.344-3.488-1.021-4.842l0.541-0.271c0.719,1.439,1.086,3.159,1.086,5.113v30.503c0,0.255,0.01,0.489,0.02,0.706
				c0.008,0.194,0.018,0.376,0.018,0.544c0,0.975,0.184,1.215,0.266,1.273c0.023,0.018,0.098,0.074,0.333-0.001l0.184,0.577
				C99.948,126.713,99.817,126.736,99.694,126.736z M78.01,123.705c-0.34-0.891-0.725-2.092-0.725-3.486
				c0-7.389,4.859-12.352,12.098-12.352h2.733v0.605h-2.733c-6.875,0-11.494,4.721-11.494,11.746c0,1.295,0.367,2.43,0.684,3.273
				L78.01,123.705z M75.37,98.007l-0.006-0.605l0.857-0.008l0.174-3.647c0.268-5.491,4.148-8.903,10.135-8.903
				c0.721,0,1.807,0.193,2.605,0.623l-0.289,0.533c-0.701-0.378-1.691-0.55-2.316-0.55c-5.715,0-9.275,3.112-9.529,8.327
				l-0.203,4.217L75.37,98.007z M76.891,84.292l-0.607-0.035l0.113-1.946l0.605,0.034L76.891,84.292z"/>
		</g>
	</g>
	<g>
		<g>
			<path fill="#E8423B" d="M152.63,85.758c-0.145-0.274-0.627-0.373-0.996-0.373h-1.867V84.78h1.867
				c0.352,0,1.203,0.067,1.533,0.697L152.63,85.758z"/>
		</g>
		<path fill="#E8423B" d="M148.556,128.332h2.221c3.043,0,3.361-0.255,3.361-3.299V87.169c0-3.043-0.318-3.298-3.361-3.298h-2.221
			v-0.569h16.174v0.697h-2.221c-3.043,0-3.426,0.253-3.426,3.297v37.737c0,3.044,0.383,3.299,3.426,3.299h2.221v0.57h-16.174
			V128.332z"/>
		<g>
			<path fill="#E8423B" d="M166.243,130.417h-16.477v-0.606h15.871v-0.267h0.605V130.417z M161.327,127.272
				c-1.145,0-1.299-1.011-1.299-2.001c0-0.158-0.008-0.33-0.014-0.517c-0.012-0.225-0.021-0.469-0.021-0.732V88.507
				c0-3.162,0.451-3.6,3.729-3.6h1.916v-0.395h0.605v1h-2.521c-2.949,0-3.123,0.168-3.123,2.994v35.516
				c0,0.255,0.01,0.489,0.02,0.705c0.008,0.195,0.018,0.376,0.018,0.544c0,1.396,0.367,1.396,0.691,1.396V127.272z"/>
		</g>
	</g>
	<g>
		<path fill="#E8423B" d="M175.513,104.93c0,15.169,6.98,23.339,17.824,23.339c8.512,0,15.201-3.671,18.893-9.833l0.914,0.695
			c-3.922,6.444-10.998,10.277-20,10.277c-13.32,0-23.275-9.386-23.275-23.465c0-13.89,9.359-23.149,23.402-23.149
			c11.037,0,20.297,7.686,20.297,19.216v0.318c0,1.016-0.891,1.84-1.967,1.84h-36.08
			C175.515,104.418,175.513,104.674,175.513,104.93z M207.415,102.582c0.316,0,0.504-0.191,0.504-0.572
			c0-10.845-5.959-18.074-14.902-18.074c-10.836,0-16.896,6.667-17.461,19.09L207.415,102.582z"/>
		<g>
			<path fill="#E8423B" d="M194.354,130.922c-3.096,0-7.566-0.527-10.578-1.707l0.221-0.562c2.939,1.15,7.32,1.665,10.357,1.665
				c8.752,0,15.764-3.599,19.74-10.132l0.52,0.315C210.522,127.221,203.327,130.922,194.354,130.922z M178.351,117.067
				c-1.223-3.263-1.93-6.1-1.93-10.927c0-0.259,0.002-0.514,0.008-0.77l0.006-0.295h35.166c1.479,0,2.875-1.098,2.875-2.256
				c0-2.939-0.471-5.397-1.439-7.517l0.551-0.252c1.006,2.199,1.494,4.741,1.494,7.769c0,1.497-1.658,2.861-3.48,2.861h-34.57
				c-0.002,0.15-0.004,0.305-0.004,0.459c0,4.736,0.693,7.516,1.891,10.715L178.351,117.067z M177.202,102.348l-0.602-0.057
				c1.086-11.252,6.916-17.448,16.416-17.448c1.584,0,3.107,0.227,4.525,0.668l-0.18,0.578c-1.361-0.425-2.822-0.64-4.346-0.64
				C183.87,85.449,178.255,91.45,177.202,102.348z"/>
		</g>
	</g>
	<g>
		<g>
			<path fill="#E8423B" d="M111.087,85.758c-0.145-0.274-0.627-0.373-0.998-0.373h-1.869V84.78h1.869
				c0.354,0,1.205,0.067,1.535,0.697L111.087,85.758z"/>
		</g>
		<path fill="#E8423B" d="M107.011,128.332h2.219c3.045,0,3.361-0.318,3.361-3.363V87.233c0-3.044-0.316-3.362-3.361-3.362h-2.219
			v-0.569h16.553c10.148,0,16.875,5.644,16.875,14.08c0,7.736-5.84,13.001-13.451,13.699l-1.266,0.062v0.381
			c2.98,0.316,5.645,2.174,7.039,4.377l3.172,5.01c1.627,2.576,4.188,6.469,6.211,6.469c0.588,0,1.191-0.175,1.814-0.704
			l1.395-1.207l0.35,0.454l-1.396,1.205c-2.021,1.74-3.738,2.439-5.234,2.439c-3.25,0-5.457-3.289-7.451-6.371l-4.439-6.852
			c-2.096-3.232-3.426-4.884-6.281-4.884h-0.758v-1.077h2.916c7.709,0,11.859-4.551,11.859-13.001c0-8.41-4.15-12.939-11.859-12.939
			h-6.6v0.064c0.764,0.76,1.08,1.839,1.08,3.297v37.165c0,3.045,0.383,3.363,3.428,3.363h3.678v0.57h-17.633V128.332z"/>
		<g>
			<path fill="#E8423B" d="M126.157,130.417H108.22v-0.606h17.33v-0.267h0.607V130.417z M119.782,127.781
				c-1.143,0-1.297-1.012-1.297-2c0-0.162-0.01-0.334-0.018-0.52c-0.01-0.225-0.021-0.468-0.021-0.732V89.015
				c0-1.11,0-2.631-0.479-3.074l-0.098-0.09v-0.437l0.303-0.063h6.096c1.01,0,2.432,0.108,3.461,0.624l-0.27,0.542
				c-0.721-0.361-1.855-0.561-3.191-0.561h-5.566c0.32,0.684,0.35,1.766,0.35,3.059v35.515c0,0.255,0.012,0.489,0.021,0.705
				c0.008,0.195,0.016,0.377,0.016,0.547c0,1.395,0.367,1.395,0.693,1.395V127.781z M131.13,112.089l-0.152-0.587
				c6.393-1.662,10.369-6.608,10.369-12.909c0-2.039,0-4.147-1.199-6.879l0.557-0.244c1.248,2.848,1.248,5.021,1.248,7.123
				C141.952,105.182,137.804,110.353,131.13,112.089z"/>
		</g>
		<g>
			<path fill="#E8423B" d="M139.44,131.081h-0.834c-3.486,0-5.822-3.61-7.703-6.512l-4.824-7.444c-1.832-2.85-2.67-4.151-5.18-4.151
				h-0.758v-0.605h0.758c2.84,0,3.852,1.573,5.689,4.431l4.822,7.441c1.799,2.778,4.039,6.235,7.195,6.235h0.834
				c1.986,0,3.91-0.825,5.881-2.521l1.395-1.204l0.395,0.459l-1.396,1.203C143.632,130.208,141.579,131.081,139.44,131.081z"/>
		</g>
	</g>
	<path fill="#E8423B" d="M16.501,138.381c1.217,0,2.403,0.373,3.326,1.164c0.09,0.09,0.161,0.236,0.199,0.361l0.125-0.035
		c-0.035-0.145-0.049-0.346-0.054-0.527l-0.035-1.32l0.163-0.004l0.164,5.248l-0.327,0.01l-0.056-1.68
		c-0.09-1.637-1.852-2.906-3.649-2.906c-2.977,0-4.578,2.109-4.578,6.029c0,4.345,1.671,6.688,4.775,6.688
		c1.727,0,3.408-0.954,4.038-2.482l0.304,0.119c-0.709,1.812-2.472,2.688-4.378,2.688c-3.814,0-6.357-2.688-6.357-6.722
		C10.162,141.033,12.698,138.381,16.501,138.381z"/>
	<path fill="#E8423B" d="M23.876,151.425h0.637c0.872,0,0.963-0.254,0.963-1.127v-10.481c0-0.871-0.091-1.125-0.963-1.125h-0.637
		v-0.164h4.471v0.164h-0.473c-0.873,0-0.982,0.254-0.982,1.125v4.74h4.978v-4.74c0-0.871-0.109-1.125-0.98-1.125h-0.471v-0.164
		h4.486v0.164h-0.656c-0.871,0-0.963,0.254-0.963,1.125v10.481c0,0.873,0.092,1.127,0.963,1.127h0.656v0.165h-4.486v-0.165h0.49
		c0.871,0,0.961-0.254,0.961-1.127v-5.412h-4.978v5.412c0,0.873,0.109,1.127,0.982,1.127h0.473v0.165h-4.471V151.425z"/>
	<path fill="#E8423B" d="M37.52,151.425h0.291c0.453,0,0.727-0.51,0.998-1.127l5.102-11.771h1.402v0.218
		c0,0.362,0.074,0.835,0.164,1.053l4.287,10.5c0.363,0.873,0.471,1.127,1.07,1.127h0.146v0.165h-3.469v-0.165h1.396v-0.037
		c-0.234-0.09-0.436-0.542-0.562-0.854l-1.014-2.488h-7.193l-0.984,2.252c-0.062,0.147-0.094,0.286-0.094,0.414
		c0,0.424,0.33,0.713,0.875,0.713h0.889v0.165H37.52V151.425z M47.2,147.72l-3.086-7.577c-0.127-0.291-0.145-0.527-0.145-0.726
		h-0.164c0,0.108-0.055,0.345-0.219,0.726l-3.305,7.577H47.2z"/>
	<path fill="#E8423B" d="M53.631,151.425h0.637c0.873,0,0.963-0.219,0.963-1.091v-10.699c0-0.871-0.09-0.943-0.963-0.943h-0.637
		v-0.164h4.635v0.164h-0.635c-0.875,0-0.982,0.072-0.982,0.943v10.663c0,0.4-0.182,0.727-0.4,0.944v0.019h2.453
		c1.742,0,2.904-0.346,3.053-2.089l0.145-1.816h0.363l-0.363,5.158l-0.184-0.017l0.074-1.072h-0.02
		c-0.127,0.127-0.197,0.165-0.49,0.165h-7.648V151.425z"/>
	<path fill="#E8423B" d="M65.405,145.049c0-4,2.695-6.668,6.74-6.668c4.021,0,6.703,2.668,6.703,6.668
		c0,4.01-2.682,6.685-6.703,6.685C68.1,151.733,65.405,149.059,65.405,145.049z M77.268,145.395c0-4.346-1.82-6.688-5.195-6.688
		c-3.307,0-5.088,2.105-5.088,6.014c0,4.345,1.824,6.688,5.215,6.688C75.495,151.408,77.268,149.302,77.268,145.395z"/>
	<path fill="#E8423B" d="M86.223,138.527v0.164h-0.801c-0.871,0-0.961,0.09-0.961,0.963v9.607c0,1.394,0.77,2.146,2.199,2.146
		c1.945,0,2.996-0.98,2.996-2.799v-8.629c0-0.873-0.164-1.289-1.035-1.289H87.95v-0.164h3.542v0.164h-0.471
		c-0.874,0-1.036,0.416-1.036,1.289v8.629c0,2.029-1.164,3.124-3.324,3.124c-2.172,0-3.617-1.251-3.617-3.124v-8.955
		c0-0.873-0.107-0.963-0.98-0.963H81.59v-0.164H86.223z"/>
	<path fill="#E8423B" d="M94.308,151.425h0.637c0.871,0,0.963-0.09,0.963-0.964v-10.807c0-0.873-0.092-0.963-0.963-0.963h-0.637
		v-0.164h4.578c2.736,0,4.558,1.598,4.558,3.995c0,2.387-1.822,3.979-4.558,3.979h-1.562v3.959c0,0.874,0.109,0.964,0.982,0.964
		h0.453v0.165h-4.451V151.425z M97.015,138.963c0.219,0.29,0.309,0.71,0.309,1.126v6.087h1.018c2.291,0,3.523-1.277,3.523-3.653
		c0-2.372-1.232-3.649-3.523-3.649h-1.326V138.963z"/>
	<path fill="#E8423B" d="M106.771,147.121l0.037,0.746c0.105,2.148,1.559,3.541,3.277,3.541c1.631,0,2.717-1.067,2.717-2.654
		c0-1.573-1.338-2.501-2.762-3.354c-1.572-0.944-3.215-1.959-3.215-4.075c0-1.766,1.432-2.943,3.58-2.943
		c1.09,0,1.85,0.383,2.414,0.8c0.129,0.093,0.273,0.364,0.289,0.419l0.129-0.038c-0.035-0.126-0.055-0.327-0.072-0.579l-0.057-0.963
		h0.186l0.199,4.285l-0.328,0.015l-0.035-0.761c-0.074-1.438-0.928-2.852-2.725-2.852c-1.479,0-2.309,0.776-2.309,2.217
		c0,1.502,1.318,2.297,2.732,3.143c1.611,0.971,3.336,2.117,3.336,4.396c0,1.961-1.621,3.266-4.051,3.266
		c-1.117,0-1.939-0.331-2.871-0.977c-0.127-0.09-0.398-0.435-0.455-0.598l-0.072,0.016c0.037,0.183,0.062,0.563,0.072,0.784
		l0.057,1.135l-0.164,0.01l-0.236-4.96L106.771,147.121z"/>
	<path fill="#E8423B" d="M117.106,151.425h0.643c0.865,0,0.955-0.109,0.955-1.127v-10.644c0-0.873-0.082-0.963-0.955-0.963h-0.633
		v-0.164h4.158v0.164h-0.162c-0.871,0-0.988,0.09-0.988,0.963v4.086c0.654,0,1.014-0.039,1.186-0.254l2.871-3.615
		c0.227-0.284,0.324-0.51,0.324-0.686c0-0.346-0.381-0.494-0.941-0.494h-0.164v-0.164h4.016v0.164h-0.219
		c-0.805,0-1.906,0.291-2.67,1.254l-2.889,3.648l0.018,0.074c2.889,0.662,3.24,3,3.498,5.104c0.174,1.429,0.322,2.58,1.398,2.58
		c0.246,0,0.531-0.104,0.863-0.358l0.236-0.188l0.102,0.128l-0.229,0.182c-0.51,0.457-1.01,0.677-1.477,0.677
		c-1.75,0-2.068-1.728-2.393-3.565c-0.375-2.128-0.77-4.323-3.305-4.323h-0.227v6.394c0,1.018,0.117,1.127,0.988,1.127h0.635v0.165
		h-4.641V151.425z"/>
	<path fill="#E8423B" d="M129.753,151.425h0.289c0.455,0,0.727-0.51,0.998-1.127l5.104-11.771h1.4v0.218
		c0,0.362,0.074,0.835,0.164,1.053l4.289,10.5c0.363,0.873,0.473,1.127,1.072,1.127h0.146v0.165h-3.471v-0.165h1.398v-0.037
		c-0.234-0.09-0.434-0.542-0.562-0.854l-1.014-2.488h-7.195l-0.984,2.252c-0.064,0.147-0.094,0.286-0.094,0.414
		c0,0.424,0.328,0.713,0.873,0.713h0.891v0.165h-3.305V151.425z M139.433,147.72l-3.088-7.577c-0.127-0.291-0.145-0.527-0.145-0.726
		h-0.164c0,0.108-0.055,0.345-0.217,0.726l-3.307,7.577H139.433z M135.673,137.689l2.145-2.523c0.055-0.073,0.117-0.09,0.182-0.09
		c0.061,0,0.109,0.017,0.182,0.071l0.219,0.183l-0.438,0.543l-2.125,1.964L135.673,137.689z"/>
</g>
<g opacity="0.6">
	<g>
		<path fill="#BCDCF5" d="M204.567,174.422c0-38.525,27.822-44.723,55.941-46.607c27.971-1.877,56.918-4.488,56.918-31.66
			c0-1.441-0.07-2.953-0.217-4.543l5.209,0.018l0.746,10.068c0.137,1.855,0.373,4.477,0.373,6.502
			c0,36.035-23.816,40.281-52.377,40.281c-2.451,0-4.939-0.033-7.453-0.078c16.039,9.346,25.891,28.838,25.891,48.678
			c0,39.662-34.277,66.102-85.777,66.102c-53.26,0-88.766-29.088-88.766-72.725c0-39.16,25.361-70.486,62.283-75.334v-0.373
			c-19.854-3.801-34.082-26.473-34.082-49.26c0-30.414,24.074-50.691,60.193-50.691c5.594,0,18.646,0.746,28.715,4.85
			c5.594,2.238,10.07,6.34,12.68,10.814l0.748-0.373c-0.375-1.492-0.375-4.102-0.375-6.34v-7.832h3.357v49.975h-3.357v-5.967
			c-2.236-28.344-22.004-38.412-41.768-38.412c-24.869,0-41.4,17.041-41.4,42.604c0,23.822,14.719,48.77,38.416,48.77h5.967v6.713
			h-7.832c-33.939,0-54.078,25.732-54.078,70.857c0,38.262,26.801,63.775,67.002,63.775c42.641,0,71.068-23.232,71.068-58.072
			c0-23.826-17.205-47.963-43.434-47.262l0,0c-16.766,1.67-27.879,7.623-27.879,27.014v1.867h-6.713V174.422z"/>
	</g>
	<g>
		<g>
			<path fill="#BCDCF5" d="M207.454,267.422c-17.068,0-33.508-2.984-46.295-8.404c-0.307-0.129-0.449-0.486-0.32-0.795
				c0.131-0.307,0.486-0.453,0.795-0.318c12.639,5.355,28.91,8.307,45.82,8.307c50.943,0,85.174-26.322,85.174-65.496
				c0-8.623-1.84-18.877-4.576-25.516c-0.125-0.311,0.021-0.664,0.33-0.791c0.312-0.131,0.664,0.02,0.789,0.328
				c2.836,6.879,4.666,17.078,4.666,25.979C293.837,240.615,259.122,267.422,207.454,267.422z M154.296,218.062
				c-0.252,0-0.486-0.158-0.574-0.408c-2.066-6.021-4.498-14.135-4.961-23.535c-0.701-14.174,1.283-29.59,5.053-39.264
				c8.098-20.785,25.293-32.229,48.42-32.229h7.225v-6.107c0-0.336,0.275-0.605,0.607-0.605c0.336,0,0.605,0.27,0.605,0.605v7.318
				h-8.438c-22.594,0-39.389,11.17-47.293,31.457c-3.711,9.529-5.662,24.746-4.971,38.766c0.457,9.246,2.857,17.256,4.896,23.199
				c0.111,0.314-0.059,0.66-0.373,0.77C154.427,218.051,154.36,218.062,154.296,218.062z M215.521,182.018h-7.32
				c-0.334,0-0.604-0.271-0.604-0.605c0-0.336,0.27-0.605,0.604-0.605h6.109v-1.26c0-22.416,10.43-27.186,27.256-27.619
				c5.445-0.176,9.227,0.941,13.256,2.326c0.314,0.107,0.482,0.451,0.375,0.766c-0.109,0.318-0.451,0.486-0.77,0.379
				c-3.912-1.344-7.574-2.441-12.826-2.26c-16.52,0.426-26.08,4.881-26.08,26.408V182.018z M274.794,152.719
				c-0.336,0-0.605-0.271-0.605-0.605c0-0.336,0.27-0.604,0.605-0.604c26.195,0,51.771-3.066,51.771-39.676
				c0-1.654-0.164-3.75-0.293-5.434l-0.824-11.094c-0.023-0.334,0.227-0.625,0.559-0.65c0.324-0.031,0.625,0.223,0.65,0.559
				l0.824,11.09c0.131,1.707,0.297,3.828,0.297,5.529C327.778,149.561,301.603,152.719,274.794,152.719z M169.022,85.408
				c-0.244,0-0.475-0.15-0.566-0.391c-2.336-6.17-3.377-11.867-3.377-18.479c0-25.904,15.629-41.998,40.791-41.998
				c5.709,0,10.301,0.812,15.846,2.805c0.314,0.113,0.479,0.461,0.365,0.775s-0.461,0.477-0.775,0.365
				c-5.404-1.941-9.875-2.734-15.436-2.734c-24.414,0-39.58,15.629-39.58,40.787c0,6.459,1.016,12.025,3.299,18.049
				c0.117,0.312-0.039,0.662-0.352,0.781C169.167,85.396,169.093,85.408,169.022,85.408z M252.815,70.131h-3.963
				c-0.334,0-0.607-0.27-0.607-0.604c0-0.336,0.273-0.607,0.607-0.607h2.75V19.551c0-0.334,0.271-0.605,0.605-0.605
				c0.336,0,0.607,0.271,0.607,0.605V70.131z"/>
		</g>
	</g>
</g>
<path fill="#EF765C" d="M375.94,150.243l7.484-8.815c0.189-0.254,0.406-0.316,0.629-0.316c0.209,0,0.385,0.062,0.639,0.253
	l0.762,0.634l-1.523,1.903l-7.42,6.849L375.94,150.243z"/>
<g>
	<g>
		<g>
			<path fill="#E8423B" d="M172.696,155.532c-0.145-0.273-0.627-0.37-0.996-0.37h-1.867v-0.606h1.867
				c0.352,0,1.205,0.068,1.533,0.696L172.696,155.532z"/>
		</g>
		<g>
			<path fill="#E8423B" d="M194.823,200.789l-0.553-0.24l0.189-0.443l15.854-35.303l0.553,0.249L194.823,200.789z M225.233,200.275
				h-16.857v-0.605h16.252v-0.268h0.605V200.275z M181.341,200.275h-12.543v-0.605h11.938v-0.268h0.605V200.275z M175.767,197.143
				c-1.143,0-1.295-1.012-1.295-2.001l1.504-29.986l0.605,0.031l-1.506,29.97c0,1.382,0.367,1.382,0.691,1.382V197.143z
				 M220.476,196.857c-1.076,0-1.264-0.981-1.303-1.947l-1.482-35.971c-0.02-0.438-0.039-0.843-0.039-1.212
				c0-2.004,0.615-3.089,3.854-3.089h1.852v-0.269h0.605v0.875h-2.457c-3.029,0-3.248,0.936-3.248,2.482
				c0,0.361,0.02,0.754,0.037,1.184l0.025,0.521l1.457,35.454c0.061,1.398,0.43,1.38,0.75,1.365l0.023,0.606
				C220.524,196.857,220.499,196.857,220.476,196.857z M194.841,188.732l-15.682-34.693l0.553-0.25l15.682,34.695L194.841,188.732z"
				/>
		</g>
		<path fill="#E8423B" d="M167.587,198.191h1.014c3.234,0,3.742-0.952,3.932-4.504l1.715-36.593c0.025-0.51,0.057-0.951,0.057-1.336
			c0-1.435-0.436-2.026-3.168-2.026h-2.535v-0.572h9.324l16.428,36.344c0.57,1.267,0.951,2.345,0.951,2.727h0.316
			c0-0.382,0.443-1.776,0.889-2.727l16.428-36.344h9.514v0.572h-2.156c-3.078,0-3.551,0.939-3.551,2.786
			c0,0.504,0.035,1.077,0.062,1.715l1.459,35.454c0.125,3.617,0.57,4.504,4.059,4.504h1.395v0.569h-16.551v-0.569h2.281
			c3.486,0,3.9-0.928,3.9-2.437c0-0.344-0.021-0.717-0.033-1.114l-1.266-33.426c-0.066-1.141-0.066-2.092-0.066-2.789h-0.379
			c0,0.188-0.443,1.268-1.016,2.601l-17.061,37.99l-0.191,0.441h-0.127l-0.189-0.441l-16.809-37.294
			c-0.57-1.268-0.697-2.475-0.697-2.663h-0.254c0,0.569,0,1.015-0.062,2.155l-1.586,33.297c-0.027,0.542-0.064,1.021-0.064,1.436
			c0,1.537,0.516,2.244,3.996,2.244h2.283v0.569h-12.24V198.191z"/>
	</g>
	<path fill="#E8423B" d="M328.499,198.191h2.219c3.045,0,3.361-0.762,3.361-3.807V157.03c0-3.044-0.316-3.298-3.361-3.298h-2.219
		v-0.572h16.174v0.572h-2.221c-3.043,0-3.426,0.254-3.426,3.298v37.23c0,1.396-0.633,2.533-1.395,3.296v0.064h8.562
		c6.09,0,10.148-1.207,10.654-7.295l0.508-6.342h1.27l-1.27,18.013l-0.637-0.063l0.256-3.742h-0.062
		c-0.445,0.443-0.699,0.569-1.713,0.569h-26.701V198.191z"/>
	<path fill="#E8423B" d="M402.642,183.169l0.127,2.602c0.371,7.5,5.443,12.356,11.443,12.356c5.691,0,9.486-3.721,9.486-9.259
		c0-5.498-4.682-8.733-9.641-11.713c-5.49-3.3-11.225-6.836-11.225-14.228c0-6.165,4.996-10.273,12.494-10.273
		c3.805,0,6.467,1.332,8.436,2.788c0.441,0.32,0.951,1.271,1.014,1.46l0.443-0.126c-0.125-0.443-0.189-1.143-0.254-2.029
		l-0.189-3.364h0.635l0.697,14.97l-1.141,0.054l-0.127-2.664c-0.254-5.012-3.236-9.948-9.514-9.948
		c-5.154,0-8.057,2.709-8.057,7.737c0,5.237,4.604,8.015,9.529,10.974c5.635,3.385,11.656,7.39,11.656,15.349
		c0,6.839-5.658,11.396-14.145,11.396c-3.898,0-6.77-1.154-10.023-3.405c-0.439-0.317-1.393-1.521-1.582-2.095l-0.254,0.065
		c0.125,0.634,0.219,1.966,0.254,2.728l0.189,3.969l-0.57,0.025l-0.826-17.314L402.642,183.169z M414.628,148.784l-6.469-6.342
		l0.951-1.143l3.107,3.108c1.871,1.871,3.17,3.425,3.17,3.679h0.256c0-0.254,1.299-1.743,3.234-3.679l3.109-3.108l0.949,1.143
		l-6.533,6.342H414.628z"/>
	<g>
		<path fill="#E8423B" d="M358.849,203.54l-0.979-0.095l0.057-0.604l0.361,0.036l1.248-17.703l0.602,0.043L358.849,203.54z
			 M354.87,200.275h-25.16v-0.605h25.16c0.426,0,0.693-0.023,0.891-0.079l0.16,0.585
			C355.669,200.246,355.354,200.275,354.87,200.275z M340.192,196.824l-0.572-0.196l0.027-0.076
			c0.141-0.415,0.287-0.845,0.287-1.289V158.24c0-3.162,0.455-3.6,3.73-3.6h1.914v-0.271h0.605v0.877h-2.52
			c-2.949,0-3.123,0.167-3.123,2.993v37.022c0,0.544-0.17,1.045-0.322,1.485L340.192,196.824z"/>
	</g>
	<g>
		<path fill="#E8423B" d="M403.55,202.051l-0.029-0.605l0.268-0.012l-0.174-3.666l0.605-0.028l0.201,4.272L403.55,202.051z
			 M415.524,200.764c-2.102,0-5.207-0.332-7.064-1.062l0.223-0.563c1.703,0.671,4.73,1.02,6.842,1.02
			c7.889,0,13.84-5.289,13.84-12.305c0-7.515-5.531-11.873-11.51-15.465c-4.975-2.988-9.676-5.812-9.676-11.23
			c0-1.862,0.678-3.479,1.912-4.561c1.488-1.305,3.736-1.8,6.5-1.431c0.926,0.125,1.832,0.419,2.852,0.929l-0.273,0.541
			c-0.955-0.479-1.799-0.756-2.658-0.871c-2.588-0.342-4.67,0.103-6.021,1.289c-1.1,0.962-1.705,2.419-1.705,4.104
			c0,5.076,4.559,7.812,9.383,10.712c6.129,3.681,11.803,8.166,11.803,15.983C429.97,195.213,423.759,200.764,415.524,200.764z
			 M404.37,190.998c-0.391-1.254-0.625-2.601-0.693-4.002l-0.127-2.603l0.605-0.028l0.127,2.601c0.064,1.35,0.291,2.646,0.664,3.853
			L404.37,190.998z M426.194,167.919l-0.029-0.604l0.838-0.04l-0.684-14.666l0.605-0.027l0.713,15.27L426.194,167.919z
			 M417.737,150.298h-1.896v-0.604h1.65l6.445-6.258l0.422,0.435L417.737,150.298z"/>
	</g>
	<g>
		<g>
			<path fill="#E8423B" d="M231.917,155.617c-0.145-0.275-0.629-0.372-0.996-0.372h-1.869v-0.606h1.869
				c0.352,0,1.201,0.068,1.531,0.698L231.917,155.617z"/>
		</g>
		<path fill="#E8423B" d="M227.841,198.191h2.221c3.047,0,3.363-0.253,3.363-3.297V157.03c0-3.044-0.316-3.3-3.363-3.3h-2.221v-0.57
			h16.178v0.698h-2.221c-3.045,0-3.426,0.253-3.426,3.297v37.739c0,3.044,0.381,3.297,3.426,3.297h2.221v0.569h-16.178V198.191z"/>
		<g>
			<path fill="#E8423B" d="M245.532,200.275h-16.48v-0.605h15.875v-0.268h0.605V200.275z M240.614,197.131
				c-1.143,0-1.295-1.011-1.295-2.001c0-0.159-0.01-0.33-0.018-0.515c-0.012-0.227-0.021-0.471-0.021-0.735v-35.515
				c0-3.161,0.453-3.599,3.729-3.599h1.918v-0.396h0.605v1.001h-2.523c-2.947,0-3.123,0.169-3.123,2.994v35.515
				c0,0.256,0.012,0.489,0.021,0.705c0.008,0.196,0.016,0.377,0.016,0.545c0,1.396,0.367,1.396,0.691,1.396V197.131z"/>
		</g>
	</g>
	<path fill="#E8423B" d="M386.659,162.116c0-5.441-2.619-8.31-7.484-8.31c-6.279,0-9.594,3.691-9.832,8.617l-0.189,3.931
		l-1.143,0.012l0.699-14.968h0.633l-0.189,3.36c-0.064,0.889-0.127,1.585-0.254,2.03l0.443,0.127
		c0.064-0.19,0.572-1.143,1.016-1.459c1.969-1.46,4.947-2.792,8.75-2.792c8.207,0,12.498,3.596,12.498,10.276v31.33
		c0,2.538,0.189,3.236,2.092,3.236c0.379,0,1.27-0.062,1.27-0.062l1.076-0.066l0.035,0.571c-3.08,0.316-5.076,0.82-6.883,1.396
		v-0.506c0-1.573-0.32-3.729-0.67-5.708c-0.285-1.617-0.51-3.128-0.537-4.124h-0.635c-1.9,7.607-6.088,10.273-10.652,10.273
		c-6.852,0-11.988-4.16-11.988-10.399c0-7.916,6.799-13.193,16.998-13.193h4.947V162.116z M382.028,176.832
		c-7.078,0-11.797,4.816-11.797,12.05c0,5.213,2.891,8.688,7.23,8.688c4.439,0,9.197-4.06,9.197-13.129v-7.608H382.028z"/>
	<g>
		<path fill="#E8423B" d="M376.409,200.863c-1.607,0-3.193-0.2-3.959-0.387l0.143-0.589c1.014,0.248,3.416,0.493,5.291,0.305
			c2.799-0.276,6.336-1.234,8.861-6.231l0.541,0.275c-2.66,5.259-6.391,6.267-9.344,6.56
			C377.446,200.843,376.927,200.863,376.409,200.863z M390.501,200.845l-0.186-0.577c1.621-0.516,3.551-1.037,6.654-1.377
			l-0.018-0.279l0.605-0.039l0.053,0.859l-0.289,0.029C394.101,199.795,392.138,200.322,390.501,200.845z M393.55,196.608
			c-0.182,0-0.346-0.052-0.484-0.153c-0.357-0.26-0.516-0.805-0.516-1.763c0-0.16-0.006-0.331-0.016-0.516
			c-0.008-0.226-0.02-0.47-0.02-0.734v-30.501c0-1.857-0.344-3.487-1.021-4.845l0.543-0.271c0.719,1.441,1.084,3.163,1.084,5.116
			v30.501c0,0.256,0.01,0.49,0.018,0.707c0.01,0.194,0.018,0.375,0.018,0.543c0,0.974,0.188,1.215,0.268,1.272
			c0.025,0.019,0.098,0.074,0.334,0l0.184,0.578C393.804,196.587,393.673,196.608,393.55,196.608z M371.864,193.579
			c-0.336-0.892-0.723-2.095-0.723-3.487c0-3.661,0.943-6.676,2.729-8.724c2.041-2.339,5.369-3.629,9.369-3.629h2.061v0.605h-2.061
			c-3.824,0-6.99,1.215-8.914,3.423c-1.662,1.906-2.578,4.861-2.578,8.324c0,1.294,0.365,2.43,0.684,3.272L371.864,193.579z
			 M369.224,167.881l-0.004-0.606l0.855-0.009l0.176-3.647c0.268-5.49,4.15-8.901,10.135-8.901c0.721,0,1.807,0.191,2.604,0.622
			l-0.285,0.534c-0.703-0.38-1.693-0.552-2.318-0.552c-5.715,0-9.275,3.114-9.529,8.327l-0.203,4.218L369.224,167.881z
			 M370.745,154.164l-0.604-0.034l0.109-1.947l0.605,0.034L370.745,154.164z"/>
	</g>
	<g>
		<path fill="#E8423B" d="M248.329,198.191h2.246c3.02,0,3.336-0.382,3.336-3.931v-37.166c0-3.045-0.291-3.362-3.336-3.362h-2.221
			v-0.572h14.525v0.572h-0.572c-3.045,0-3.449,0.317-3.449,3.362v14.269c2.283,0,3.539-0.137,4.137-0.889l10.031-12.621
			c0.785-0.989,1.131-1.781,1.131-2.395c0-1.205-1.328-1.727-3.287-1.727h-0.57v-0.572h14.016v0.572h-0.76
			c-2.816,0-6.66,1.015-9.322,4.375l-10.084,12.747l0.061,0.255c10.076,2.309,11.307,10.472,12.209,17.821
			c0.611,4.985,1.123,9.008,4.887,9.008c0.854,0,1.852-0.364,3.008-1.249l0.826-0.659l0.357,0.448l-0.803,0.636
			c-1.777,1.593-3.521,2.36-5.15,2.36c-6.109,0-7.227-6.025-8.359-12.445c-1.309-7.434-2.688-15.095-11.539-15.095h-0.787v22.326
			c0,3.549,0.404,3.931,3.449,3.931h2.221v0.569h-16.199V198.191z"/>
		<g>
			<path fill="#E8423B" d="M280.292,200.988c-1.416,0-2.484-0.084-3.438-0.5l0.242-0.556c0.857,0.376,1.859,0.45,3.195,0.45
				c1.848,0,3.77-0.811,5.412-2.283l1.08-0.985l-0.18-0.225l0.475-0.376l0.531,0.667l-1.5,1.368
				C284.353,200.124,282.288,200.988,280.292,200.988z M266.04,200.275h-16.498v-0.605h15.895v-0.268h0.604V200.275z
				 M261.063,197.471c-1.145,0-1.297-1.011-1.297-2v-22.65l1.109,0.08c1.25,0.089,2.391,0.325,3.395,0.702l-0.211,0.567
				c-0.949-0.355-2.035-0.58-3.227-0.666l-0.461-0.035v22.002c0,1.396,0.367,1.396,0.691,1.396V197.471z M279.835,196.665
				c-0.814-0.212-1.01-0.361-1.527-1.636c-0.473-1.47-0.709-2.642-0.98-4.85l-0.102-0.848c-0.4-3.335-0.9-7.486-2.146-10.269
				l0.555-0.246c1.281,2.864,1.787,7.066,2.195,10.442l0.1,0.847c0.268,2.163,0.498,3.312,0.947,4.716
				c0.439,1.082,0.5,1.099,1.061,1.243l-0.025,0.306L279.835,196.665z M266.468,171.152l-0.477-0.377l9.213-11.646
				c3.215-4.052,7.758-4.489,9.562-4.489h0.459v-0.271h0.604v0.877h-1.062c-1.717,0-6.039,0.413-9.084,4.259L266.468,171.152z
				 M260.372,170.657h-0.605v-12.353c0-3.185,0.49-3.664,3.752-3.664h0.27v-0.271h0.605v0.877h-0.875
				c-2.912,0-3.146,0.228-3.146,3.058V170.657z M273.54,155.675l-0.561-0.227c0.008-0.016,0.008-0.023,0.008-0.023
				c-0.051-0.065-0.42-0.178-0.904-0.178h-0.572v-0.606h0.572c0.33,0,1.131,0.045,1.412,0.463
				C273.606,155.271,273.624,155.474,273.54,155.675z"/>
		</g>
		<g>
			<path fill="#E8423B" d="M252.429,155.618c-0.145-0.274-0.627-0.371-0.994-0.371h-1.867v-0.606h1.867
				c0.352,0,1.201,0.068,1.531,0.698L252.429,155.618z"/>
		</g>
	</g>
	<g>
		<path fill="#E8423B" d="M324.12,198.191c-3.045,0.127-6.072,0.574-8.561,1.143v-0.509c0.189-1.269,0.254-2.473,0.254-3.614v-8.88
			h-0.57c-1.334,9.133-6.66,12.939-12.623,12.939c-6.215,0-10.717-3.362-10.717-9.578v-32.221c0-1.203-0.666-1.901-1.902-1.901
			h-2.98v-0.569h3.615c2.596,0,5.834-0.765,5.834-3.361v-0.257h0.508v5.394v32.346c0,5.897,2.537,9.005,6.215,9.005
			c6.811,0,11.352-6.47,11.352-16.173v-24.859c0-3.045-0.379-3.362-3.424-3.362h-1.078v-0.572l9.83-0.254v0.508
			c-0.191,1.142-0.252,2.22-0.252,3.362v37.484c0,3.044,0.377,3.36,3.422,3.36h1.078V198.191z"/>
		<g>
			<path fill="#E8423B" d="M316.839,200.839l-0.135-0.591c2.637-0.602,5.58-1.002,8.326-1.135v-0.28h0.604v0.859l-0.289,0.012
				C322.554,199.82,319.534,200.224,316.839,200.839z M302.62,200.783c-2.193,0-4.152-0.404-5.818-1.201l0.26-0.548
				c1.586,0.76,3.457,1.143,5.559,1.143c4.18,0,9.473-2.025,11.801-7.712l0.561,0.23
				C312.542,198.657,306.997,200.783,302.62,200.783z M298.438,193.413c-0.367-1.242-0.555-2.685-0.555-4.291v-36.527h0.607v36.527
				c0,1.548,0.178,2.932,0.529,4.119L298.438,193.413z"/>
		</g>
		<g>
			<path fill="#E8423B" d="M321.821,196.6c-1.143,0-1.297-1.014-1.297-2.002l0.002-36.609c0-1.302,0.08-2.354,0.26-3.413
				l-0.006-0.457h0.607v0.507c-0.18,1.075-0.254,2.098-0.254,3.363l-0.002,36.609c0,1.395,0.365,1.395,0.689,1.395V196.6z"/>
		</g>
		<g>
			<path fill="#E8423B" d="M290.187,157.497c-0.145-0.275-0.625-0.372-0.996-0.372h-0.959v-0.606h0.959
				c0.352,0,1.201,0.068,1.531,0.698L290.187,157.497z"/>
		</g>
		<g>
			<path fill="#E8423B" d="M312.903,155.618c-0.145-0.274-0.627-0.371-0.994-0.371h-0.656v-0.606h0.656
				c0.35,0,1.199,0.068,1.531,0.698L312.903,155.618z"/>
		</g>
	</g>
</g>
<g>
	<path fill="#E8423B" d="M167.587,220.232h0.291c0.926,0,1.072-0.272,1.127-1.289l0.49-10.483c0.008-0.145,0.018-0.272,0.018-0.382
		c0-0.411-0.127-0.582-0.908-0.582h-0.727v-0.162h2.67l4.707,10.41c0.162,0.362,0.271,0.671,0.271,0.78h0.09
		c0-0.109,0.127-0.509,0.254-0.78l4.705-10.41h2.727v0.162h-0.619c-0.881,0-1.016,0.27-1.016,0.801c0,0.143,0.01,0.307,0.018,0.49
		l0.416,10.156c0.037,1.033,0.164,1.289,1.162,1.289h0.4v0.162h-4.74v-0.162h0.652c1,0,1.119-0.265,1.119-0.698
		c0-0.099-0.006-0.204-0.01-0.319l-0.363-9.572c-0.018-0.329-0.018-0.602-0.018-0.801h-0.109c0,0.056-0.127,0.362-0.291,0.743
		l-4.887,10.885l-0.053,0.124h-0.037l-0.055-0.124l-4.814-10.685c-0.162-0.363-0.199-0.708-0.199-0.764h-0.072
		c0,0.166,0,0.292-0.02,0.621l-0.453,9.534c-0.008,0.156-0.02,0.294-0.02,0.412c0,0.44,0.148,0.644,1.146,0.644h0.652v0.162h-3.506
		V220.232z"/>
	<path fill="#E8423B" d="M186.315,220.232h0.637c0.873,0,0.963-0.092,0.963-0.963v-10.81c0-0.872-0.09-0.964-0.963-0.964h-0.637
		v-0.162h4.744c2.906,0,4.832,1.617,4.832,4.033c0,2.216-1.672,3.723-3.852,3.924l-0.365,0.02v0.108
		c0.854,0.089,1.619,0.622,2.018,1.254l0.908,1.434c0.467,0.737,1.199,1.854,1.779,1.854c0.168,0,0.342-0.052,0.52-0.204l0.4-0.345
		l0.1,0.13l-0.4,0.346c-0.58,0.499-1.072,0.699-1.5,0.699c-0.93,0-1.561-0.942-2.133-1.825l-1.271-1.963
		c-0.6-0.926-0.982-1.398-1.799-1.398h-0.219v-0.31h0.836c2.207,0,3.398-1.303,3.398-3.723c0-2.408-1.191-3.708-3.398-3.708h-1.889
		v0.019c0.217,0.22,0.309,0.528,0.309,0.943v10.648c0,0.871,0.107,0.963,0.982,0.963h1.051v0.162h-5.051V220.232z"/>
	<path fill="#E8423B" d="M202.468,207.334v0.162h-1.398v0.039c0.256,0.089,0.455,0.523,0.562,0.835l4.18,10.118
		c0.023,0.06,0.143,0.39,0.143,0.653h0.236c0-0.1,0.02-0.346,0.182-0.727l4.07-9.794c0.076-0.182,0.119-0.351,0.119-0.5
		c0-0.373-0.26-0.625-0.883-0.625h-1.562v-0.162h3.963v0.162h-0.221c-0.58,0-0.725,0.329-1.053,1.125l-4.797,11.865l-0.98,0.071
		l-4.814-11.937c-0.332-0.823-0.473-1.125-1.07-1.125h-0.273v-0.162H202.468z"/>
	<path fill="#E8423B" d="M211.806,220.232h0.291c0.453,0,0.725-0.51,0.996-1.125l5.102-11.773h1.404v0.218
		c0,0.364,0.072,0.834,0.162,1.054l4.287,10.502c0.363,0.869,0.471,1.125,1.07,1.125h0.146v0.162h-3.469v-0.162h1.398v-0.039
		c-0.236-0.089-0.436-0.542-0.564-0.853l-1.012-2.489h-7.195l-0.984,2.256c-0.061,0.146-0.094,0.284-0.094,0.413
		c0,0.421,0.33,0.712,0.875,0.712h0.889v0.162h-3.303V220.232z M221.485,216.525l-3.086-7.574c-0.129-0.291-0.146-0.528-0.146-0.729
		h-0.164c0,0.111-0.053,0.346-0.217,0.729l-3.307,7.574H221.485z"/>
</g>
<g>
	<g>
		<g>
			<path fill="#E8423B" d="M15.273,86.675c-0.144-0.276-0.627-0.373-0.996-0.373h-1.868v-0.606h1.868
				c0.351,0,1.202,0.068,1.533,0.698L15.273,86.675z"/>
		</g>
		<path fill="#E8423B" d="M10.162,129.332h1.015c3.235,0,3.742-0.953,3.932-4.503l1.712-36.596c0.028-0.507,0.06-0.949,0.06-1.332
			c0-1.436-0.436-2.03-3.166-2.03h-2.537v-0.569H20.5l16.425,36.341c0.572,1.268,0.953,2.346,0.953,2.727h0.316
			c0-0.381,0.445-1.777,0.889-2.727l16.426-36.341h9.514v0.569h-2.156c-3.078,0-3.551,0.94-3.551,2.788
			c0,0.504,0.035,1.077,0.062,1.716l1.459,35.454c0.125,3.614,0.57,4.503,4.059,4.503h1.396v0.57H49.737v-0.57h2.283
			c3.486,0,3.902-0.927,3.902-2.438c0-0.344-0.021-0.715-0.033-1.115l-1.27-33.424c-0.062-1.142-0.062-2.092-0.062-2.79h-0.379
			c0,0.189-0.445,1.268-1.018,2.6L36.1,130.156l-0.189,0.443h-0.127l-0.189-0.443L18.787,92.863
			c-0.569-1.269-0.696-2.474-0.696-2.664h-0.255c0,0.571,0,1.015-0.062,2.156l-1.586,33.297c-0.028,0.541-0.065,1.02-0.065,1.438
			c0,1.535,0.516,2.242,3.998,2.242h2.282v0.57h-12.24V129.332z"/>
		<g>
			<path fill="#E8423B" d="M37.399,131.93l-0.555-0.238l0.189-0.443l15.854-35.303l0.555,0.247L37.399,131.93z M67.805,131.417
				H50.948v-0.606H67.2v-0.267h0.605V131.417z M23.917,131.417H11.374v-0.606H23.31v-0.267h0.606V131.417z M18.341,128.285
				c-1.142,0-1.297-1.013-1.297-2.002l1.505-29.985l0.606,0.03l-1.505,29.969c0,1.383,0.367,1.383,0.69,1.383V128.285z
				 M63.049,127.998c-1.076,0-1.266-0.98-1.305-1.946l-1.48-35.94c-0.021-0.451-0.041-0.864-0.041-1.241
				c0-2.005,0.615-3.09,3.854-3.09h1.854v-0.268h0.607v0.872h-2.461c-3.029,0-3.248,0.938-3.248,2.485
				c0,0.368,0.02,0.771,0.041,1.213l0.021,0.49l1.459,35.453c0.057,1.392,0.42,1.386,0.748,1.366l0.023,0.605
				C63.098,127.998,63.071,127.998,63.049,127.998z M37.417,119.875L21.734,85.181l0.552-0.25l15.682,34.694L37.417,119.875z"/>
		</g>
	</g>
	<g>
		<path fill="#E8423B" d="M92.804,93.243c0-5.441-2.62-8.308-7.485-8.308c-6.279,0-9.594,3.69-9.832,8.614l-0.189,3.934l-1.141,0.01
			l0.697-14.969h0.633l-0.189,3.361c-0.062,0.889-0.127,1.586-0.254,2.029l0.443,0.129c0.064-0.191,0.572-1.143,1.016-1.461
			c1.969-1.457,4.947-2.789,8.752-2.789c8.206,0,12.497,3.596,12.497,10.273v31.331c0,2.539,0.191,3.236,2.091,3.236
			c0.381,0,1.27-0.064,1.27-0.064l1.078-0.062l0.031,0.569c-3.076,0.317-5.074,0.82-6.88,1.396v-0.506
			c0-1.573-0.32-3.729-0.668-5.709c-0.287-1.615-0.51-3.126-0.537-4.122h-0.635c-1.902,7.606-6.089,10.272-10.655,10.272
			c-6.852,0-11.988-4.16-11.988-10.4c0-7.914,6.799-13.191,16.998-13.191h4.948V93.243z M88.172,107.959
			c-7.076,0-11.797,4.818-11.797,12.049c0,5.213,2.893,8.689,7.23,8.689c4.439,0,9.198-4.061,9.198-13.129v-7.609H88.172z"/>
		<g>
			<path fill="#E8423B" d="M96.644,131.973l-0.184-0.578c1.619-0.515,3.546-1.039,6.654-1.377l-0.016-0.281l0.604-0.037l0.053,0.859
				l-0.291,0.029C100.239,130.922,98.281,131.451,96.644,131.973z M83.52,131.93c-1.271,0-2.539-0.109-3.697-0.321l0.109-0.597
				c1.281,0.234,2.701,0.342,4.117,0.306c4.102-0.1,7.14-2.186,9.03-6.2l0.551,0.258c-1.998,4.238-5.218,6.441-9.565,6.547
				C83.883,131.928,83.702,131.93,83.52,131.93z M99.694,127.736c-0.183,0-0.345-0.053-0.484-0.154
				c-0.355-0.259-0.514-0.801-0.514-1.762c0-0.16-0.01-0.332-0.016-0.518c-0.012-0.225-0.021-0.469-0.021-0.732V94.067
				c0-1.859-0.344-3.488-1.021-4.842l0.541-0.271c0.719,1.439,1.086,3.159,1.086,5.113v30.503c0,0.255,0.01,0.489,0.02,0.706
				c0.008,0.194,0.018,0.376,0.018,0.544c0,0.975,0.184,1.215,0.266,1.273c0.023,0.018,0.098,0.074,0.333-0.001l0.184,0.577
				C99.948,127.713,99.817,127.736,99.694,127.736z M78.01,124.705c-0.34-0.891-0.725-2.092-0.725-3.486
				c0-7.389,4.859-12.352,12.098-12.352h2.733v0.605h-2.733c-6.875,0-11.494,4.721-11.494,11.746c0,1.295,0.367,2.43,0.684,3.273
				L78.01,124.705z M75.37,99.007l-0.006-0.605l0.857-0.008l0.174-3.647c0.268-5.491,4.148-8.903,10.135-8.903
				c0.721,0,1.807,0.193,2.605,0.623l-0.289,0.533c-0.701-0.378-1.691-0.55-2.316-0.55c-5.715,0-9.275,3.112-9.529,8.327
				l-0.203,4.217L75.37,99.007z M76.891,85.292l-0.607-0.035l0.113-1.946l0.605,0.034L76.891,85.292z"/>
		</g>
	</g>
	<g>
		<g>
			<path fill="#E8423B" d="M152.63,86.758c-0.145-0.274-0.627-0.373-0.996-0.373h-1.867V85.78h1.867
				c0.352,0,1.203,0.067,1.533,0.697L152.63,86.758z"/>
		</g>
		<path fill="#E8423B" d="M148.556,129.332h2.221c3.043,0,3.361-0.255,3.361-3.299V88.169c0-3.043-0.318-3.298-3.361-3.298h-2.221
			v-0.569h16.174v0.697h-2.221c-3.043,0-3.426,0.253-3.426,3.297v37.737c0,3.044,0.383,3.299,3.426,3.299h2.221v0.57h-16.174
			V129.332z"/>
		<g>
			<path fill="#E8423B" d="M166.243,131.417h-16.477v-0.606h15.871v-0.267h0.605V131.417z M161.327,128.272
				c-1.145,0-1.299-1.011-1.299-2.001c0-0.158-0.008-0.33-0.014-0.517c-0.012-0.225-0.021-0.469-0.021-0.732V89.507
				c0-3.162,0.451-3.6,3.729-3.6h1.916v-0.395h0.605v1h-2.521c-2.949,0-3.123,0.168-3.123,2.994v35.516
				c0,0.255,0.01,0.489,0.02,0.705c0.008,0.195,0.018,0.376,0.018,0.544c0,1.396,0.367,1.396,0.691,1.396V128.272z"/>
		</g>
	</g>
	<g>
		<path fill="#E8423B" d="M175.513,105.93c0,15.169,6.98,23.339,17.824,23.339c8.512,0,15.201-3.671,18.893-9.833l0.914,0.695
			c-3.922,6.444-10.998,10.277-20,10.277c-13.32,0-23.275-9.386-23.275-23.465c0-13.89,9.359-23.149,23.402-23.149
			c11.037,0,20.297,7.686,20.297,19.216v0.318c0,1.016-0.891,1.84-1.967,1.84h-36.08
			C175.515,105.418,175.513,105.674,175.513,105.93z M207.415,103.582c0.316,0,0.504-0.191,0.504-0.572
			c0-10.845-5.959-18.074-14.902-18.074c-10.836,0-16.896,6.667-17.461,19.09L207.415,103.582z"/>
		<g>
			<path fill="#E8423B" d="M194.354,131.922c-3.096,0-7.566-0.527-10.578-1.707l0.221-0.562c2.939,1.15,7.32,1.665,10.357,1.665
				c8.752,0,15.764-3.599,19.74-10.132l0.52,0.315C210.522,128.221,203.327,131.922,194.354,131.922z M178.351,118.067
				c-1.223-3.263-1.93-6.1-1.93-10.927c0-0.259,0.002-0.514,0.008-0.77l0.006-0.295h35.166c1.479,0,2.875-1.098,2.875-2.256
				c0-2.939-0.471-5.397-1.439-7.517l0.551-0.252c1.006,2.199,1.494,4.741,1.494,7.769c0,1.497-1.658,2.861-3.48,2.861h-34.57
				c-0.002,0.15-0.004,0.305-0.004,0.459c0,4.736,0.693,7.516,1.891,10.715L178.351,118.067z M177.202,103.348l-0.602-0.057
				c1.086-11.252,6.916-17.448,16.416-17.448c1.584,0,3.107,0.227,4.525,0.668l-0.18,0.578c-1.361-0.425-2.822-0.64-4.346-0.64
				C183.87,86.449,178.255,92.45,177.202,103.348z"/>
		</g>
	</g>
	<g>
		<g>
			<path fill="#E8423B" d="M111.087,86.758c-0.145-0.274-0.627-0.373-0.998-0.373h-1.869V85.78h1.869
				c0.354,0,1.205,0.067,1.535,0.697L111.087,86.758z"/>
		</g>
		<path fill="#E8423B" d="M107.011,129.332h2.219c3.045,0,3.361-0.318,3.361-3.363V88.233c0-3.044-0.316-3.362-3.361-3.362h-2.219
			v-0.569h16.553c10.148,0,16.875,5.644,16.875,14.08c0,7.736-5.84,13.001-13.451,13.699l-1.266,0.062v0.381
			c2.98,0.316,5.645,2.174,7.039,4.377l3.172,5.01c1.627,2.576,4.188,6.469,6.211,6.469c0.588,0,1.191-0.175,1.814-0.704
			l1.395-1.207l0.35,0.454l-1.396,1.205c-2.021,1.74-3.738,2.439-5.234,2.439c-3.25,0-5.457-3.289-7.451-6.371l-4.439-6.852
			c-2.096-3.232-3.426-4.884-6.281-4.884h-0.758v-1.077h2.916c7.709,0,11.859-4.551,11.859-13.001c0-8.41-4.15-12.939-11.859-12.939
			h-6.6v0.064c0.764,0.76,1.08,1.839,1.08,3.297v37.165c0,3.045,0.383,3.363,3.428,3.363h3.678v0.57h-17.633V129.332z"/>
		<g>
			<path fill="#E8423B" d="M126.157,131.417H108.22v-0.606h17.33v-0.267h0.607V131.417z M119.782,128.781
				c-1.143,0-1.297-1.012-1.297-2c0-0.162-0.01-0.334-0.018-0.52c-0.01-0.225-0.021-0.468-0.021-0.732V90.015
				c0-1.11,0-2.631-0.479-3.074l-0.098-0.09v-0.437l0.303-0.063h6.096c1.01,0,2.432,0.108,3.461,0.624l-0.27,0.542
				c-0.721-0.361-1.855-0.561-3.191-0.561h-5.566c0.32,0.684,0.35,1.766,0.35,3.059v35.515c0,0.255,0.012,0.489,0.021,0.705
				c0.008,0.195,0.016,0.377,0.016,0.547c0,1.395,0.367,1.395,0.693,1.395V128.781z M131.13,113.089l-0.152-0.587
				c6.393-1.662,10.369-6.608,10.369-12.909c0-2.039,0-4.147-1.199-6.879l0.557-0.244c1.248,2.848,1.248,5.021,1.248,7.123
				C141.952,106.182,137.804,111.353,131.13,113.089z"/>
		</g>
		<g>
			<path fill="#E8423B" d="M139.44,132.081h-0.834c-3.486,0-5.822-3.61-7.703-6.512l-4.824-7.444c-1.832-2.85-2.67-4.151-5.18-4.151
				h-0.758v-0.605h0.758c2.84,0,3.852,1.573,5.689,4.431l4.822,7.441c1.799,2.778,4.039,6.235,7.195,6.235h0.834
				c1.986,0,3.91-0.825,5.881-2.521l1.395-1.204l0.395,0.459l-1.396,1.203C143.632,131.208,141.579,132.081,139.44,132.081z"/>
		</g>
	</g>
	<path fill="#E8423B" d="M16.501,139.381c1.217,0,2.403,0.373,3.326,1.164c0.09,0.09,0.161,0.236,0.199,0.361l0.125-0.035
		c-0.035-0.145-0.049-0.346-0.054-0.527l-0.035-1.32l0.163-0.004l0.164,5.248l-0.327,0.01l-0.056-1.68
		c-0.09-1.637-1.852-2.906-3.649-2.906c-2.977,0-4.578,2.109-4.578,6.029c0,4.345,1.671,6.688,4.775,6.688
		c1.727,0,3.408-0.954,4.038-2.482l0.304,0.119c-0.709,1.812-2.472,2.688-4.378,2.688c-3.814,0-6.357-2.688-6.357-6.722
		C10.162,142.033,12.698,139.381,16.501,139.381z"/>
	<path fill="#E8423B" d="M23.876,152.425h0.637c0.872,0,0.963-0.254,0.963-1.127v-10.481c0-0.871-0.091-1.125-0.963-1.125h-0.637
		v-0.164h4.471v0.164h-0.473c-0.873,0-0.982,0.254-0.982,1.125v4.74h4.978v-4.74c0-0.871-0.109-1.125-0.98-1.125h-0.471v-0.164
		h4.486v0.164h-0.656c-0.871,0-0.963,0.254-0.963,1.125v10.481c0,0.873,0.092,1.127,0.963,1.127h0.656v0.165h-4.486v-0.165h0.49
		c0.871,0,0.961-0.254,0.961-1.127v-5.412h-4.978v5.412c0,0.873,0.109,1.127,0.982,1.127h0.473v0.165h-4.471V152.425z"/>
	<path fill="#E8423B" d="M37.52,152.425h0.291c0.453,0,0.727-0.51,0.998-1.127l5.102-11.771h1.402v0.218
		c0,0.362,0.074,0.835,0.164,1.053l4.287,10.5c0.363,0.873,0.471,1.127,1.07,1.127h0.146v0.165h-3.469v-0.165h1.396v-0.037
		c-0.234-0.09-0.436-0.542-0.562-0.854l-1.014-2.488h-7.193l-0.984,2.252c-0.062,0.147-0.094,0.286-0.094,0.414
		c0,0.424,0.33,0.713,0.875,0.713h0.889v0.165H37.52V152.425z M47.2,148.72l-3.086-7.577c-0.127-0.291-0.145-0.527-0.145-0.726
		h-0.164c0,0.108-0.055,0.345-0.219,0.726l-3.305,7.577H47.2z"/>
	<path fill="#E8423B" d="M53.631,152.425h0.637c0.873,0,0.963-0.219,0.963-1.091v-10.699c0-0.871-0.09-0.943-0.963-0.943h-0.637
		v-0.164h4.635v0.164h-0.635c-0.875,0-0.982,0.072-0.982,0.943v10.663c0,0.4-0.182,0.727-0.4,0.944v0.019h2.453
		c1.742,0,2.904-0.346,3.053-2.089l0.145-1.816h0.363l-0.363,5.158l-0.184-0.017l0.074-1.072h-0.02
		c-0.127,0.127-0.197,0.165-0.49,0.165h-7.648V152.425z"/>
	<path fill="#E8423B" d="M65.405,146.049c0-4,2.695-6.668,6.74-6.668c4.021,0,6.703,2.668,6.703,6.668
		c0,4.01-2.682,6.685-6.703,6.685C68.1,152.733,65.405,150.059,65.405,146.049z M77.268,146.395c0-4.346-1.82-6.688-5.195-6.688
		c-3.307,0-5.088,2.105-5.088,6.014c0,4.345,1.824,6.688,5.215,6.688C75.495,152.408,77.268,150.302,77.268,146.395z"/>
	<path fill="#E8423B" d="M86.223,139.527v0.164h-0.801c-0.871,0-0.961,0.09-0.961,0.963v9.607c0,1.394,0.77,2.146,2.199,2.146
		c1.945,0,2.996-0.98,2.996-2.799v-8.629c0-0.873-0.164-1.289-1.035-1.289H87.95v-0.164h3.542v0.164h-0.471
		c-0.874,0-1.036,0.416-1.036,1.289v8.629c0,2.029-1.164,3.124-3.324,3.124c-2.172,0-3.617-1.251-3.617-3.124v-8.955
		c0-0.873-0.107-0.963-0.98-0.963H81.59v-0.164H86.223z"/>
	<path fill="#E8423B" d="M94.308,152.425h0.637c0.871,0,0.963-0.09,0.963-0.964v-10.807c0-0.873-0.092-0.963-0.963-0.963h-0.637
		v-0.164h4.578c2.736,0,4.558,1.598,4.558,3.995c0,2.387-1.822,3.979-4.558,3.979h-1.562v3.959c0,0.874,0.109,0.964,0.982,0.964
		h0.453v0.165h-4.451V152.425z M97.015,139.963c0.219,0.29,0.309,0.71,0.309,1.126v6.087h1.018c2.291,0,3.523-1.277,3.523-3.653
		c0-2.372-1.232-3.649-3.523-3.649h-1.326V139.963z"/>
	<path fill="#E8423B" d="M106.771,148.121l0.037,0.746c0.105,2.148,1.559,3.541,3.277,3.541c1.631,0,2.717-1.067,2.717-2.654
		c0-1.573-1.338-2.501-2.762-3.354c-1.572-0.944-3.215-1.959-3.215-4.075c0-1.766,1.432-2.943,3.58-2.943
		c1.09,0,1.85,0.383,2.414,0.8c0.129,0.093,0.273,0.364,0.289,0.419l0.129-0.038c-0.035-0.126-0.055-0.327-0.072-0.579l-0.057-0.963
		h0.186l0.199,4.285l-0.328,0.015l-0.035-0.761c-0.074-1.438-0.928-2.852-2.725-2.852c-1.479,0-2.309,0.776-2.309,2.217
		c0,1.502,1.318,2.297,2.732,3.143c1.611,0.971,3.336,2.117,3.336,4.396c0,1.961-1.621,3.266-4.051,3.266
		c-1.117,0-1.939-0.331-2.871-0.977c-0.127-0.09-0.398-0.435-0.455-0.598l-0.072,0.016c0.037,0.183,0.062,0.563,0.072,0.784
		l0.057,1.135l-0.164,0.01l-0.236-4.96L106.771,148.121z"/>
	<path fill="#E8423B" d="M117.106,152.425h0.643c0.865,0,0.955-0.109,0.955-1.127v-10.644c0-0.873-0.082-0.963-0.955-0.963h-0.633
		v-0.164h4.158v0.164h-0.162c-0.871,0-0.988,0.09-0.988,0.963v4.086c0.654,0,1.014-0.039,1.186-0.254l2.871-3.615
		c0.227-0.284,0.324-0.51,0.324-0.686c0-0.346-0.381-0.494-0.941-0.494h-0.164v-0.164h4.016v0.164h-0.219
		c-0.805,0-1.906,0.291-2.67,1.254l-2.889,3.648l0.018,0.074c2.889,0.662,3.24,3,3.498,5.104c0.174,1.429,0.322,2.58,1.398,2.58
		c0.246,0,0.531-0.104,0.863-0.358l0.236-0.188l0.102,0.128l-0.229,0.182c-0.51,0.457-1.01,0.677-1.477,0.677
		c-1.75,0-2.068-1.728-2.393-3.565c-0.375-2.128-0.77-4.323-3.305-4.323h-0.227v6.394c0,1.018,0.117,1.127,0.988,1.127h0.635v0.165
		h-4.641V152.425z"/>
	<path fill="#E8423B" d="M129.753,152.425h0.289c0.455,0,0.727-0.51,0.998-1.127l5.104-11.771h1.4v0.218
		c0,0.362,0.074,0.835,0.164,1.053l4.289,10.5c0.363,0.873,0.473,1.127,1.072,1.127h0.146v0.165h-3.471v-0.165h1.398v-0.037
		c-0.234-0.09-0.434-0.542-0.562-0.854l-1.014-2.488h-7.195l-0.984,2.252c-0.064,0.147-0.094,0.286-0.094,0.414
		c0,0.424,0.328,0.713,0.873,0.713h0.891v0.165h-3.305V152.425z M139.433,148.72l-3.088-7.577c-0.127-0.291-0.145-0.527-0.145-0.726
		h-0.164c0,0.108-0.055,0.345-0.217,0.726l-3.307,7.577H139.433z M135.673,138.689l2.145-2.523c0.055-0.073,0.117-0.09,0.182-0.09
		c0.061,0,0.109,0.017,0.182,0.071l0.219,0.183l-0.438,0.543l-2.125,1.964L135.673,138.689z"/>
</g>
</svg>
