<?xml version="1.0" encoding="utf-8"?>
<!-- Generator: Adobe Illustrator 15.1.0, SVG Export Plug-In . SVG Version: 6.00 Build 0)  -->
<!DOCTYPE svg PUBLIC "-//W3C//DTD SVG 1.1//EN" "http://www.w3.org/Graphics/SVG/1.1/DTD/svg11.dtd">
<svg version="1.1" id="Vrstva_1" xmlns="http://www.w3.org/2000/svg" xmlns:xlink="http://www.w3.org/1999/xlink" x="0px" y="0px"
	 width="342.99px" height="144.974px" viewBox="0 0 342.99 144.974" enable-background="new 0 0 342.99 144.974"
	 xml:space="preserve">
<g>
	<path d="M87.122,18.242c0.344,0,0.652,0.035,0.942,0.145c0.308,0.109,0.544,0.398,0.544,0.762c0,0.435-0.363,0.814-0.798,0.814
		c-0.435,0-0.815-0.379-0.815-0.814c0-0.164,0.054-0.309,0.127-0.418v-0.018c-1.831,0-3.063,2.031-3.063,5.076V25.8
		c0,0.634,0.344,0.96,0.979,0.96h0.635v0.326h-4.496v-0.326h0.635c0.635,0,0.96-0.326,0.96-0.96V20c0-0.869-0.09-0.96-0.96-0.96
		h-0.327v-0.326l2.665-0.236v0.146c-0.037,0.361-0.09,0.797-0.09,1.123v0.689c0,0.29-0.018,0.471-0.09,0.58v0.036h0.09
		C84.602,19.42,85.617,18.242,87.122,18.242z"/>
	<path d="M97.386,25.8c0,0.725,0.054,0.924,0.598,0.924c0.109,0,0.218-0.018,0.363-0.018l0.308-0.018l0.018,0.327l-2.375,0.236
		v-0.146c0-0.814-0.126-1.088-0.146-1.72h-0.072c-0.562,1.213-1.559,2.029-2.864,2.029c-1.649,0-2.755-0.906-2.755-2.249
		c0-1.703,1.813-3.062,4.514-3.062c0.344,0,0.816,0.035,1.124,0.09v-0.906c0-1.576-0.689-2.41-1.994-2.41
		c-1.251,0-1.813,0.416-2.194,1.467v0.146h-0.308v-1.287c0.743-0.599,1.577-0.798,2.483-0.798c2.14,0,3.299,1.053,3.299,3.046V25.8z
		 M96.099,22.99v-0.361c-0.272-0.055-0.726-0.109-1.033-0.109c-2.067,0-3.19,0.943-3.19,2.646c0,1.143,0.471,1.758,1.341,1.758
		C94.957,26.923,96.099,25.347,96.099,22.99z"/>
	<path d="M106.165,13.891h-0.326v-0.326l2.664-0.072v0.127c-0.036,0.363-0.091,0.652-0.091,0.978V25.8
		c0,0.725,0.073,0.924,0.616,0.924c0.11,0,0.2-0.018,0.345-0.018l0.308-0.018l0.036,0.327l-2.375,0.236v-0.146
		c0-0.814-0.108-1.268-0.126-1.902h-0.091c-0.58,1.414-1.594,2.121-2.917,2.121c-2.193,0-3.679-1.777-3.679-4.423
		s1.486-4.423,3.679-4.423c1.323,0,2.338,0.707,2.917,2.121h0.109v-0.055c-0.072-0.108-0.109-0.271-0.109-0.561v-5.13
		C107.125,13.983,107.035,13.891,106.165,13.891z M104.406,18.967c-1.577,0-2.428,1.377-2.428,3.933s0.852,3.951,2.428,3.951
		c1.649,0,2.718-1.594,2.718-3.951S106.056,18.967,104.406,18.967z"/>
	<path d="M115.45,18.404c2.32,0,3.861,1.795,3.861,4.496s-1.541,4.514-3.861,4.514c-2.32,0-3.878-1.813-3.878-4.514
		S113.13,18.404,115.45,18.404z M115.378,18.876c-1.559,0-2.393,1.195-2.393,3.389c0,3.027,0.888,4.658,2.52,4.658
		c1.559,0,2.393-1.178,2.393-3.372C117.897,20.525,117.009,18.876,115.378,18.876z"/>
	<path d="M124.718,27.414c-0.906,0-1.994-0.398-2.556-0.816c-0.126-0.09-0.199-0.217-0.253-0.362l-0.073,0.036
		c0.055,0.126,0.109,0.326,0.109,0.507l0.037,0.617l-0.326,0.019l-0.163-2.828h0.489c0.036,1.232,1.378,2.338,2.737,2.338
		c1.396,0,2.157-0.526,2.157-1.521c0-1.813-4.894-2.412-4.894-5.003c0-1.196,1.087-1.994,2.737-1.994
		c0.871,0,1.541,0.219,1.994,0.562c0.181,0.145,0.254,0.326,0.271,0.38h0.055c-0.019-0.145-0.055-0.343-0.055-0.525l-0.036-0.417
		l0.326-0.018l0.146,2.556l-0.471,0.035l-0.019-0.271c-0.09-0.961-0.87-1.831-2.211-1.831c-1.088,0-1.685,0.398-1.685,1.123
		c0,2.012,5.056,2.629,5.056,5.166C128.089,26.507,126.749,27.414,124.718,27.414z"/>
	<path d="M132.699,25.31c0,1.052,0.47,1.613,1.304,1.613c1.16,0,1.922-0.688,1.922-1.758h0.49c0,1.342-0.961,2.249-2.412,2.249
		c-1.541,0-2.591-1.034-2.591-2.574v-5.637h-1.595v-0.49h1.124c0.634,0,0.833-0.326,0.96-0.961l0.326-1.613l0.472-0.309v2.303
		c0,0.38-0.091,0.49-0.236,0.562v0.018h3.952v0.49h-3.716V25.31z"/>
	<path d="M141.095,18.641v0.145c-0.037,0.363-0.09,0.635-0.09,0.96V25.8c0,0.871,0.108,0.96,0.979,0.96h0.635v0.326h-4.496v-0.326
		h0.635c0.87,0,0.96-0.09,0.96-0.96V20c0-0.869-0.09-0.96-0.96-0.96h-0.327v-0.326L141.095,18.641z M141.893,14.78
		c0.072,0.055,0.091,0.109,0.091,0.181c0,0.055-0.036,0.09-0.072,0.145l-0.218,0.271l-1.939,1.523l-0.254-0.217l1.758-2.121
		c0.055-0.055,0.109-0.091,0.181-0.091c0.055,0,0.109,0.037,0.163,0.072L141.893,14.78z"/>
	<path d="M153.173,14.055v0.327h-1.396v0.035c0.254,0.091,0.453,0.363,0.562,0.671l3.39,9.916c0.126,0.344,0.145,0.56,0.145,0.633
		v0.019h0.145v-0.019c0-0.053,0.019-0.271,0.182-0.688l3.353-9.607c0.072-0.218,0.127-0.398,0.127-0.544
		c0-0.307-0.235-0.416-0.889-0.416h-0.707v-0.327h3.227v0.327h-0.218c-0.653,0-0.779,0.144-1.051,0.96l-4.061,11.835l-0.834,0.074
		l-4.078-11.909c-0.29-0.834-0.417-0.96-1.07-0.96h-0.271v-0.327H153.173z"/>
	<path d="M169.929,25.8c0,0.725,0.054,0.924,0.598,0.924c0.108,0,0.218-0.018,0.362-0.018l0.309-0.018l0.018,0.327l-2.374,0.236
		v-0.146c0-0.814-0.126-1.088-0.146-1.72h-0.072c-0.562,1.213-1.559,2.029-2.864,2.029c-1.649,0-2.754-0.906-2.754-2.249
		c0-1.703,1.812-3.062,4.513-3.062c0.344,0,0.816,0.035,1.124,0.09v-0.906c0-1.576-0.689-2.41-1.994-2.41
		c-1.251,0-1.813,0.416-2.194,1.467v0.146h-0.308v-1.287c0.743-0.599,1.577-0.798,2.483-0.798c2.139,0,3.299,1.053,3.299,3.046V25.8
		z M168.642,22.99v-0.361c-0.272-0.055-0.726-0.109-1.033-0.109c-2.067,0-3.19,0.943-3.19,2.646c0,1.143,0.471,1.758,1.34,1.758
		C167.5,26.923,168.642,25.347,168.642,22.99z M168.152,14.707c0.073,0.055,0.091,0.109,0.091,0.182c0,0.055-0.036,0.09-0.072,0.145
		l-0.218,0.271l-1.939,1.523l-0.254-0.218l1.759-2.119c0.054-0.055,0.108-0.091,0.181-0.091c0.055,0,0.109,0.037,0.163,0.072
		L168.152,14.707z"/>
	<path d="M172.763,26.761h0.635c0.869,0,0.96-0.09,0.96-0.96V20c0-0.869-0.091-0.96-0.96-0.96h-0.327v-0.326l2.665-0.145v0.127
		c-0.037,0.361-0.092,0.725-0.092,1.05v0.291c0,0.29-0.018,0.453-0.09,0.561v0.055h0.09c0.543-1.415,1.576-2.248,2.919-2.248
		c1.231,0,1.993,0.49,2.303,1.578c0.019,0.09,0.036,0.235,0.036,0.381c0,0.145,0,0.272-0.018,0.362l-0.019,0.054h0.089l0.02-0.054
		c0.036-0.145,0.126-0.381,0.199-0.543c0.562-1.125,1.522-1.777,2.7-1.777c1.559,0,2.393,0.833,2.393,2.412V25.8
		c0,0.871,0.109,0.96,0.979,0.96h0.473v0.326h-3.952v-0.326h1.378v-0.037c-0.127-0.127-0.164-0.18-0.164-0.471v-5.111
		c0-1.469-0.435-2.266-1.268-2.266c-1.649,0-2.757,1.667-2.757,4.187V25.8c0,0.871,0.109,0.96,0.979,0.96h0.472v0.326h-3.789v-0.326
		h1.216v-0.037c-0.127-0.127-0.165-0.18-0.165-0.471v-5.111c0-1.469-0.434-2.266-1.268-2.266c-1.648,0-2.756,1.667-2.756,4.187V25.8
		c0,0.871,0.109,0.96,0.979,0.96h0.636v0.326h-4.496V26.761z"/>
	<path d="M199.185,18.404c2.32,0,3.86,1.795,3.86,4.496s-1.54,4.514-3.86,4.514s-3.879-1.813-3.879-4.514
		S196.864,18.404,199.185,18.404z M199.11,18.876c-1.558,0-2.391,1.195-2.391,3.389c0,3.027,0.887,4.658,2.518,4.658
		c1.559,0,2.395-1.178,2.395-3.372C201.632,20.525,200.743,18.876,199.11,18.876z"/>
	<path d="M205.079,26.761c0.199,0,0.346-0.291,1.068-1.25l3.791-5.112c0.397-0.525,0.652-0.961,0.905-1.141v-0.055h-2.718
		c-1.742,0-2.357,0.145-2.447,1.939l-0.311-0.019l0.164-3.063l0.309,0.018l-0.035,0.799c0.126-0.127,0.18-0.164,0.469-0.164h6.364
		v0.326c-0.2,0-0.418,0.308-1.124,1.251l-3.771,5.129c-0.417,0.562-0.762,0.943-1.015,1.125v0.053h3.335
		c1.703,0,2.32-0.145,2.41-1.813v-0.126l0.326,0.019l-0.162,3.063l-0.327-0.018l0.036-0.798h-0.019
		c-0.127,0.127-0.18,0.164-0.47,0.164h-6.78V26.761z"/>
	<path d="M214.673,26.761h0.634c0.871,0,0.963-0.09,0.963-0.96V20c0-0.869-0.092-0.96-0.963-0.96h-0.324v-0.326l2.662-0.145v0.127
		c-0.035,0.361-0.088,0.725-0.088,1.05v0.471c0,0.291-0.039,0.418-0.092,0.562v0.055h0.092c0.543-1.451,1.721-2.429,3.227-2.429
		c1.774,0,2.735,0.961,2.735,2.738V25.8c0,0.871,0.091,0.96,0.959,0.96h0.491v0.326h-3.951v-0.326h1.377v-0.037
		c-0.127-0.127-0.162-0.18-0.162-0.471v-4.803c0-1.687-0.543-2.574-1.596-2.574c-1.831,0-3.08,1.758-3.08,4.259V25.8
		c0,0.871,0.107,0.96,0.977,0.96h0.635v0.326h-4.495V26.761z"/>
	<path d="M233.749,25.8c0,0.725,0.054,0.924,0.598,0.924c0.108,0,0.218-0.018,0.362-0.018l0.308-0.018l0.018,0.327l-2.373,0.236
		v-0.146c0-0.814-0.127-1.088-0.145-1.72h-0.074c-0.561,1.213-1.559,2.029-2.863,2.029c-1.65,0-2.754-0.906-2.754-2.249
		c0-1.703,1.812-3.062,4.513-3.062c0.343,0,0.814,0.035,1.124,0.09v-0.906c0-1.576-0.689-2.41-1.994-2.41
		c-1.252,0-1.812,0.416-2.193,1.467v0.146h-0.309v-1.287c0.742-0.599,1.578-0.798,2.484-0.798c2.138,0,3.299,1.053,3.299,3.046V25.8
		z M232.462,22.99v-0.361c-0.272-0.055-0.725-0.109-1.033-0.109c-2.068,0-3.19,0.943-3.19,2.646c0,1.143,0.47,1.758,1.341,1.758
		C231.319,26.923,232.462,25.347,232.462,22.99z"/>
	<path d="M236.581,26.761h0.634c0.871,0,0.963-0.09,0.963-0.96V20c0-0.869-0.092-0.96-0.963-0.96h-0.324v-0.326l2.662-0.145v0.127
		c-0.035,0.361-0.088,0.725-0.088,1.05v0.291c0,0.29-0.019,0.453-0.092,0.561v0.055h0.092c0.543-1.415,1.576-2.248,2.917-2.248
		c1.233,0,1.995,0.49,2.302,1.578c0.018,0.09,0.037,0.235,0.037,0.381c0,0.145,0,0.272-0.02,0.362l-0.018,0.054h0.091l0.018-0.054
		c0.037-0.145,0.127-0.381,0.2-0.543c0.562-1.125,1.521-1.777,2.7-1.777c1.559,0,2.394,0.833,2.394,2.412V25.8
		c0,0.871,0.109,0.96,0.979,0.96h0.47v0.326h-3.949v-0.326h1.374v-0.037c-0.126-0.127-0.162-0.18-0.162-0.471v-5.111
		c0-1.469-0.433-2.266-1.269-2.266c-1.648,0-2.755,1.667-2.755,4.187V25.8c0,0.871,0.109,0.96,0.979,0.96h0.471v0.326h-3.788v-0.326
		h1.214v-0.037c-0.127-0.127-0.162-0.18-0.162-0.471v-5.111c0-1.469-0.436-2.266-1.27-2.266c-1.65,0-2.754,1.667-2.754,4.187V25.8
		c0,0.871,0.108,0.96,0.977,0.96h0.635v0.326h-4.495V26.761z"/>
	<path d="M260.245,27.251v-0.146c0.035-0.361,0.073-0.707,0.073-1.033v-0.471c0-0.291,0.036-0.471,0.107-0.58v-0.037h-0.107
		c-0.545,1.451-1.724,2.43-3.228,2.43c-1.776,0-2.72-0.961-2.72-2.737V20c0-0.869-0.107-0.96-0.977-0.96h-0.31v-0.326l2.647-0.072
		v0.145c-0.037,0.363-0.074,0.635-0.074,0.96v4.605c0,1.686,0.545,2.573,1.598,2.573c1.83,0,3.062-1.758,3.062-4.259V20
		c0-0.869-0.091-0.96-0.962-0.96h-0.326v-0.326l2.665-0.072v0.145c-0.036,0.363-0.092,0.635-0.092,0.96V25.8
		c0,0.871,0.109,0.96,0.979,0.96h0.308v0.326L260.245,27.251z"/>
	<path d="M262.843,31.292l0.146-0.508c0.889,0.254,1.087,0.326,1.448,0.326c1.034,0,1.598-0.797,1.598-1.939V20
		c0-0.869-0.092-0.96-0.963-0.96h-0.325v-0.326l2.663-0.072v0.145c-0.035,0.363-0.089,0.635-0.089,0.96v8.792
		c0,1.831-1.216,3.063-3.028,3.063C263.657,31.601,263.098,31.364,262.843,31.292z M267.501,15.432c0,0.471-0.29,0.816-0.797,0.816
		c-0.472,0-0.815-0.309-0.815-0.816c0-0.471,0.308-0.797,0.815-0.797C267.175,14.635,267.501,14.924,267.501,15.432z"/>
	<path d="M277.401,22.574h-5.874c0.055,2.828,1.051,4.35,2.92,4.35c1.304,0,2.228-0.725,2.845-2.029l0.435,0.181
		c-0.688,1.522-1.758,2.338-3.389,2.338c-2.502,0-4.188-1.813-4.188-4.514s1.648-4.496,4.113-4.496c1.777,0,3.463,1.269,3.463,3.535
		v0.326C277.727,22.464,277.6,22.574,277.401,22.574z M276.204,22.103c0.091,0,0.146-0.055,0.146-0.164
		c0-1.994-0.816-3.063-2.34-3.063c-1.432,0-2.409,1.287-2.482,3.227H276.204z"/>
	<path d="M279.599,26.761h0.635c0.87,0,0.961-0.09,0.961-0.96V20c0-0.869-0.091-0.96-0.961-0.96h-0.326v-0.326l2.664-0.145v0.127
		c-0.036,0.361-0.09,0.725-0.09,1.05v0.291c0,0.29-0.018,0.453-0.092,0.561v0.055h0.092c0.543-1.415,1.576-2.248,2.918-2.248
		c1.232,0,1.994,0.49,2.303,1.578c0.018,0.09,0.036,0.235,0.036,0.381c0,0.145,0,0.272-0.019,0.362l-0.018,0.054h0.09l0.018-0.054
		c0.036-0.145,0.127-0.381,0.201-0.543c0.561-1.125,1.521-1.777,2.7-1.777c1.559,0,2.391,0.833,2.391,2.412V25.8
		c0,0.871,0.109,0.96,0.98,0.96h0.471v0.326h-3.951v-0.326h1.377v-0.037c-0.127-0.127-0.163-0.18-0.163-0.471v-5.111
		c0-1.469-0.435-2.266-1.269-2.266c-1.648,0-2.755,1.667-2.755,4.187V25.8c0,0.871,0.109,0.96,0.98,0.96h0.468v0.326h-3.786v-0.326
		h1.214v-0.037c-0.126-0.127-0.163-0.18-0.163-0.471v-5.111c0-1.469-0.435-2.266-1.27-2.266c-1.648,0-2.754,1.667-2.754,4.187V25.8
		c0,0.871,0.109,0.96,0.979,0.96h0.635v0.326h-4.496V26.761z"/>
	<path d="M303.66,22.574h-5.872c0.055,2.828,1.052,4.35,2.918,4.35c1.305,0,2.23-0.725,2.846-2.029l0.437,0.181
		c-0.69,1.522-1.76,2.338-3.39,2.338c-2.503,0-4.188-1.813-4.188-4.514s1.649-4.496,4.114-4.496c1.777,0,3.463,1.269,3.463,3.535
		v0.326C303.988,22.464,303.861,22.574,303.66,22.574z M302.466,22.103c0.089,0,0.145-0.055,0.145-0.164
		c0-1.994-0.814-3.063-2.338-3.063c-1.433,0-2.412,1.287-2.484,3.227H302.466z"/>
	<path d="M306.622,28.718v-0.326c0.489,0,0.851-0.525,0.924-0.906c0.018-0.144,0.073-0.254,0.108-0.326l-0.055-0.035
		c-0.054,0.072-0.163,0.127-0.29,0.127c-0.525,0-0.815-0.273-0.815-0.799c0-0.525,0.29-0.816,0.815-0.816
		c0.489,0,0.798,0.328,0.798,0.816C308.107,27.812,307.511,28.718,306.622,28.718z"/>
	<path d="M81.339,47.92c0.199,0,0.345-0.291,1.069-1.25l3.788-5.112c0.399-0.526,0.653-0.961,0.907-1.142v-0.054h-2.719
		c-1.74,0-2.356,0.145-2.447,1.939l-0.308-0.02l0.163-3.062l0.308,0.018l-0.036,0.798c0.127-0.126,0.181-0.164,0.471-0.164h6.363
		v0.326c-0.2,0-0.417,0.309-1.124,1.252l-3.771,5.128c-0.417,0.562-0.761,0.943-1.015,1.125v0.053h3.335
		c1.704,0,2.32-0.145,2.411-1.812v-0.127l0.327,0.019l-0.163,3.062l-0.327-0.018l0.037-0.799h-0.019
		c-0.126,0.127-0.181,0.164-0.47,0.164h-6.78V47.92z M84.766,37.95l-1.849-1.812l0.436-0.508l0.688,0.779
		c0.507,0.562,0.888,0.889,0.942,1.16h0.09c0.055-0.271,0.417-0.598,0.925-1.16l0.688-0.779l0.453,0.508l-1.849,1.812H84.766z"/>
	<path d="M98.492,43.732h-5.873c0.054,2.828,1.051,4.35,2.918,4.35c1.306,0,2.229-0.725,2.846-2.029l0.436,0.182
		c-0.689,1.521-1.758,2.338-3.389,2.338c-2.501,0-4.187-1.812-4.187-4.514c0-2.701,1.649-4.495,4.114-4.495
		c1.776,0,3.462,1.27,3.462,3.535v0.326C98.818,43.624,98.691,43.732,98.492,43.732z M97.296,43.261c0.09,0,0.145-0.055,0.145-0.164
		c0-1.994-0.815-3.063-2.337-3.063c-1.433,0-2.411,1.288-2.484,3.227H97.296z"/>
	<path d="M112.058,36.174c0.87,0,0.961-0.054,1.069-0.87h0.326l-0.126,1.994h-4.495c-1.088,0-1.106,0.037-1.179,1.033l-0.163,2.248
		c0.689-0.453,1.45-0.707,2.302-0.707c2.501,0,4.187,1.813,4.187,4.514c0,2.501-1.686,4.187-4.187,4.187
		c-0.96-0.018-2.212-0.453-3.063-1.359v-1.867h0.308v0.29c0.253,1.269,1.052,2.447,2.755,2.447c1.831,0,2.828-1.287,2.828-3.697
		c0-2.609-0.997-4.023-2.828-4.023c-0.924,0-1.758,0.326-2.483,0.961l-0.345-0.074l0.272-4.459c0.019-0.398,0.054-0.616,0.073-0.616
		H112.058z"/>
	<path d="M118.099,47.611c0,0.471-0.29,0.798-0.797,0.798c-0.471,0-0.816-0.291-0.816-0.798c0-0.471,0.308-0.816,0.816-0.816
		C117.772,46.795,118.099,47.104,118.099,47.611z"/>
	<path d="M126.188,47.92c0.199,0,0.345-0.291,1.069-1.25l3.789-5.112c0.398-0.526,0.652-0.961,0.906-1.142v-0.054h-2.719
		c-1.74,0-2.356,0.145-2.447,1.939l-0.309-0.02l0.163-3.062l0.309,0.018l-0.036,0.798c0.126-0.126,0.181-0.164,0.471-0.164h6.362
		v0.326c-0.199,0-0.417,0.309-1.124,1.252l-3.77,5.128c-0.417,0.562-0.762,0.943-1.016,1.125v0.053h3.336
		c1.704,0,2.32-0.145,2.411-1.812v-0.127l0.326,0.019l-0.163,3.062l-0.326-0.018l0.036-0.799h-0.019
		c-0.127,0.127-0.181,0.164-0.471,0.164h-6.779V47.92z"/>
	<path d="M143.015,46.958c0,0.725,0.054,0.924,0.598,0.924c0.11,0,0.218-0.018,0.363-0.018l0.308-0.018l0.019,0.326l-2.375,0.236
		v-0.146c0-0.814-0.126-1.087-0.145-1.721h-0.073c-0.562,1.213-1.559,2.029-2.864,2.029c-1.649,0-2.755-0.906-2.755-2.248
		c0-1.703,1.812-3.063,4.514-3.063c0.344,0,0.815,0.036,1.124,0.09v-0.906c0-1.577-0.689-2.411-1.994-2.411
		c-1.251,0-1.812,0.417-2.193,1.467v0.146h-0.309v-1.287c0.743-0.6,1.577-0.798,2.483-0.798c2.139,0,3.299,1.052,3.299,3.046V46.958
		z M141.729,44.148v-0.361c-0.272-0.055-0.726-0.11-1.034-0.11c-2.067,0-3.19,0.944-3.19,2.647c0,1.142,0.471,1.757,1.341,1.757
		C140.586,48.082,141.729,46.505,141.729,44.148z M141.238,35.866c0.073,0.055,0.09,0.109,0.09,0.182
		c0,0.054-0.036,0.09-0.072,0.145l-0.217,0.271l-1.939,1.523l-0.254-0.218l1.759-2.12c0.054-0.055,0.108-0.092,0.181-0.092
		c0.055,0,0.109,0.037,0.163,0.072L141.238,35.866z"/>
	<path d="M151.793,39.4c0.344,0,0.652,0.035,0.942,0.145c0.308,0.109,0.544,0.398,0.544,0.761c0,0.436-0.362,0.815-0.797,0.815
		c-0.436,0-0.816-0.379-0.816-0.815c0-0.164,0.054-0.308,0.127-0.417v-0.018c-1.831,0-3.063,2.031-3.063,5.076v2.012
		c0,0.635,0.344,0.961,0.979,0.961h0.635v0.326h-4.496V47.92h0.634c0.635,0,0.961-0.327,0.961-0.961v-5.8
		c0-0.87-0.091-0.961-0.961-0.961h-0.326v-0.326l2.664-0.236v0.146c-0.036,0.362-0.09,0.797-0.09,1.123v0.689
		c0,0.289-0.019,0.471-0.091,0.58v0.035h0.091C149.273,40.578,150.288,39.4,151.793,39.4z M149.6,37.95l-1.849-1.812l0.436-0.508
		l0.688,0.779c0.508,0.562,0.889,0.889,0.942,1.16h0.091c0.055-0.271,0.417-0.598,0.924-1.16l0.688-0.779l0.454,0.508l-1.849,1.812
		H149.6z"/>
	<path d="M157.797,39.799v0.145c-0.036,0.363-0.09,0.634-0.09,0.96v6.054c0,0.871,0.109,0.961,0.979,0.961h0.635v0.326h-4.496V47.92
		h0.635c0.87,0,0.961-0.09,0.961-0.961v-5.8c0-0.87-0.091-0.961-0.961-0.961h-0.326v-0.326L157.797,39.799z M158.595,35.938
		c0.072,0.055,0.09,0.109,0.09,0.182c0,0.054-0.036,0.09-0.072,0.145l-0.218,0.272l-1.939,1.523l-0.253-0.217l1.757-2.121
		c0.055-0.054,0.109-0.091,0.182-0.091c0.055,0,0.108,0.037,0.163,0.073L158.595,35.938z"/>
	<path d="M167.266,38.911v-2.737h0.309v0.635c0.67-0.6,1.686-0.961,2.627-0.961c2.139,0,3.552,1.322,3.552,3.281
		c0,1.123-0.923,2.881-2.229,4.205l-3.045,3.244c-0.146,0.164-0.562,0.418-0.635,0.436l0.055,0.126
		c0.127-0.018,0.725-0.018,1.015-0.018h3.879c0.888,0,0.959-0.054,1.069-0.87h0.325l-0.127,1.994h-7.159v-1.033
		c0.163-0.018,0.652-0.126,1.449-1.178l2.447-3.209c0.888-1.105,1.667-2.718,1.667-3.915c0-1.668-0.797-2.574-2.266-2.574
		c-1.541,0-2.446,1.16-2.627,2.375v0.199H167.266z"/>
	<path d="M180.322,35.848c2.5,0,4.187,2.555,4.187,6.361c0,3.807-1.687,6.363-4.187,6.363c-2.502,0-4.188-2.556-4.188-6.363
		C176.134,38.403,177.82,35.848,180.322,35.848z M180.248,36.336c-1.794,0-2.754,1.849-2.754,5.239c0,4.223,0.998,6.506,2.882,6.506
		c1.794,0,2.774-1.83,2.774-5.22C183.15,38.639,182.135,36.336,180.248,36.336z"/>
	<path d="M187.776,38.059l-0.071-0.018c-0.074,0.108-0.219,0.307-0.438,0.542l-0.506,0.526l-0.344-0.326
		c0.705-0.814,1.467-1.776,2.193-2.936h0.416v10.947c0,1.015,0.092,1.125,0.961,1.125h0.326v0.326h-4.023V47.92h0.471
		c0.869,0,0.979-0.11,0.979-1.125V39.11C187.74,38.694,187.74,38.313,187.776,38.059z"/>
	<path d="M197.496,36.174c0.869,0,0.959-0.054,1.068-0.87h0.326l-0.127,1.994h-4.494c-1.089,0-1.106,0.037-1.179,1.033l-0.164,2.248
		c0.69-0.453,1.45-0.707,2.302-0.707c2.502,0,4.188,1.813,4.188,4.514c0,2.501-1.687,4.187-4.188,4.187
		c-0.959-0.018-2.21-0.453-3.062-1.359v-1.867h0.308v0.29c0.254,1.269,1.052,2.447,2.754,2.447c1.832,0,2.828-1.287,2.828-3.697
		c0-2.609-0.996-4.023-2.828-4.023c-0.923,0-1.757,0.326-2.482,0.961l-0.345-0.074l0.271-4.459c0.02-0.398,0.056-0.616,0.073-0.616
		H197.496z"/>
	<path d="M210.082,39.871v0.326h-1.287v0.037c0.255,0.09,0.436,0.381,0.563,0.688l2.121,5.402c0.144,0.345,0.18,0.597,0.18,0.671
		v0.035h0.164v-0.035c0-0.055,0.054-0.326,0.234-0.762l1.995-5.075c0.072-0.217,0.145-0.381,0.145-0.526
		c0-0.308-0.254-0.436-0.906-0.436h-0.67v-0.326h3.244v0.326h-0.236c-0.652,0-0.744,0.164-1.051,0.961l-2.828,7.177l-0.744,0.073
		l-2.862-7.25c-0.347-0.87-0.399-0.961-1.052-0.961h-0.235v-0.326H210.082z"/>
	<path d="M224.464,38.059l-0.07-0.018c-0.074,0.108-0.22,0.307-0.438,0.542l-0.506,0.526l-0.345-0.326
		c0.706-0.814,1.468-1.776,2.194-2.936h0.415v10.947c0,1.015,0.092,1.125,0.961,1.125h0.327v0.326h-4.023V47.92h0.471
		c0.869,0,0.979-0.11,0.979-1.125V39.11C224.429,38.694,224.429,38.313,224.464,38.059z"/>
	<path d="M230.032,38.059l-0.072-0.018c-0.072,0.108-0.218,0.307-0.434,0.542l-0.509,0.526l-0.345-0.326
		c0.706-0.814,1.47-1.776,2.193-2.936h0.417v10.947c0,1.015,0.09,1.125,0.961,1.125h0.325v0.326h-4.023V47.92h0.472
		c0.87,0,0.978-0.11,0.978-1.125V39.11C229.995,38.694,229.995,38.313,230.032,38.059z"/>
	<path d="M239.846,47.92h0.635c0.869,0,0.959-0.09,0.959-0.961V36.01c0-0.869-0.09-0.961-0.959-0.961h-0.328v-0.326l2.666-0.162
		v0.145c-0.038,0.363-0.092,0.725-0.092,1.051v5.618c0,0.291-0.018,0.453-0.09,0.562v0.055h0.09
		c0.562-1.469,1.722-2.429,3.227-2.429c1.777,0,2.737,0.96,2.737,2.738v4.658c0,0.871,0.09,0.961,0.961,0.961h0.489v0.326h-3.951
		V47.92h1.379v-0.037c-0.128-0.127-0.165-0.18-0.165-0.471v-4.802c0-1.687-0.544-2.575-1.595-2.575c-1.831,0-3.082,1.704-3.082,4.26
		v2.664c0,0.871,0.109,0.961,0.98,0.961h0.635v0.326h-4.496V47.92z"/>
	<path d="M255.873,39.563c2.32,0,3.861,1.794,3.861,4.495c0,2.702-1.541,4.514-3.861,4.514c-2.319,0-3.878-1.812-3.878-4.514
		C251.995,41.357,253.554,39.563,255.873,39.563z M255.803,40.035c-1.56,0-2.395,1.196-2.395,3.389c0,3.027,0.889,4.658,2.521,4.658
		c1.559,0,2.391-1.178,2.391-3.371C258.32,41.684,257.432,40.035,255.803,40.035z"/>
	<path d="M267.553,35.049h-0.326v-0.326l2.664-0.072v0.127c-0.037,0.363-0.09,0.652-0.09,0.979v11.202
		c0,0.725,0.072,0.924,0.617,0.924c0.106,0,0.197-0.018,0.342-0.018l0.311-0.018l0.035,0.326l-2.375,0.236v-0.146
		c0-0.814-0.107-1.268-0.127-1.902h-0.09c-0.582,1.414-1.596,2.121-2.92,2.121c-2.192,0-3.677-1.777-3.677-4.424
		c0-2.646,1.484-4.423,3.677-4.423c1.324,0,2.338,0.707,2.92,2.121h0.109v-0.054c-0.074-0.108-0.109-0.272-0.109-0.561v-5.13
		C268.514,35.141,268.423,35.049,267.553,35.049z M265.795,40.125c-1.578,0-2.43,1.377-2.43,3.933c0,2.557,0.852,3.952,2.43,3.952
		c1.648,0,2.719-1.594,2.719-3.952C268.514,41.702,267.443,40.125,265.795,40.125z"/>
	<path d="M275.624,39.799v0.145c-0.035,0.363-0.09,0.634-0.09,0.96v6.054c0,0.871,0.107,0.961,0.979,0.961h0.635v0.326h-4.495V47.92
		h0.634c0.871,0,0.962-0.09,0.962-0.961v-5.8c0-0.87-0.091-0.961-0.962-0.961h-0.326v-0.326L275.624,39.799z M275.716,36.59
		c0,0.471-0.291,0.816-0.798,0.816c-0.471,0-0.817-0.308-0.817-0.816c0-0.471,0.312-0.797,0.817-0.797
		C275.389,35.793,275.716,36.083,275.716,36.59z"/>
	<path d="M278.691,47.92h0.635c0.871,0,0.96-0.09,0.96-0.961v-5.8c0-0.87-0.089-0.961-0.96-0.961H279v-0.326l2.664-0.145v0.127
		c-0.035,0.361-0.09,0.725-0.09,1.051v0.471c0,0.291-0.038,0.418-0.091,0.562v0.055h0.091c0.543-1.451,1.722-2.429,3.227-2.429
		c1.775,0,2.736,0.96,2.736,2.738v4.658c0,0.871,0.09,0.961,0.96,0.961h0.49v0.326h-3.952V47.92h1.378v-0.037
		c-0.127-0.127-0.162-0.18-0.162-0.471v-4.802c0-1.687-0.545-2.575-1.598-2.575c-1.829,0-3.079,1.758-3.079,4.26v2.664
		c0,0.871,0.107,0.961,0.979,0.961h0.634v0.326h-4.495V47.92z"/>
	<path d="M84.239,61.03v0.327h-1.287v0.036c0.254,0.09,0.436,0.381,0.563,0.688l2.12,5.402c0.146,0.346,0.182,0.598,0.182,0.671
		v0.036h0.163v-0.036c0-0.055,0.054-0.326,0.235-0.761l1.993-5.076c0.074-0.217,0.146-0.381,0.146-0.526
		c0-0.308-0.254-0.435-0.906-0.435h-0.671V61.03h3.245v0.327h-0.236c-0.652,0-0.744,0.164-1.051,0.96l-2.828,7.178l-0.743,0.073
		L82.3,62.317c-0.345-0.869-0.398-0.96-1.052-0.96h-0.235V61.03H84.239z"/>
	<path d="M101.632,69.73c-2.502,0-4.188-1.794-4.188-4.458c0-2.738,1.613-4.551,3.987-4.551c0.762,0,1.523,0.2,2.193,0.653
		c0.146,0.109,0.2,0.253,0.254,0.435l0.073-0.018c-0.036-0.126-0.09-0.199-0.09-0.452l-0.037-0.78l0.326-0.019l0.145,2.9
		l-0.471,0.019l-0.018-0.055c-0.2-1.577-1.178-2.21-2.375-2.21c-1.703,0-2.61,1.359-2.61,3.841c0,2.738,1.015,4.206,2.919,4.206
		c1.196,0,2.048-0.616,2.665-1.704l0.454,0.199C104.168,69.041,103.135,69.73,101.632,69.73z"/>
	<path d="M106.565,69.078h0.635c0.87,0,0.961-0.09,0.961-0.961V57.169c0-0.87-0.091-0.96-0.961-0.96h-0.326v-0.326l2.664-0.163
		v0.145c-0.036,0.362-0.089,0.724-0.089,1.05v5.619c0,0.291-0.019,0.453-0.091,0.562v0.055h0.091c0.562-1.469,1.722-2.43,3.226-2.43
		c1.776,0,2.737,0.961,2.737,2.738v4.658c0,0.871,0.09,0.961,0.96,0.961h0.49v0.326h-3.952v-0.326h1.377v-0.037
		c-0.126-0.126-0.163-0.18-0.163-0.471v-4.803c0-1.687-0.544-2.574-1.596-2.574c-1.831,0-3.081,1.703-3.081,4.259v2.664
		c0,0.871,0.108,0.961,0.978,0.961h0.635v0.326h-4.496V69.078z"/>
	<path d="M124.354,60.559c0.344,0,0.652,0.036,0.942,0.145c0.308,0.109,0.544,0.398,0.544,0.762c0,0.436-0.363,0.814-0.797,0.814
		c-0.435,0-0.816-0.379-0.816-0.814c0-0.164,0.054-0.309,0.127-0.417V61.03c-1.831,0-3.063,2.031-3.063,5.076v2.012
		c0,0.635,0.344,0.961,0.979,0.961h0.635v0.326h-4.496v-0.326h0.635c0.634,0,0.961-0.326,0.961-0.961v-5.8
		c0-0.869-0.091-0.96-0.961-0.96h-0.326V61.03l2.664-0.236v0.146c-0.036,0.362-0.09,0.798-0.09,1.124v0.689
		c0,0.289-0.019,0.471-0.091,0.58v0.036h0.091C121.833,61.737,122.849,60.559,124.354,60.559z"/>
	<path d="M134.618,68.117c0,0.725,0.054,0.924,0.597,0.924c0.109,0,0.218-0.018,0.363-0.018l0.309-0.018l0.018,0.326l-2.374,0.236
		v-0.146c0-0.814-0.127-1.087-0.145-1.721h-0.072c-0.562,1.214-1.559,2.029-2.864,2.029c-1.649,0-2.755-0.906-2.755-2.248
		c0-1.703,1.812-3.062,4.513-3.062c0.344,0,0.815,0.035,1.124,0.09v-0.906c0-1.576-0.689-2.41-1.994-2.41
		c-1.25,0-1.813,0.416-2.193,1.467v0.146h-0.309V61.52c0.743-0.599,1.577-0.799,2.483-0.799c2.139,0,3.299,1.052,3.299,3.046V68.117
		z M133.331,65.307v-0.362c-0.272-0.054-0.725-0.109-1.033-0.109c-2.067,0-3.19,0.943-3.19,2.646c0,1.143,0.471,1.758,1.341,1.758
		C132.188,69.241,133.331,67.665,133.331,65.307z M132.841,57.024c0.073,0.054,0.091,0.109,0.091,0.182
		c0,0.055-0.037,0.09-0.073,0.145l-0.218,0.271l-1.939,1.523l-0.254-0.218l1.758-2.119c0.054-0.055,0.109-0.092,0.181-0.092
		c0.054,0,0.109,0.037,0.163,0.073L132.841,57.024z"/>
	<path d="M137.451,69.078h0.635c0.87,0,0.96-0.09,0.96-0.961v-5.8c0-0.869-0.091-0.96-0.96-0.96h-0.327V61.03l2.665-0.145v0.127
		c-0.037,0.362-0.09,0.725-0.09,1.051v0.291c0,0.289-0.018,0.453-0.09,0.561v0.055h0.09c0.543-1.415,1.576-2.249,2.918-2.249
		c1.232,0,1.994,0.49,2.303,1.578c0.018,0.09,0.036,0.235,0.036,0.381c0,0.145,0,0.271-0.018,0.361l-0.018,0.055h0.09l0.018-0.055
		c0.036-0.145,0.127-0.381,0.199-0.543c0.562-1.125,1.522-1.777,2.701-1.777c1.559,0,2.393,0.834,2.393,2.412v4.984
		c0,0.871,0.109,0.961,0.979,0.961h0.471v0.326h-3.951v-0.326h1.377v-0.037c-0.127-0.126-0.163-0.18-0.163-0.471v-5.111
		c0-1.468-0.435-2.265-1.269-2.265c-1.649,0-2.755,1.666-2.755,4.187v2.736c0,0.871,0.109,0.961,0.979,0.961h0.471v0.326h-3.788
		v-0.326h1.215v-0.037c-0.126-0.126-0.164-0.18-0.164-0.471v-5.111c0-1.468-0.435-2.265-1.269-2.265
		c-1.649,0-2.754,1.666-2.754,4.187v2.736c0,0.871,0.108,0.961,0.978,0.961h0.635v0.326h-4.496V69.078z"/>
	<path d="M161.114,69.568v-0.146c0.036-0.361,0.073-0.707,0.073-1.033v-0.471c0-0.291,0.037-0.471,0.109-0.58v-0.037h-0.109
		c-0.544,1.451-1.722,2.429-3.227,2.429c-1.776,0-2.718-0.96-2.718-2.736v-4.677c0-0.869-0.108-0.96-0.979-0.96h-0.308V61.03
		l2.646-0.072v0.144c-0.037,0.363-0.072,0.635-0.072,0.961v4.605c0,1.686,0.543,2.573,1.595,2.573c1.83,0,3.063-1.758,3.063-4.26
		v-2.664c0-0.869-0.091-0.96-0.96-0.96H159.9V61.03l2.664-0.072v0.144c-0.036,0.363-0.091,0.635-0.091,0.961v6.054
		c0,0.871,0.109,0.961,0.979,0.961h0.308v0.326L161.114,69.568z"/>
	<path d="M174.572,69.73c-0.906,0-1.993-0.398-2.556-0.815c-0.126-0.09-0.199-0.217-0.253-0.362l-0.073,0.036
		c0.055,0.127,0.109,0.327,0.109,0.508l0.036,0.617l-0.326,0.018l-0.163-2.827h0.489c0.037,1.232,1.379,2.338,2.737,2.338
		c1.396,0,2.158-0.526,2.158-1.522c0-1.812-4.895-2.411-4.895-5.003c0-1.195,1.088-1.994,2.737-1.994
		c0.871,0,1.541,0.218,1.995,0.562c0.181,0.145,0.254,0.326,0.272,0.381h0.053c-0.018-0.145-0.053-0.344-0.053-0.525l-0.037-0.418
		l0.326-0.018l0.145,2.557l-0.471,0.035l-0.02-0.272c-0.089-0.96-0.869-1.83-2.211-1.83c-1.086,0-1.686,0.398-1.686,1.123
		c0,2.012,5.057,2.628,5.057,5.166C177.943,68.824,176.603,69.73,174.572,69.73z"/>
	<path d="M182.733,61.03v0.327h-1.286v0.036c0.254,0.09,0.435,0.381,0.562,0.688l2.121,5.402c0.144,0.346,0.179,0.598,0.179,0.671
		v0.036h0.165v-0.036c0-0.055,0.055-0.326,0.234-0.761l1.995-5.076c0.072-0.217,0.145-0.381,0.145-0.526
		c0-0.308-0.254-0.435-0.906-0.435h-0.67V61.03h3.244v0.327h-0.236c-0.652,0-0.744,0.164-1.051,0.96l-2.828,7.178l-0.743,0.073
		l-2.863-7.251c-0.346-0.869-0.398-0.96-1.051-0.96h-0.236V61.03H182.733z"/>
	<path d="M192.147,68.77c0,0.471-0.289,0.798-0.797,0.798c-0.473,0-0.816-0.291-0.816-0.798c0-0.471,0.309-0.816,0.816-0.816
		C191.821,67.953,192.147,68.262,192.147,68.77z"/>
	<path d="M202.81,56.734v-0.036h-1.776v-0.326h4.514v0.326h-0.652c-0.635,0-0.961,0.327-0.961,0.961v9.009
		c0,1.83-1.232,3.062-3.046,3.062c-0.398,0-0.742-0.09-1.033-0.181l0.127-0.526c0.563,0.164,0.779,0.217,1.071,0.217
		c1.033,0,1.594-0.779,1.594-1.921V57.206C202.646,56.915,202.683,56.86,202.81,56.734z"/>
	<path d="M210.064,60.958v0.144c-0.037,0.363-0.091,0.635-0.091,0.961v6.054c0,0.871,0.108,0.961,0.979,0.961h0.635v0.326h-4.496
		v-0.326h0.635c0.87,0,0.959-0.09,0.959-0.961v-5.8c0-0.869-0.089-0.96-0.959-0.96h-0.327V61.03L210.064,60.958z M210.155,57.749
		c0,0.471-0.291,0.816-0.799,0.816c-0.469,0-0.815-0.309-0.815-0.816c0-0.471,0.309-0.797,0.815-0.797
		C209.829,56.952,210.155,57.241,210.155,57.749z"/>
	<path d="M213.132,69.078h0.635c0.634,0,0.959-0.326,0.959-0.961V57.169c0-0.87-0.09-0.96-0.959-0.96h-0.327v-0.326l2.665-0.073
		v0.127c-0.037,0.363-0.093,0.652-0.093,0.979v11.202c0,0.635,0.347,0.961,0.981,0.961h0.634v0.326h-4.495V69.078z"/>
	<path d="M217.575,73.609l0.145-0.508c0.89,0.254,1.088,0.326,1.452,0.326c1.032,0,1.594-0.797,1.594-1.939v-9.171
		c0-0.869-0.091-0.96-0.96-0.96h-0.328V61.03l2.666-0.072v0.144c-0.036,0.363-0.092,0.635-0.092,0.961v8.792
		c0,1.83-1.214,3.062-3.025,3.062C218.393,73.917,217.828,73.681,217.575,73.609z M222.233,57.749c0,0.471-0.291,0.816-0.798,0.816
		c-0.47,0-0.815-0.309-0.815-0.816c0-0.471,0.309-0.797,0.815-0.797C221.907,56.952,222.233,57.241,222.233,57.749z"/>
	<path d="M227.548,60.958v0.144c-0.036,0.363-0.091,0.635-0.091,0.961v6.054c0,0.871,0.109,0.961,0.979,0.961h0.635v0.326h-4.496
		v-0.326h0.635c0.87,0,0.959-0.09,0.959-0.961v-5.8c0-0.869-0.089-0.96-0.959-0.96h-0.327V61.03L227.548,60.958z M228.346,57.096
		c0.072,0.055,0.091,0.11,0.091,0.182c0,0.055-0.036,0.09-0.073,0.145l-0.218,0.271l-1.938,1.523L225.953,59l1.757-2.121
		c0.056-0.055,0.109-0.092,0.183-0.092c0.055,0,0.107,0.037,0.164,0.072L228.346,57.096z"/>
	<path d="M239.408,61.03v0.327h-1.286v0.036c0.254,0.09,0.434,0.381,0.562,0.688l2.122,5.402c0.144,0.346,0.18,0.598,0.18,0.671
		v0.036h0.161v-0.036c0-0.055,0.057-0.326,0.237-0.761l1.993-5.076c0.072-0.217,0.146-0.381,0.146-0.526
		c0-0.308-0.254-0.435-0.906-0.435h-0.671V61.03h3.245v0.327h-0.236c-0.652,0-0.744,0.164-1.051,0.96l-2.828,7.178l-0.744,0.073
		l-2.862-7.251c-0.347-0.869-0.399-0.96-1.053-0.96h-0.234V61.03H239.408z"/>
	<path d="M252.306,69.078h0.635c0.868,0,0.959-0.09,0.959-0.961V57.659c0-0.871-0.091-0.961-0.959-0.961h-0.635v-0.326h4.332v0.326
		h-0.471c-0.871,0-0.98,0.09-0.98,0.961v4.658h5.8v-4.658c0-0.871-0.09-0.961-0.959-0.961h-0.49v-0.326h4.352v0.326h-0.654
		c-0.869,0-0.961,0.09-0.961,0.961v10.458c0,0.871,0.092,0.961,0.961,0.961h0.654v0.326h-4.352v-0.326h0.49
		c0.869,0,0.959-0.09,0.959-0.961v-5.31h-5.8v5.31c0,0.871,0.109,0.961,0.98,0.961h0.471v0.326h-4.332V69.078z"/>
	<path d="M272.594,69.568v-0.146c0.038-0.361,0.073-0.707,0.073-1.033v-0.471c0-0.291,0.037-0.471,0.108-0.58v-0.037h-0.108
		c-0.544,1.451-1.721,2.429-3.227,2.429c-1.777,0-2.719-0.96-2.719-2.736v-4.677c0-0.869-0.109-0.96-0.979-0.96h-0.308V61.03
		l2.646-0.072v0.144c-0.036,0.363-0.071,0.635-0.071,0.961v4.605c0,1.686,0.542,2.573,1.594,2.573c1.831,0,3.063-1.758,3.063-4.26
		v-2.664c0-0.869-0.091-0.96-0.959-0.96h-0.328V61.03l2.666-0.072v0.144c-0.038,0.363-0.092,0.635-0.092,0.961v6.054
		c0,0.871,0.109,0.961,0.98,0.961h0.306v0.326L272.594,69.568z"/>
	<path d="M280.32,69.73c-0.906,0-1.992-0.398-2.557-0.815c-0.124-0.09-0.197-0.217-0.252-0.362l-0.071,0.036
		c0.053,0.127,0.108,0.327,0.108,0.508l0.035,0.617l-0.326,0.018l-0.164-2.827h0.49c0.036,1.232,1.38,2.338,2.736,2.338
		c1.396,0,2.158-0.526,2.158-1.522c0-1.812-4.895-2.411-4.895-5.003c0-1.195,1.089-1.994,2.736-1.994
		c0.871,0,1.541,0.218,1.995,0.562c0.181,0.145,0.255,0.326,0.272,0.381h0.053c-0.018-0.145-0.053-0.344-0.053-0.525l-0.037-0.418
		l0.326-0.018l0.146,2.557l-0.472,0.035l-0.02-0.272c-0.088-0.96-0.869-1.83-2.211-1.83c-1.086,0-1.686,0.398-1.686,1.123
		c0,2.012,5.057,2.628,5.057,5.166C283.691,68.824,282.352,69.73,280.32,69.73z"/>
	<path d="M289.606,60.721c2.32,0,3.861,1.795,3.861,4.496c0,2.701-1.541,4.513-3.861,4.513c-2.319,0-3.878-1.812-3.878-4.513
		C285.729,62.516,287.287,60.721,289.606,60.721z M289.534,61.194c-1.559,0-2.393,1.195-2.393,3.388
		c0,3.028,0.888,4.659,2.519,4.659c1.56,0,2.394-1.178,2.394-3.372C292.054,62.842,291.165,61.194,289.534,61.194z"/>
	<path d="M298.403,61.03v0.327h-1.286v0.036c0.254,0.09,0.434,0.381,0.56,0.688l2.122,5.402c0.146,0.346,0.181,0.598,0.181,0.671
		v0.036h0.162v-0.036c0-0.055,0.057-0.326,0.237-0.761l1.993-5.076c0.072-0.217,0.146-0.381,0.146-0.526
		c0-0.308-0.255-0.435-0.906-0.435h-0.671V61.03h3.245v0.327h-0.236c-0.652,0-0.744,0.164-1.052,0.96l-2.827,7.178l-0.744,0.073
		l-2.862-7.251c-0.347-0.869-0.399-0.96-1.053-0.96h-0.235V61.03H298.403z"/>
	<path d="M313.128,64.891h-5.875c0.057,2.827,1.052,4.35,2.919,4.35c1.306,0,2.229-0.725,2.847-2.029l0.436,0.181
		c-0.69,1.522-1.759,2.337-3.391,2.337c-2.5,0-4.186-1.812-4.186-4.513c0-2.701,1.647-4.496,4.112-4.496
		c1.776,0,3.464,1.27,3.464,3.535v0.326C313.454,64.782,313.326,64.891,313.128,64.891z M311.932,64.42
		c0.088,0,0.145-0.055,0.145-0.165c0-1.994-0.815-3.062-2.338-3.062c-1.434,0-2.411,1.287-2.485,3.227H311.932z M309.646,59.108
		l-1.849-1.812l0.436-0.508l0.688,0.779c0.508,0.562,0.889,0.889,0.942,1.16h0.091c0.057-0.271,0.418-0.597,0.925-1.16l0.69-0.779
		l0.45,0.508l-1.848,1.812H309.646z"/>
	<path d="M321.363,66.014c0-1.903,1.215-3.407,3.011-3.643v-0.018c-1.179-0.218-2.176-1.306-2.176-2.646
		c0-1.613,1.177-2.701,3.191-2.701c2.009,0,3.206,1.088,3.206,2.701c0,1.34-1.014,2.428-2.192,2.646v0.018
		c1.795,0.236,3.01,1.74,3.01,3.643c0,2.23-1.523,3.716-4.023,3.716C322.886,69.73,321.363,68.244,321.363,66.014z M325.39,69.241
		c1.812,0,2.662-1.142,2.662-3.227c0-2.482-1.068-3.371-2.662-3.371c-1.199,0-2.648,0.453-2.648,3.371
		C322.741,68.099,323.558,69.241,325.39,69.241z M327.473,59.743c0-1.469-0.634-2.249-2.083-2.249c-1.451,0-2.068,0.78-2.068,2.249
		c0,1.503,0.833,2.429,2.068,2.429C326.619,62.172,327.473,61.247,327.473,59.743z"/>
	<path d="M81.176,90.237h0.635c0.87,0,0.96-0.091,0.96-0.962v-5.799c0-0.87-0.09-0.961-0.96-0.961h-0.327v-0.326l2.665-0.146v0.128
		c-0.037,0.361-0.09,0.724-0.09,1.05v0.471c0,0.291-0.037,0.418-0.09,0.563v0.054h0.09c0.543-1.451,1.722-2.429,3.227-2.429
		c1.776,0,2.737,0.96,2.737,2.737v4.657c0,0.871,0.09,0.962,0.96,0.962h0.49v0.326h-3.952v-0.326h1.378V90.2
		c-0.127-0.128-0.164-0.181-0.164-0.472v-4.802c0-1.688-0.544-2.574-1.595-2.574c-1.831,0-3.081,1.758-3.081,4.26v2.663
		c0,0.871,0.108,0.962,0.979,0.962h0.635v0.326h-4.496V90.237z"/>
	<path d="M100.251,89.275c0,0.726,0.054,0.925,0.598,0.925c0.108,0,0.218-0.018,0.362-0.018l0.309-0.019l0.018,0.326l-2.374,0.237
		v-0.146c0-0.814-0.127-1.088-0.146-1.721h-0.072c-0.562,1.212-1.559,2.029-2.864,2.029c-1.65,0-2.755-0.906-2.755-2.248
		c0-1.703,1.813-3.063,4.514-3.063c0.344,0,0.815,0.037,1.124,0.091v-0.906c0-1.576-0.689-2.41-1.994-2.41
		c-1.25,0-1.812,0.416-2.193,1.468v0.146h-0.308v-1.287c0.743-0.599,1.577-0.798,2.483-0.798c2.139,0,3.299,1.052,3.299,3.046
		V89.275z M98.964,86.465v-0.361c-0.272-0.055-0.725-0.109-1.033-0.109c-2.067,0-3.19,0.943-3.19,2.646
		c0,1.143,0.471,1.759,1.341,1.759C97.822,90.4,98.964,88.822,98.964,86.465z"/>
	<path d="M109.485,89.566l-0.054,0.018c0.018,0.145,0.072,0.345,0.072,0.526l0.037,0.762l-0.326,0.018l-0.181-3.861l0.471-0.018
		v0.146c0.109,1.849,2.121,3.244,3.97,3.244c2.139,0,3.354-0.87,3.354-2.501c0-2.755-7.051-4.207-7.051-7.849
		c0-1.85,1.396-2.846,3.861-2.846c1.087,0,2.175,0.381,2.737,0.797c0.127,0.092,0.236,0.326,0.254,0.381l0.054-0.037
		c-0.037-0.127-0.054-0.289-0.072-0.543l-0.037-0.58l0.308-0.018l0.182,3.371l-0.453,0.018l-0.019-0.218
		c-0.09-1.431-1.161-2.683-2.955-2.683c-1.722,0-2.646,0.671-2.646,1.977c0,2.646,7.16,4.077,7.16,7.957
		c0,2.12-1.649,3.263-4.677,3.263c-1.25,0-2.973-0.489-3.679-0.979C109.667,89.819,109.503,89.621,109.485,89.566z"/>
	<path d="M122.905,88.786c0,1.053,0.471,1.614,1.305,1.614c1.16,0,1.921-0.689,1.921-1.759h0.489c0,1.342-0.961,2.248-2.411,2.248
		c-1.542,0-2.592-1.033-2.592-2.574v-5.637h-1.595v-0.489h1.124c0.634,0,0.834-0.326,0.96-0.962l0.327-1.612l0.471-0.309v2.302
		c0,0.381-0.091,0.49-0.236,0.563v0.018h3.952v0.489h-3.716V88.786z"/>
	<path d="M135.562,89.275c0,0.726,0.054,0.925,0.598,0.925c0.109,0,0.218-0.018,0.362-0.018l0.309-0.019l0.018,0.326l-2.375,0.237
		v-0.146c0-0.814-0.126-1.088-0.146-1.721h-0.072c-0.562,1.212-1.559,2.029-2.864,2.029c-1.649,0-2.754-0.906-2.754-2.248
		c0-1.703,1.812-3.063,4.513-3.063c0.344,0,0.816,0.037,1.124,0.091v-0.906c0-1.576-0.689-2.41-1.994-2.41
		c-1.251,0-1.813,0.416-2.194,1.468v0.146h-0.308v-1.287c0.743-0.599,1.577-0.798,2.483-0.798c2.139,0,3.299,1.052,3.299,3.046
		V89.275z M134.275,86.465v-0.361c-0.272-0.055-0.726-0.109-1.033-0.109c-2.067,0-3.19,0.943-3.19,2.646
		c0,1.143,0.471,1.759,1.34,1.759C133.133,90.4,134.275,88.822,134.275,86.465z"/>
	<path d="M144.34,81.717c0.344,0,0.653,0.036,0.942,0.146c0.308,0.108,0.544,0.398,0.544,0.762c0,0.435-0.363,0.814-0.798,0.814
		c-0.434,0-0.815-0.38-0.815-0.814c0-0.165,0.054-0.31,0.126-0.418v-0.018c-1.831,0-3.063,2.03-3.063,5.074v2.012
		c0,0.636,0.344,0.962,0.979,0.962h0.634v0.326h-4.495v-0.326h0.634c0.634,0,0.961-0.326,0.961-0.962v-5.799
		c0-0.87-0.09-0.961-0.961-0.961h-0.326v-0.326l2.665-0.236v0.146c-0.037,0.361-0.091,0.797-0.091,1.123v0.69
		c0,0.288-0.018,0.471-0.09,0.579v0.035h0.09C141.82,82.895,142.836,81.717,144.34,81.717z"/>
	<path d="M154.931,86.049h-5.873c0.055,2.828,1.052,4.351,2.918,4.351c1.306,0,2.229-0.726,2.846-2.029l0.435,0.181
		c-0.689,1.521-1.758,2.338-3.39,2.338c-2.501,0-4.187-1.812-4.187-4.513c0-2.702,1.649-4.496,4.114-4.496
		c1.776,0,3.462,1.269,3.462,3.534v0.326C155.257,85.941,155.13,86.049,154.931,86.049z M153.735,85.578
		c0.09,0,0.144-0.054,0.144-0.163c0-1.993-0.815-3.062-2.337-3.062c-1.432,0-2.411,1.287-2.484,3.226H153.735z M153.227,78.255
		c0.072,0.055,0.09,0.108,0.09,0.182c0,0.055-0.036,0.09-0.073,0.145l-0.217,0.271l-1.94,1.522l-0.253-0.216l1.758-2.121
		c0.055-0.055,0.109-0.092,0.182-0.092c0.054,0,0.109,0.037,0.163,0.072L153.227,78.255z"/>
	<path d="M157.128,90.237h0.635c0.87,0,0.96-0.091,0.96-0.962v-5.799c0-0.87-0.091-0.961-0.96-0.961h-0.327v-0.326l2.664-0.146
		v0.128c-0.037,0.361-0.09,0.724-0.09,1.05v0.291c0,0.29-0.019,0.453-0.091,0.562v0.054h0.091c0.543-1.413,1.577-2.247,2.917-2.247
		c1.232,0,1.994,0.489,2.302,1.577c0.018,0.09,0.037,0.234,0.037,0.381c0,0.145,0,0.271-0.019,0.361l-0.018,0.056h0.09l0.019-0.056
		c0.036-0.144,0.126-0.38,0.199-0.543c0.563-1.124,1.523-1.776,2.701-1.776c1.559,0,2.393,0.834,2.393,2.411v4.983
		c0,0.871,0.109,0.962,0.979,0.962h0.471v0.326h-3.951v-0.326h1.377V90.2c-0.127-0.128-0.163-0.181-0.163-0.472v-5.11
		c0-1.469-0.435-2.266-1.269-2.266c-1.649,0-2.756,1.666-2.756,4.188v2.735c0,0.871,0.11,0.962,0.979,0.962h0.471v0.326h-3.788
		v-0.326h1.214V90.2c-0.126-0.128-0.163-0.181-0.163-0.472v-5.11c0-1.469-0.435-2.266-1.269-2.266c-1.649,0-2.754,1.666-2.754,4.188
		v2.735c0,0.871,0.108,0.962,0.978,0.962h0.635v0.326h-4.496V90.237z"/>
	<path d="M179.363,90.237h0.635c0.871,0,0.96-0.091,0.96-0.962v-5.799c0-0.87-0.089-0.961-0.96-0.961h-0.326v-0.326l2.663-0.146
		v0.128c-0.035,0.361-0.09,0.724-0.09,1.05v0.291c0,0.29-0.019,0.453-0.09,0.562v0.054h0.09c0.544-1.413,1.578-2.247,2.918-2.247
		c1.232,0,1.994,0.489,2.303,1.577c0.018,0.09,0.035,0.234,0.035,0.381c0,0.145,0,0.271-0.018,0.361l-0.018,0.056h0.09l0.019-0.056
		c0.036-0.144,0.128-0.38,0.198-0.543c0.563-1.124,1.523-1.776,2.701-1.776c1.559,0,2.394,0.834,2.394,2.411v4.983
		c0,0.871,0.109,0.962,0.979,0.962h0.471v0.326h-3.951v-0.326h1.377V90.2c-0.127-0.128-0.163-0.181-0.163-0.472v-5.11
		c0-1.469-0.435-2.266-1.269-2.266c-1.65,0-2.756,1.666-2.756,4.188v2.735c0,0.871,0.109,0.962,0.979,0.962h0.473v0.326h-3.789
		v-0.326h1.215V90.2c-0.127-0.128-0.164-0.181-0.164-0.472v-5.11c0-1.469-0.436-2.266-1.268-2.266c-1.65,0-2.756,1.666-2.756,4.188
		v2.735c0,0.871,0.108,0.962,0.979,0.962h0.635v0.326h-4.495V90.237z"/>
	<path d="M203.426,86.049h-5.873c0.054,2.828,1.05,4.351,2.919,4.351c1.305,0,2.229-0.726,2.846-2.029l0.434,0.181
		c-0.688,1.521-1.758,2.338-3.389,2.338c-2.502,0-4.188-1.812-4.188-4.513c0-2.702,1.648-4.496,4.113-4.496
		c1.777,0,3.463,1.269,3.463,3.534v0.326C203.751,85.941,203.624,86.049,203.426,86.049z M202.229,85.578
		c0.091,0,0.146-0.054,0.146-0.163c0-1.993-0.816-3.062-2.34-3.062c-1.432,0-2.408,1.287-2.481,3.226H202.229z M199.946,80.267
		l-1.852-1.812l0.438-0.508l0.688,0.779c0.508,0.562,0.889,0.889,0.941,1.16h0.092c0.055-0.271,0.416-0.598,0.924-1.16l0.689-0.779
		l0.453,0.508l-1.848,1.812H199.946z"/>
	<path d="M209.159,90.889c-0.906,0-1.994-0.399-2.557-0.817c-0.127-0.089-0.199-0.216-0.254-0.361l-0.072,0.036
		c0.054,0.127,0.109,0.325,0.109,0.508l0.037,0.617l-0.328,0.018l-0.163-2.829h0.491c0.035,1.232,1.377,2.34,2.736,2.34
		c1.396,0,2.157-0.526,2.157-1.522c0-1.812-4.894-2.412-4.894-5.004c0-1.195,1.086-1.993,2.736-1.993
		c0.87,0,1.541,0.218,1.993,0.562c0.182,0.146,0.254,0.326,0.271,0.381h0.056c-0.018-0.145-0.056-0.344-0.056-0.525l-0.036-0.417
		l0.327-0.018l0.145,2.556l-0.472,0.035l-0.018-0.271c-0.091-0.961-0.871-1.83-2.211-1.83c-1.089,0-1.686,0.398-1.686,1.124
		c0,2.012,5.056,2.628,5.056,5.165C212.529,89.983,211.189,90.889,209.159,90.889z"/>
	<path d="M217.138,88.786c0,1.053,0.472,1.614,1.304,1.614c1.161,0,1.923-0.689,1.923-1.759h0.489c0,1.342-0.96,2.248-2.412,2.248
		c-1.54,0-2.592-1.033-2.592-2.574v-5.637h-1.594v-0.489h1.123c0.636,0,0.835-0.326,0.962-0.962l0.326-1.612l0.471-0.309v2.302
		c0,0.381-0.091,0.49-0.236,0.563v0.018h3.952v0.489h-3.716V88.786z"/>
	<path d="M230.121,86.049h-5.873c0.054,2.828,1.052,4.351,2.918,4.351c1.306,0,2.229-0.726,2.846-2.029l0.436,0.181
		c-0.688,1.521-1.76,2.338-3.389,2.338c-2.503,0-4.188-1.812-4.188-4.513c0-2.702,1.65-4.496,4.115-4.496
		c1.776,0,3.462,1.269,3.462,3.534v0.326C230.447,85.941,230.32,86.049,230.121,86.049z M228.924,85.578
		c0.092,0,0.145-0.054,0.145-0.163c0-1.993-0.814-3.062-2.338-3.062c-1.431,0-2.41,1.287-2.482,3.226H228.924z M226.641,80.267
		l-1.85-1.812l0.436-0.508l0.689,0.779c0.508,0.562,0.889,0.889,0.942,1.16h0.09c0.055-0.271,0.417-0.598,0.925-1.16l0.688-0.779
		l0.454,0.508l-1.85,1.812H226.641z"/>
	<path d="M243.869,81.88c2.193,0,3.679,1.794,3.679,4.496c0,2.7-1.468,4.513-3.661,4.513c-1.322,0-2.374-0.797-2.955-2.211h-0.09
		v0.055c0.072,0.106,0.09,0.289,0.09,0.58v4.603c0,0.291-0.018,0.345-0.144,0.471v0.038h1.194v0.325h-3.932v-0.325h0.635
		c0.635,0,0.959-0.326,0.959-0.961v-9.987c0-0.762-0.053-0.997-0.651-0.997c-0.091,0-0.181,0.018-0.29,0.018l-0.309,0.019
		l-0.036-0.326l2.393-0.146v0.128c0,0.814,0.091,1.268,0.108,1.902h0.072C241.513,82.66,242.546,81.88,243.869,81.88z M243.668,90.4
		c1.577,0,2.43-1.413,2.43-4.023s-0.853-4.024-2.43-4.024c-1.649,0-2.736,1.613-2.736,4.024
		C240.932,88.733,242.019,90.4,243.668,90.4z"/>
	<path d="M255.349,81.717c0.344,0,0.652,0.036,0.941,0.146c0.309,0.108,0.545,0.398,0.545,0.762c0,0.435-0.362,0.814-0.799,0.814
		c-0.434,0-0.814-0.38-0.814-0.814c0-0.165,0.053-0.31,0.127-0.418v-0.018c-1.83,0-3.064,2.03-3.064,5.074v2.012
		c0,0.636,0.346,0.962,0.98,0.962h0.635v0.326h-4.496v-0.326h0.636c0.634,0,0.959-0.326,0.959-0.962v-5.799
		c0-0.87-0.091-0.961-0.959-0.961h-0.329v-0.326l2.666-0.236v0.146c-0.037,0.361-0.092,0.797-0.092,1.123v0.69
		c0,0.288-0.018,0.471-0.09,0.579v0.035h0.09C252.827,82.895,253.843,81.717,255.349,81.717z"/>
	<path d="M265.611,89.275c0,0.726,0.054,0.925,0.599,0.925c0.108,0,0.216-0.018,0.361-0.018l0.311-0.019l0.018,0.326l-2.375,0.237
		v-0.146c0-0.814-0.128-1.088-0.146-1.721h-0.07c-0.562,1.212-1.559,2.029-2.865,2.029c-1.648,0-2.756-0.906-2.756-2.248
		c0-1.703,1.812-3.063,4.514-3.063c0.346,0,0.816,0.037,1.125,0.091v-0.906c0-1.576-0.689-2.41-1.994-2.41
		c-1.25,0-1.813,0.416-2.193,1.468v0.146h-0.308v-1.287c0.743-0.599,1.576-0.798,2.482-0.798c2.14,0,3.299,1.052,3.299,3.046V89.275
		z M264.325,86.465v-0.361c-0.272-0.055-0.727-0.109-1.033-0.109c-2.066,0-3.191,0.943-3.191,2.646c0,1.143,0.473,1.759,1.342,1.759
		C263.182,90.4,264.325,88.822,264.325,86.465z"/>
	<path d="M268.608,90.237c0.199,0,0.345-0.291,1.067-1.25l3.791-5.113c0.398-0.525,0.651-0.96,0.906-1.141v-0.055h-2.72
		c-1.74,0-2.356,0.145-2.445,1.939l-0.312-0.019l0.165-3.063l0.309,0.018l-0.036,0.799c0.127-0.127,0.18-0.163,0.47-0.163h6.364
		v0.326c-0.201,0-0.418,0.308-1.125,1.251l-3.77,5.129c-0.418,0.562-0.762,0.943-1.016,1.124v0.053h3.336
		c1.703,0,2.32-0.144,2.41-1.812v-0.127l0.326,0.02l-0.162,3.062l-0.328-0.018l0.037-0.798h-0.02
		c-0.126,0.125-0.181,0.163-0.469,0.163h-6.78V90.237z M272.035,80.267l-1.851-1.812l0.437-0.508l0.688,0.779
		c0.508,0.562,0.889,0.889,0.941,1.16h0.092c0.055-0.271,0.416-0.598,0.925-1.16l0.688-0.779l0.453,0.508l-1.848,1.812H272.035z"/>
	<path d="M281.738,90.889c-0.907,0-1.995-0.399-2.557-0.817c-0.128-0.089-0.2-0.216-0.255-0.361l-0.073,0.036
		c0.056,0.127,0.11,0.325,0.11,0.508L279,90.872l-0.326,0.018l-0.162-2.829H279c0.036,1.232,1.377,2.34,2.738,2.34
		c1.395,0,2.156-0.526,2.156-1.522c0-1.812-4.895-2.412-4.895-5.004c0-1.195,1.088-1.993,2.738-1.993
		c0.868,0,1.54,0.218,1.992,0.562c0.182,0.146,0.253,0.326,0.271,0.381h0.057c-0.019-0.145-0.057-0.344-0.057-0.525l-0.035-0.417
		l0.326-0.018l0.146,2.556l-0.473,0.035l-0.018-0.271c-0.092-0.961-0.871-1.83-2.21-1.83c-1.091,0-1.686,0.398-1.686,1.124
		c0,2.012,5.057,2.628,5.057,5.165C285.109,89.983,283.768,90.889,281.738,90.889z"/>
	<path d="M286.836,90.237h0.635c0.634,0,0.959-0.326,0.959-0.962V78.328c0-0.869-0.091-0.961-0.959-0.961h-0.329v-0.326l2.666-0.072
		v0.127c-0.036,0.363-0.092,0.652-0.092,0.979v8.103c0,0.271-0.035,0.544-0.053,0.615l0.053,0.038
		c0.019-0.056,0.146-0.31,0.328-0.526l2.409-3.082c0.454-0.579,0.544-0.597,0.727-0.67v-0.036h-0.853v-0.326h3.137v0.326h-0.418
		c-0.869,0-1.504,0.127-2.266,1.088l-1.759,2.247v0.056c1.124,0.38,1.559,1.013,2.266,2.011l0.707,0.996
		c0.454,0.653,0.871,1.342,1.596,1.342c0.055,0,0.108-0.018,0.181-0.018l0.508-0.073l0.055,0.326
		c-0.652,0.218-1.287,0.399-1.705,0.399c-0.723,0-1.16-0.508-1.939-1.597l-0.525-0.741c-0.598-0.834-1.104-1.722-1.594-2.104
		l-0.854,1.052v2.229c0,0.291-0.018,0.344-0.145,0.472v0.037h1.196v0.326h-3.932V90.237z"/>
	<path d="M305.111,86.049h-5.872c0.053,2.828,1.051,4.351,2.918,4.351c1.306,0,2.229-0.726,2.845-2.029l0.436,0.181
		c-0.688,1.521-1.76,2.338-3.389,2.338c-2.503,0-4.188-1.812-4.188-4.513c0-2.702,1.65-4.496,4.115-4.496
		c1.776,0,3.462,1.269,3.462,3.534v0.326C305.438,85.941,305.311,86.049,305.111,86.049z M303.914,85.578
		c0.092,0,0.146-0.054,0.146-0.163c0-1.993-0.814-3.062-2.338-3.062c-1.432,0-2.411,1.287-2.482,3.226H303.914z M303.407,78.255
		c0.073,0.055,0.092,0.108,0.092,0.182c0,0.055-0.036,0.09-0.074,0.145l-0.216,0.271l-1.94,1.522l-0.252-0.216l1.756-2.121
		c0.056-0.055,0.108-0.092,0.183-0.092c0.053,0,0.108,0.037,0.162,0.072L303.407,78.255z"/>
	<path d="M307.31,90.237h0.634c0.871,0,0.961-0.091,0.961-0.962v-5.799c0-0.87-0.09-0.961-0.961-0.961h-0.326v-0.326l2.664-0.146
		v0.128c-0.035,0.361-0.09,0.724-0.09,1.05v0.291c0,0.29-0.02,0.453-0.09,0.562v0.054h0.09c0.543-1.413,1.578-2.247,2.919-2.247
		c1.232,0,1.993,0.489,2.302,1.577c0.018,0.09,0.035,0.234,0.035,0.381c0,0.145,0,0.271-0.018,0.361l-0.018,0.056h0.09l0.019-0.056
		c0.036-0.144,0.127-0.38,0.198-0.543c0.563-1.124,1.522-1.776,2.701-1.776c1.559,0,2.395,0.834,2.395,2.411v4.983
		c0,0.871,0.107,0.962,0.978,0.962h0.471v0.326h-3.951v-0.326h1.377V90.2c-0.127-0.128-0.162-0.181-0.162-0.472v-5.11
		c0-1.469-0.436-2.266-1.269-2.266c-1.65,0-2.756,1.666-2.756,4.188v2.735c0,0.871,0.109,0.962,0.979,0.962h0.473v0.326h-3.789
		v-0.326h1.215V90.2c-0.127-0.128-0.164-0.181-0.164-0.472v-5.11c0-1.469-0.436-2.266-1.268-2.266c-1.65,0-2.756,1.666-2.756,4.188
		v2.735c0,0.871,0.107,0.962,0.979,0.962h0.635v0.326h-4.495V90.237z"/>
	<path d="M86.995,103.04c2.193,0,3.68,1.794,3.68,4.495c0,2.7-1.469,4.513-3.662,4.513c-1.323,0-2.374-0.797-2.954-2.211h-0.09
		v0.055c0.072,0.108,0.09,0.289,0.09,0.58v4.604c0,0.291-0.018,0.344-0.145,0.471v0.037h1.196v0.326h-3.933v-0.326h0.635
		c0.635,0,0.96-0.326,0.96-0.961v-9.987c0-0.762-0.055-0.996-0.653-0.996c-0.089,0-0.181,0.018-0.29,0.018l-0.308,0.018
		l-0.037-0.326l2.393-0.145v0.127c0,0.814,0.091,1.268,0.109,1.902h0.073C84.639,103.819,85.672,103.04,86.995,103.04z
		 M86.795,111.558c1.577,0,2.43-1.413,2.43-4.023c0-2.609-0.853-4.023-2.43-4.023c-1.649,0-2.736,1.612-2.736,4.023
		C84.059,109.891,85.146,111.558,86.795,111.558z"/>
	<path d="M98.475,102.876c0.344,0,0.652,0.035,0.942,0.144c0.308,0.109,0.544,0.399,0.544,0.762c0,0.436-0.363,0.815-0.797,0.815
		c-0.435,0-0.816-0.38-0.816-0.815c0-0.163,0.054-0.309,0.127-0.417v-0.018c-1.831,0-3.063,2.031-3.063,5.076v2.012
		c0,0.634,0.344,0.96,0.979,0.96h0.635v0.326H92.53v-0.326h0.634c0.634,0,0.961-0.326,0.961-0.96v-5.801
		c0-0.87-0.091-0.961-0.961-0.961h-0.326v-0.326l2.664-0.236v0.146c-0.036,0.361-0.09,0.797-0.09,1.122v0.69
		c0,0.289-0.019,0.471-0.091,0.58v0.035h0.091C95.955,104.054,96.97,102.876,98.475,102.876z M96.282,101.425l-1.85-1.812
		l0.436-0.508l0.688,0.779c0.508,0.562,0.889,0.889,0.942,1.161h0.091c0.055-0.272,0.417-0.599,0.925-1.161l0.688-0.779l0.454,0.508
		l-1.849,1.812H96.282z"/>
	<path d="M104.479,103.275v0.145c-0.036,0.362-0.09,0.635-0.09,0.96v6.056c0,0.87,0.109,0.96,0.979,0.96h0.635v0.326h-4.496v-0.326
		h0.635c0.87,0,0.961-0.09,0.961-0.96v-5.801c0-0.87-0.091-0.961-0.961-0.961h-0.326v-0.326L104.479,103.275z M104.57,100.066
		c0,0.471-0.29,0.816-0.798,0.816c-0.471,0-0.815-0.308-0.815-0.816c0-0.471,0.309-0.797,0.815-0.797
		C104.244,99.269,104.57,99.558,104.57,100.066z"/>
	<path d="M105.951,115.926l0.144-0.508c0.889,0.253,1.088,0.326,1.45,0.326c1.033,0,1.596-0.797,1.596-1.939v-9.171
		c0-0.87-0.091-0.961-0.961-0.961h-0.326v-0.326l2.664-0.072v0.145c-0.036,0.362-0.09,0.635-0.09,0.96v8.792
		c0,1.831-1.215,3.063-3.027,3.063C106.766,116.235,106.205,115.999,105.951,115.926z M110.609,100.066
		c0,0.471-0.29,0.816-0.798,0.816c-0.471,0-0.815-0.308-0.815-0.816c0-0.471,0.309-0.797,0.815-0.797
		C110.283,99.269,110.609,99.558,110.609,100.066z"/>
	<path d="M112.95,111.395h0.635c0.87,0,0.961-0.09,0.961-0.96v-5.801c0-0.87-0.091-0.961-0.961-0.961h-0.327v-0.326l2.665-0.145
		v0.127c-0.037,0.361-0.09,0.725-0.09,1.05v0.291c0,0.29-0.019,0.453-0.091,0.562v0.055h0.091c0.543-1.414,1.577-2.247,2.918-2.247
		c1.232,0,1.993,0.489,2.302,1.577c0.018,0.089,0.036,0.234,0.036,0.38c0,0.145,0,0.272-0.019,0.362l-0.018,0.055h0.089l0.019-0.055
		c0.036-0.145,0.127-0.381,0.199-0.544c0.563-1.124,1.523-1.775,2.701-1.775c1.559,0,2.392,0.833,2.392,2.41v4.985
		c0,0.87,0.11,0.96,0.979,0.96h0.471v0.326h-3.951v-0.326h1.377v-0.037c-0.127-0.126-0.163-0.181-0.163-0.471v-5.111
		c0-1.468-0.435-2.265-1.269-2.265c-1.649,0-2.756,1.665-2.756,4.187v2.737c0,0.87,0.109,0.96,0.979,0.96h0.471v0.326h-3.788v-0.326
		h1.214v-0.037c-0.126-0.126-0.163-0.181-0.163-0.471v-5.111c0-1.468-0.435-2.265-1.269-2.265c-1.649,0-2.754,1.665-2.754,4.187
		v2.737c0,0.87,0.108,0.96,0.978,0.96h0.635v0.326h-4.496V111.395z"/>
	<path d="M137.013,107.208h-5.874c0.055,2.827,1.052,4.35,2.918,4.35c1.305,0,2.229-0.726,2.846-2.029l0.436,0.181
		c-0.689,1.522-1.758,2.338-3.389,2.338c-2.502,0-4.188-1.812-4.188-4.513c0-2.701,1.649-4.495,4.114-4.495
		c1.777,0,3.462,1.269,3.462,3.533v0.327C137.339,107.099,137.212,107.208,137.013,107.208z M135.816,106.738
		c0.09,0,0.145-0.056,0.145-0.165c0-1.993-0.816-3.062-2.339-3.062c-1.432,0-2.41,1.286-2.483,3.227H135.816z"/>
	<path d="M139.211,111.395h0.634c0.87,0,0.961-0.09,0.961-0.96v-5.801c0-0.87-0.091-0.961-0.961-0.961h-0.326v-0.326l2.664-0.145
		v0.127c-0.036,0.361-0.09,0.725-0.09,1.05v0.291c0,0.29-0.018,0.453-0.09,0.562v0.055h0.09c0.543-1.414,1.577-2.247,2.918-2.247
		c1.232,0,1.994,0.489,2.303,1.577c0.018,0.089,0.036,0.234,0.036,0.38c0,0.145,0,0.272-0.018,0.362l-0.018,0.055h0.09l0.018-0.055
		c0.037-0.145,0.127-0.381,0.2-0.544c0.562-1.124,1.522-1.775,2.701-1.775c1.559,0,2.393,0.833,2.393,2.41v4.985
		c0,0.87,0.109,0.96,0.979,0.96h0.471v0.326h-3.951v-0.326h1.376v-0.037c-0.126-0.126-0.163-0.181-0.163-0.471v-5.111
		c0-1.468-0.435-2.265-1.269-2.265c-1.649,0-2.755,1.665-2.755,4.187v2.737c0,0.87,0.109,0.96,0.979,0.96h0.471v0.326h-3.788v-0.326
		h1.214v-0.037c-0.126-0.126-0.163-0.181-0.163-0.471v-5.111c0-1.468-0.435-2.265-1.269-2.265c-1.649,0-2.755,1.665-2.755,4.187
		v2.737c0,0.87,0.109,0.96,0.979,0.96h0.634v0.326h-4.495V111.395z"/>
	<path d="M163.273,107.208H157.4c0.054,2.827,1.051,4.35,2.918,4.35c1.304,0,2.229-0.726,2.845-2.029l0.436,0.181
		c-0.689,1.522-1.759,2.338-3.39,2.338c-2.501,0-4.187-1.812-4.187-4.513c0-2.701,1.649-4.495,4.114-4.495
		c1.777,0,3.462,1.269,3.462,3.533v0.327C163.6,107.099,163.473,107.208,163.273,107.208z M162.078,106.738
		c0.089,0,0.144-0.056,0.144-0.165c0-1.993-0.815-3.062-2.338-3.062c-1.432,0-2.41,1.286-2.483,3.227H162.078z"/>
	<path d="M174.738,112.047c-0.907,0-1.996-0.399-2.558-0.815c-0.126-0.091-0.2-0.218-0.253-0.362l-0.073,0.036
		c0.055,0.126,0.109,0.326,0.109,0.507L172,112.03l-0.326,0.018l-0.164-2.827H172c0.036,1.232,1.377,2.338,2.738,2.338
		c1.394,0,2.155-0.526,2.155-1.522c0-1.812-4.894-2.412-4.894-5.004c0-1.194,1.088-1.992,2.738-1.992
		c0.869,0,1.54,0.218,1.992,0.562c0.181,0.145,0.253,0.325,0.271,0.381h0.057c-0.02-0.145-0.057-0.344-0.057-0.526l-0.035-0.416
		l0.326-0.02l0.146,2.557l-0.473,0.035l-0.018-0.271c-0.091-0.962-0.87-1.83-2.21-1.83c-1.09,0-1.687,0.397-1.687,1.123
		c0,2.012,5.057,2.628,5.057,5.165C178.108,111.141,176.768,112.047,174.738,112.047z"/>
	<path d="M182.898,103.347v0.326h-1.287v0.037c0.253,0.09,0.436,0.38,0.562,0.688l2.119,5.401c0.146,0.346,0.184,0.598,0.184,0.672
		v0.035h0.162v-0.035c0-0.056,0.055-0.326,0.236-0.762l1.992-5.075c0.074-0.217,0.146-0.382,0.146-0.525
		c0-0.309-0.254-0.436-0.906-0.436h-0.672v-0.326h3.246v0.326h-0.236c-0.652,0-0.742,0.164-1.051,0.961l-2.828,7.177l-0.742,0.074
		l-2.865-7.251c-0.344-0.87-0.398-0.961-1.052-0.961h-0.234v-0.326H182.898z"/>
	<path d="M197.295,110.435c0,0.724,0.055,0.923,0.6,0.923c0.109,0,0.217-0.018,0.361-0.018l0.309-0.018l0.018,0.325l-2.373,0.237
		v-0.146c0-0.814-0.127-1.087-0.146-1.721h-0.072c-0.561,1.214-1.559,2.029-2.863,2.029c-1.649,0-2.755-0.906-2.755-2.248
		c0-1.703,1.812-3.062,4.513-3.062c0.344,0,0.816,0.035,1.123,0.089v-0.906c0-1.576-0.688-2.409-1.992-2.409
		c-1.251,0-1.812,0.415-2.192,1.467v0.146h-0.311v-1.286c0.744-0.6,1.578-0.798,2.483-0.798c2.139,0,3.299,1.051,3.299,3.045
		V110.435z M196.008,107.624v-0.361c-0.271-0.054-0.725-0.109-1.033-0.109c-2.066,0-3.188,0.943-3.188,2.646
		c0,1.143,0.471,1.759,1.341,1.759C194.865,111.558,196.008,109.982,196.008,107.624z M195.519,99.342
		c0.073,0.054,0.091,0.107,0.091,0.181c0,0.055-0.035,0.09-0.071,0.145l-0.218,0.271l-1.939,1.522l-0.254-0.218l1.758-2.119
		c0.055-0.055,0.108-0.091,0.183-0.091c0.053,0,0.108,0.036,0.161,0.071L195.519,99.342z"/>
	<path d="M203.011,109.944c0,1.053,0.472,1.614,1.306,1.614c1.159,0,1.921-0.688,1.921-1.759h0.489c0,1.342-0.96,2.248-2.41,2.248
		c-1.541,0-2.592-1.033-2.592-2.574v-5.636h-1.596v-0.49h1.125c0.635,0,0.832-0.327,0.959-0.961l0.328-1.613l0.47-0.309v2.303
		c0,0.38-0.089,0.49-0.235,0.562v0.018h3.951v0.49h-3.716V109.944z"/>
	<path d="M212.621,103.04c2.32,0,3.86,1.794,3.86,4.495c0,2.7-1.54,4.513-3.86,4.513s-3.879-1.812-3.879-4.513
		C208.742,104.833,210.301,103.04,212.621,103.04z M212.551,103.511c-1.561,0-2.395,1.194-2.395,3.389
		c0,3.026,0.889,4.658,2.521,4.658c1.559,0,2.391-1.179,2.391-3.371C215.068,105.159,214.18,103.511,212.551,103.511z"/>
	<path d="M221.89,112.047c-0.906,0-1.994-0.399-2.556-0.815c-0.127-0.091-0.2-0.218-0.254-0.362l-0.073,0.036
		c0.056,0.126,0.109,0.326,0.109,0.507l0.038,0.617l-0.329,0.018l-0.162-2.827h0.491c0.035,1.232,1.376,2.338,2.735,2.338
		c1.396,0,2.157-0.526,2.157-1.522c0-1.812-4.893-2.412-4.893-5.004c0-1.194,1.085-1.992,2.735-1.992
		c0.871,0,1.541,0.218,1.994,0.562c0.181,0.145,0.254,0.325,0.271,0.381h0.055c-0.019-0.145-0.055-0.344-0.055-0.526l-0.036-0.416
		l0.327-0.02l0.145,2.557l-0.472,0.035l-0.018-0.271c-0.091-0.962-0.871-1.83-2.212-1.83c-1.088,0-1.686,0.397-1.686,1.123
		c0,2.012,5.057,2.628,5.057,5.165C225.261,111.141,223.921,112.047,221.89,112.047z"/>
	<path d="M229.87,109.944c0,1.053,0.471,1.614,1.305,1.614c1.16,0,1.922-0.688,1.922-1.759h0.488c0,1.342-0.959,2.248-2.41,2.248
		c-1.541,0-2.593-1.033-2.593-2.574v-5.636h-1.595v-0.49h1.124c0.636,0,0.834-0.327,0.96-0.961l0.328-1.613l0.471-0.309v2.303
		c0,0.38-0.091,0.49-0.236,0.562v0.018h3.951v0.49h-3.715V109.944z"/>
	<path d="M241.024,111.395h0.636c0.868,0,0.96-0.09,0.96-0.96v-5.801c0-0.87-0.092-0.961-0.96-0.961h-0.327v-0.326l2.665-0.145
		v0.127c-0.038,0.361-0.091,0.725-0.091,1.05v0.291c0,0.29-0.018,0.453-0.092,0.562v0.055h0.092
		c0.544-1.414,1.576-2.247,2.918-2.247c1.232,0,1.994,0.489,2.303,1.577c0.018,0.089,0.036,0.234,0.036,0.38
		c0,0.145,0,0.272-0.019,0.362l-0.018,0.055h0.09l0.018-0.055c0.037-0.145,0.126-0.381,0.2-0.544
		c0.562-1.124,1.522-1.775,2.702-1.775c1.559,0,2.391,0.833,2.391,2.41v4.985c0,0.87,0.109,0.96,0.979,0.96h0.471v0.326h-3.95
		v-0.326h1.377v-0.037c-0.127-0.126-0.165-0.181-0.165-0.471v-5.111c0-1.468-0.433-2.265-1.268-2.265
		c-1.648,0-2.755,1.665-2.755,4.187v2.737c0,0.87,0.108,0.96,0.979,0.96h0.47v0.326h-3.788v-0.326h1.214v-0.037
		c-0.126-0.126-0.162-0.181-0.162-0.471v-5.111c0-1.468-0.434-2.265-1.27-2.265c-1.648,0-2.754,1.665-2.754,4.187v2.737
		c0,0.87,0.109,0.96,0.979,0.96h0.635v0.326h-4.496V111.395z"/>
	<path d="M264.761,110.435c0,0.724,0.054,0.923,0.598,0.923c0.108,0,0.218-0.018,0.362-0.018l0.308-0.018l0.018,0.325l-2.373,0.237
		v-0.146c0-0.814-0.127-1.087-0.145-1.721h-0.074c-0.561,1.214-1.559,2.029-2.862,2.029c-1.65,0-2.755-0.906-2.755-2.248
		c0-1.703,1.812-3.062,4.513-3.062c0.343,0,0.814,0.035,1.123,0.089v-0.906c0-1.576-0.688-2.409-1.994-2.409
		c-1.251,0-1.812,0.415-2.192,1.467v0.146h-0.309v-1.286c0.743-0.6,1.578-0.798,2.483-0.798c2.139,0,3.3,1.051,3.3,3.045V110.435z
		 M263.473,107.624v-0.361c-0.272-0.054-0.724-0.109-1.032-0.109c-2.068,0-3.189,0.943-3.189,2.646c0,1.143,0.47,1.759,1.341,1.759
		C262.331,111.558,263.473,109.982,263.473,107.624z"/>
	<path d="M267.593,111.395h0.635c0.871,0,0.963-0.09,0.963-0.96v-5.801c0-0.87-0.092-0.961-0.963-0.961h-0.325v-0.326l2.662-0.145
		v0.127c-0.035,0.361-0.088,0.725-0.088,1.05v0.472c0,0.29-0.039,0.418-0.092,0.562v0.054h0.092c0.543-1.45,1.721-2.428,3.227-2.428
		c1.775,0,2.735,0.96,2.735,2.736v4.659c0,0.87,0.091,0.96,0.959,0.96h0.491v0.326h-3.951v-0.326h1.377v-0.037
		c-0.127-0.126-0.162-0.181-0.162-0.471v-4.803c0-1.687-0.543-2.573-1.596-2.573c-1.831,0-3.08,1.758-3.08,4.259v2.665
		c0,0.87,0.107,0.96,0.977,0.96h0.635v0.326h-4.495V111.395z"/>
	<path d="M279.599,111.395c0.199,0,0.344-0.29,1.07-1.25l3.787-5.113c0.398-0.524,0.653-0.96,0.906-1.141v-0.054h-2.718
		c-1.739,0-2.355,0.145-2.447,1.938l-0.308-0.019l0.163-3.063l0.308,0.018l-0.036,0.8c0.126-0.127,0.182-0.164,0.472-0.164h6.361
		v0.326c-0.197,0-0.417,0.309-1.123,1.252l-3.771,5.128c-0.415,0.562-0.762,0.943-1.016,1.124v0.055h3.336
		c1.704,0,2.32-0.145,2.412-1.812v-0.128l0.326,0.02l-0.164,3.062l-0.325-0.018l0.035-0.798h-0.018
		c-0.127,0.127-0.181,0.163-0.472,0.163h-6.779V111.395z M283.024,101.425l-1.848-1.812l0.434-0.508l0.689,0.779
		c0.508,0.562,0.889,0.889,0.943,1.161h0.09c0.056-0.272,0.418-0.599,0.925-1.161l0.688-0.779l0.453,0.508l-1.849,1.812H283.024z"/>
	<path d="M296.752,107.208h-5.873c0.054,2.827,1.052,4.35,2.918,4.35c1.307,0,2.231-0.726,2.846-2.029l0.436,0.181
		c-0.688,1.522-1.759,2.338-3.389,2.338c-2.503,0-4.188-1.812-4.188-4.513c0-2.701,1.65-4.495,4.115-4.495
		c1.776,0,3.462,1.269,3.462,3.533v0.327C297.078,107.099,296.951,107.208,296.752,107.208z M295.555,106.738
		c0.092,0,0.145-0.056,0.145-0.165c0-1.993-0.814-3.062-2.338-3.062c-1.431,0-2.409,1.286-2.482,3.227H295.555z"/>
	<path d="M298.949,111.395h0.635c0.636,0,0.963-0.326,0.963-0.96V99.486c0-0.869-0.092-0.961-0.963-0.961h-0.325v-0.326l2.663-0.071
		v0.127c-0.035,0.362-0.089,0.652-0.089,0.978v11.203c0,0.634,0.343,0.96,0.978,0.96h0.634v0.326h-4.495V111.395z"/>
	<path d="M308.524,112.047c-0.907,0-1.994-0.399-2.556-0.815c-0.126-0.091-0.2-0.218-0.253-0.362l-0.074,0.036
		c0.055,0.126,0.109,0.326,0.109,0.507l0.035,0.617l-0.325,0.018l-0.163-2.827h0.488c0.036,1.232,1.378,2.338,2.738,2.338
		c1.395,0,2.156-0.526,2.156-1.522c0-1.812-4.895-2.412-4.895-5.004c0-1.194,1.089-1.992,2.738-1.992
		c0.868,0,1.54,0.218,1.993,0.562c0.181,0.145,0.254,0.325,0.272,0.381h0.054c-0.019-0.145-0.054-0.344-0.054-0.526l-0.037-0.416
		l0.325-0.02l0.146,2.557l-0.472,0.035l-0.019-0.271c-0.089-0.962-0.868-1.83-2.21-1.83c-1.088,0-1.688,0.397-1.688,1.123
		c0,2.012,5.059,2.628,5.059,5.165C311.896,111.141,310.554,112.047,308.524,112.047z"/>
	<path d="M316.504,109.944c0,1.053,0.471,1.614,1.305,1.614c1.16,0,1.921-0.688,1.921-1.759h0.491c0,1.342-0.963,2.248-2.412,2.248
		c-1.54,0-2.592-1.033-2.592-2.574v-5.636h-1.595v-0.49h1.123c0.634,0,0.836-0.327,0.962-0.961l0.324-1.613l0.473-0.309v2.303
		c0,0.38-0.091,0.49-0.235,0.562v0.018h3.952v0.49h-3.717V109.944z"/>
	<path d="M324.99,103.347v0.326h-1.286v0.037c0.253,0.09,0.437,0.38,0.563,0.688l2.119,5.401c0.145,0.346,0.181,0.598,0.181,0.672
		v0.035h0.165v-0.035c0-0.056,0.053-0.326,0.235-0.762l1.993-5.075c0.074-0.217,0.145-0.382,0.145-0.525
		c0-0.309-0.254-0.436-0.906-0.436h-0.67v-0.326h3.244v0.326h-0.236c-0.652,0-0.743,0.164-1.052,0.961l-2.827,7.177l-0.742,0.074
		l-2.864-7.251c-0.345-0.87-0.399-0.961-1.051-0.961h-0.237v-0.326H324.99z"/>
	<path d="M335.13,103.275v0.145c-0.036,0.362-0.092,0.635-0.092,0.96v6.056c0,0.87,0.109,0.96,0.98,0.96h0.635v0.326h-4.495v-0.326
		h0.634c0.869,0,0.96-0.09,0.96-0.96v-5.801c0-0.87-0.091-0.961-0.96-0.961h-0.327v-0.326L335.13,103.275z M335.927,99.414
		c0.073,0.055,0.092,0.109,0.092,0.182c0,0.055-0.036,0.091-0.074,0.145l-0.217,0.271l-1.939,1.523l-0.253-0.217l1.757-2.121
		c0.055-0.055,0.109-0.092,0.182-0.092c0.056,0,0.108,0.037,0.164,0.072L335.927,99.414z"/>
	<path d="M340.443,111.087c0,0.471-0.29,0.798-0.797,0.798c-0.472,0-0.814-0.291-0.814-0.798c0-0.472,0.306-0.817,0.814-0.817
		C340.118,110.27,340.443,110.579,340.443,111.087z"/>
</g>
<g>
	<path fill="#E8423B" d="M5.811,100.444l-0.402,0.134c0.234,1.144,0.515,4.434,0.537,5.776l1.609,32.565l-1.341,0.064L2.99,72.781
		l1.88-0.134l0.671,10.877C6.387,97.219,22.73,108.5,36.427,108.5c15.846,0,24.843-6.445,24.843-18.53
		c0-9.546-11.425-16.389-23.589-23.732c2.18,2.773,3.654,6.195,3.654,10.323c0,7.335-5.234,12.873-12.132,12.873
		c-5.465,0-9.919-3.688-9.919-8.847c0-4.271,3.266-7.198,6.884-7.198c1.982,0,3.617,0.844,4.681,1.861l-0.928,0.971
		c-0.84-0.803-2.165-1.489-3.753-1.489c-2.88,0-5.542,2.312-5.542,5.855c0,4.271,3.685,7.504,8.578,7.504
		c6.102,0,10.79-4.853,10.79-11.53c0-6.117-3.521-10.587-7.784-13.661C20.201,55.423,9.034,46.991,9.034,34.511
		c0-13.696,10.339-21.083,28.602-21.083c8.057,0,16.114,2.82,20.277,5.909c0.94,0.671,2.015,2.685,2.149,3.088l0.939-0.269
		c-0.268-0.94-0.537-2.411-0.537-4.296L59.658,0h1.343l2.283,50.491l-3.088,0.134l-0.671-13.696
		c-0.52-10.618-8.594-19.875-21.888-19.875c-12.757,0-19.605,4.968-19.605,14.637c0,9.307,11.953,15.983,24.512,23.501
		c13.895,8.318,28.53,17.669,28.53,32.764c0,15.712-12.22,24.172-34.646,24.172c-9.265,0-22.021-3.627-27.259-7.251
		C8.228,104.205,6.146,101.518,5.811,100.444z"/>
</g>
</svg>
