<?xml version="1.0" encoding="utf-8"?>
<!-- Generator: Adobe Illustrator 15.1.0, SVG Export Plug-In . SVG Version: 6.00 Build 0)  -->
<!DOCTYPE svg PUBLIC "-//W3C//DTD SVG 1.1//EN" "http://www.w3.org/Graphics/SVG/1.1/DTD/svg11.dtd">
<svg version="1.1" id="Vrstva_1" xmlns="http://www.w3.org/2000/svg" xmlns:xlink="http://www.w3.org/1999/xlink" x="0px" y="0px"
	 width="342.99px" height="342.99px" viewBox="0 0 342.99 342.99" enable-background="new 0 0 342.99 342.99" xml:space="preserve">
<path fill="#BCDCF5" d="M159.643,170.541c-1.587,0.277-2.896,0.896-4.275,1.793c-0.759-1.104-0.689-2.689,0.827-3.447l-0.138-0.346
	c-1.655,0.759-2.827,2.827-2.138,4.965c-0.689,0.482-2.138,2.483-2.552,3.242c-0.966-1.863-1.379-3.932-1.034-5.862
	c0.275-1.999,1.448-3.793,3.034-5.104c2.552-0.481,3.999,0.276,4.966,1.311C159.229,167.921,159.712,169.23,159.643,170.541z
	 M155.091,175.369c1.172,1.104,2.965,1.793,4.827,1.793c1.311,0,3.034-0.139,5.034-0.689c0.896,1.724,2.483,3.654,3.931,4.688
	c-1.793,0.69-3.311,1.034-4.413,1.173c-0.482-1.449-2.138-2.621-3.586-2.621c-1.241,0-2.207,1.311-2.621,2.482
	c-2.138-0.552-3.999-1.723-5.586-3.379c-0.345-0.552-0.758-1.172-1.103-1.725c0.482-0.896,1.862-2.758,2.482-3.172
	C154.332,174.334,154.678,174.885,155.091,175.369z M165.297,163.714c-1.31,1.655-1.931,4.001-1.793,6.621
	c-0.552-0.069-2.068-0.069-2.344,0c0.068-1.38-0.414-2.69-1.38-3.519c-1.447-1.379-3.447-1.654-5.724-1.516
	c2-1.38,4.552-2.139,7.31-2.139C162.607,163.162,163.918,163.301,165.297,163.714z M155.16,172.541
	c-0.345,0.207-0.62,0.482-0.896,0.689c-0.345-1.379,0-2.345,0.345-2.965C154.401,171.023,154.608,171.852,155.16,172.541z
	 M164.814,176.127c-2.069,0.553-3.654,0.689-4.896,0.689c-1.862,0-3.447-0.689-4.551-1.725c-0.482-0.413-0.759-0.965-1.035-1.447
	c0.346-0.345,0.69-0.553,1.035-0.828c1.448,1.656,4.275,0.621,4.896-0.205c0.551-0.553,0.896-1.932,0.896-1.932
	c0.344,0,1.447-0.068,2.344,0.139C163.642,172.68,164.057,174.473,164.814,176.127z M159.504,171.023
	c-0.138,0.483-0.551,1.449-1.241,1.932c-1.447,0.965-2.551-0.275-2.619-0.344C156.815,171.852,158.125,171.299,159.504,171.023z
	 M162.952,182.816c0.069,1.793-0.688,3.241-2.138,4.413c-0.896-0.552-2.965-2.896-2.344-4.688
	C159.091,182.609,161.919,182.885,162.952,182.816z M162.952,182.541c-1.172,0.068-3.724-0.207-4.344-0.346
	c0.345-0.965,1.104-2.207,2.552-2.138C162.47,180.195,162.745,181.644,162.952,182.541z M169.158,181.436
	c1.655,1.449,3.932,3.242,6.069,4.897c-2.966,1.655-4.759,2.208-7.517,2.552c-2.276,0.275-4.552-0.138-6.345-1.242
	c2-1.31,3.379-2.827,3.172-4.965C165.78,182.541,167.298,182.127,169.158,181.436z M176.33,170.335
	c-2.344,1.654-4.62,3.103-4.964,3.171c-2.552-1.517-4.552-2.758-7.034-3.102c-0.414-2.689,0.345-5.173,1.311-6.621
	C168.814,164.68,171.779,167.162,176.33,170.335z M166.125,175.783c-0.828-1.518-1.448-3.242-1.725-4.828
	c2.069,0.482,3.724,1.656,6,3.033C168.538,175.023,167.504,175.369,166.125,175.783z M179.433,163.921
	c0.347,0.345,1.588,1.034,3.035,2.138c-0.482,0.344-4.206,2.896-5.24,3.655c-4.966-3.242-8.207-5.448-11.31-6.345
	c0.965-1.034,2.275-1.793,2.965-2.139C172.193,159.922,175.849,161.783,179.433,163.921z M170.676,174.334
	c0.621,0.275,4.896,3.38,5.173,3.586c-2.414,1.447-3.932,2.138-5.724,2.828c-1.448-1.035-2.966-2.965-3.932-4.621
	C167.642,175.645,168.814,175.3,170.676,174.334z M181.985,182.334c-1.518,0.965-4.482,2.828-5.655,3.379
	c-2.137-1.656-4.344-3.379-5.93-4.689c1.793-0.76,3.379-1.449,5.724-2.827C177.917,179.437,179.917,180.954,181.985,182.334z
	 M176.883,177.299c-0.483-0.413-4.276-3.172-5.104-3.586c0.759-0.413,2.207-1.24,4.896-3.172c0.965,0.621,4.412,3.172,5.034,3.654
	C179.917,175.438,178.399,176.402,176.883,177.299z M189.295,186.815c-2.344,2.069-4.137,3.657-5.31,4.759
	c-0.621-0.482-3.862-2.965-7.31-5.586c0.965-0.551,3.999-2.414,5.585-3.447C183.778,183.574,187.709,186.127,189.295,186.815z
	 M181.985,174.402c1.379,0.967,4.826,3.174,5.793,3.794c-1.518,1.171-3.104,2.276-4.897,3.447c-2.068-1.311-3.999-2.827-5.723-4.067
	C179.02,176.402,181.503,174.816,181.985,174.402z M182.675,173.575c0-0.069-4-2.896-5.103-3.654c0.896-0.69,4.619-3.31,5.103-3.725
	c0.621,0.415,4.069,2.759,5.172,3.587C186.882,170.473,182.675,173.506,182.675,173.575z M193.916,173.713
	c-0.483,0.275-4.414,3.104-5.241,3.863c-1.724-1.104-3.654-2.276-5.725-3.863c0.414-0.275,4.207-2.965,5.241-3.723
	C190.537,171.645,192.743,173.23,193.916,173.713z M183.158,181.92c1.447-1.035,3.033-2.138,5.033-3.655
	c0.896,0.62,4.552,2.689,7.104,3.517c-0.621,0.482-4.069,3.381-5.242,4.414C188.467,185.438,184.882,183.093,183.158,181.92z
	 M199.777,163.646c-3.448,0.966-9.38,4.413-11.034,5.517c-1.654-1.104-5.104-3.586-5.104-3.586c1.172-0.758,5.793-4.138,9.724-4.758
	C196.191,160.473,198.742,162.127,199.777,163.646z M200.19,176.265c-0.758,1.725-3.172,4.208-4.276,5.034
	c-0.688-0.275-5.171-2.482-6.895-3.585c0.62-0.483,5.034-3.657,5.172-3.726C196.467,175.092,198.467,175.852,200.19,176.265z
	 M194.812,173.23c-1.173-0.758-3.241-2.068-5.724-3.792c4.068-2.69,7.724-4.552,10.827-5.518c1.24,1.586,1.862,4,1.724,6.552
	C199.502,170.886,197.156,171.782,194.812,173.23z M190.397,186.333c1.104-0.896,4.552-3.792,5.241-4.413
	c1.173,0.414,4.621,0.689,6.552,0.827c-0.138,1.724,0.897,3.448,2.551,4.689c-0.964,0.759-3.103,1.861-6.344,1.448
	C195.295,188.541,193.501,188.264,190.397,186.333z M200.397,175.713c-1.448-0.413-3.241-1.24-5.241-2.344
	c2.208-1.241,4.346-2.139,6.482-2.483C201.501,172.541,201.087,174.266,200.397,175.713z M214.051,177.299
	c-0.413,0.621-0.758,1.174-1.24,1.793c-1.104,1.312-2.828,2.552-4.481,2.896c-0.484-1.379-1.863-2.275-3.104-2.275
	c-1.447,0-2.62,1.172-2.965,2.689c-1.586-0.139-4.896-0.482-6-0.967c1.38-1.032,3.586-3.584,4.414-4.963
	c2.759,0.689,4.62,0.689,5.447,0.689c2.966-0.139,4.966-1.379,5.999-2.553C212.673,174.954,213.568,176.334,214.051,177.299z
	 M206.398,172.611c0.688,0.826,2.412,1.654,4.068,0.48c0.275,0.208,0.62,0.414,0.896,0.69c-0.689,2.138-2.828,3.104-5.241,3.034
	c-1.31-0.068-2.965-0.137-5.172-0.827c0.828-1.655,1.517-3.517,1.793-5.241c0.759-0.207,1.999-0.137,2.896,0.07
	C205.707,171.438,206.052,172.059,206.398,172.611z M206.949,166.816c-0.897,0.898-1.518,2.139-1.38,3.588
	c-0.482-0.139-2.344-0.139-2.759-0.069c0.277-3.312-0.413-5.38-1.447-6.827c1.172-0.276,2.275-0.346,3.378-0.346
	c2.346-0.068,4.759,0.483,6.896,2.069C209.982,165.094,208.259,165.507,206.949,166.816z M207.018,182.609
	c0.207,1.586-0.552,3.448-1.999,4.62c-1.655-1.241-2.69-2.896-2.483-4.413C203.294,182.885,206.398,182.678,207.018,182.609z
	 M205.225,180.058c1.174,0.069,1.587,1.241,1.793,2.206c-0.966,0.207-3.585,0.346-4.413,0.207
	C202.88,181.092,203.915,180.058,205.225,180.058z M212.328,165.713c1.518,1.38,2.551,3.174,2.827,5.173
	c0.275,1.655,0.068,3.241-0.482,4.827c-0.414-0.828-1.655-1.931-1.932-2.275c0.207-0.346,0.207-0.826,0.207-1.24
	c0.139-2.207-2.275-3.449-2.481-3.242c-0.277,0.207,0.688,1.035,0.206,3.034c-1.448-0.827-3.034-1.448-4.759-1.585
	c-0.138-1.242,0.414-2.553,1.173-3.312C208.396,165.852,210.12,165.231,212.328,165.713z M206.674,172.473
	c-0.346-0.553-0.622-1.035-0.76-1.587c1.586,0.276,2.966,0.966,4.275,1.931C209.225,173.645,207.639,173.438,206.674,172.473z
	 M211.018,172.128c0.207-0.69,0.207-1.724-0.138-2.552c0.897,0.483,0.897,1.586,0.758,2.965
	C211.431,172.473,211.225,172.334,211.018,172.128z"/>
</svg>
